<svg xmlns="http://www.w3.org/2000/svg" xmlns:xlink="http://www.w3.org/1999/xlink" x="0" y="0" width="701.1111653645834" height="311.1111246744792" style="
        width:701.1111653645834px;
        height:311.1111246744792px;
        background: transparent;
        fill: none;
">
        
        
        <svg xmlns="http://www.w3.org/2000/svg" class="role-diagram-draw-area" style="overflow: visible;"><g class="shapes-region" style="stroke: black; fill: none;"><g class="composite-shape" data-amt="diagram/shapes/plot" transform="matrix(1,0,0,1,42.66666666666666,12.666666666666671)"><g><g><g class="test-xgi"><line x1="54.13402882884238" y1="0" x2="54.13402882884238" y2="270" fill="none" stroke="#c3c3c3" stroke-width="0.5"/><line x1="179.06702967321024" y1="0" x2="179.06702967321024" y2="270" fill="none" stroke="#c3c3c3" stroke-width="0.5"/><line x1="304.0000305175781" y1="0" x2="304.0000305175781" y2="270" fill="none" stroke="#c3c3c3" stroke-width="0.5"/><line x1="428.933031361946" y1="0" x2="428.933031361946" y2="270" fill="none" stroke="#c3c3c3" stroke-width="0.5"/><line x1="553.8660322063138" y1="0" x2="553.8660322063138" y2="270" fill="none" stroke="#c3c3c3" stroke-width="0.5"/></g><g class="test-ygi"><line x1="0" y1="243.47867767651292" x2="620.0000610351564" y2="243.47867767651292" fill="none" stroke="#c3c3c3" stroke-width="0.5"/><line x1="0" y1="118.54567683214503" x2="620.0000610351564" y2="118.54567683214503" fill="none" stroke="#c3c3c3" stroke-width="0.5"/></g></g><g><g class="test-xti" style="font-family: Asana-Math, Asana;"><line x1="0" y1="243.47867767651292" x2="616.0000610351564" y2="243.47867767651292" fill="none" stroke="rgb(50,50,50)" stroke-opacity="1" stroke-width="1"/><line x1="54.13402882884238" y1="239.47867767651292" x2="54.13402882884238" y2="247.47867767651292" fill="none" stroke="rgb(50,50,50)" stroke-opacity="1" stroke-width="1"/><line x1="179.06702967321024" y1="239.47867767651292" x2="179.06702967321024" y2="247.47867767651292" fill="none" stroke="rgb(50,50,50)" stroke-opacity="1" stroke-width="1"/><line x1="428.933031361946" y1="239.47867767651292" x2="428.933031361946" y2="247.47867767651292" fill="none" stroke="rgb(50,50,50)" stroke-opacity="1" stroke-width="1"/><line x1="553.8660322063138" y1="239.47867767651292" x2="553.8660322063138" y2="247.47867767651292" fill="none" stroke="rgb(50,50,50)" stroke-opacity="1" stroke-width="1"/><path d="M611.0000610351564,239.87867767651292 L619.0000610351564,243.47867767651292 L611.0000610351564,247.0786776765129 Z" stroke="none" stroke-width="1" fill="rgb(50,50,50)" fill-opacity="1"/></g><g class="test-yti" style="font-family: Asana-Math, Asana;"><line x1="304.0000305175781" y1="4" x2="304.0000305175781" y2="270" fill="none" stroke="rgb(50,50,50)" stroke-opacity="1" stroke-width="1"/><line x1="300.0000305175781" y1="118.54567683214503" x2="308.0000305175781" y2="118.54567683214503" fill="none" stroke="rgb(50,50,50)" stroke-opacity="1" stroke-width="1"/><path d="M300.4000305175781,9 L304.0000305175781,1 L307.60003051757815,9 Z" stroke="none" stroke-width="1" fill="rgb(50,50,50)" fill-opacity="1"/></g><g class="test-plot-expression"><defs><clipPath id="cpif3et3chudg-full-view"><rect x="1" y="1" width="618.0000610351564" height="268"/></clipPath></defs><g clip-path="url(#cpif3et3chudg-full-view)"><path d=" M0.00,-60.52 L0.56,-59.96 L1.13,-59.39 L1.69,-58.83 L2.26,-58.26 L2.82,-57.70 L3.38,-57.14 L3.95,-56.57 L4.51,-56.01 L5.08,-55.44 L5.64,-54.88 L6.21,-54.32 L6.77,-53.75 L7.33,-53.19 L7.90,-52.62 L8.46,-52.06 L9.03,-51.49 L9.59,-50.93 L10.15,-50.37 L10.72,-49.80 L11.28,-49.24 L11.85,-48.67 L12.41,-48.11 L12.98,-47.55 L13.54,-46.98 L14.10,-46.42 L14.67,-45.85 L15.23,-45.29 L15.80,-44.73 L16.36,-44.16 L16.92,-43.60 L17.49,-43.03 L18.05,-42.47 L18.62,-41.90 L19.18,-41.34 L19.75,-40.78 L20.31,-40.21 L20.87,-39.65 L21.44,-39.08 L22.00,-38.52 L22.57,-37.96 L23.13,-37.39 L23.69,-36.83 L24.26,-36.26 L24.82,-35.70 L25.39,-35.13 L25.95,-34.57 L26.52,-34.01 L27.08,-33.44 L27.64,-32.88 L28.21,-32.31 L28.77,-31.75 L29.34,-31.19 L29.90,-30.62 L30.46,-30.06 L31.03,-29.49 L31.59,-28.93 L32.16,-28.36 L32.72,-27.80 L33.28,-27.24 L33.85,-26.67 L34.41,-26.11 L34.98,-25.54 L35.54,-24.98 L36.11,-24.42 L36.67,-23.85 L37.23,-23.29 L37.80,-22.72 L38.36,-22.16 L38.93,-21.60 L39.49,-21.03 L40.05,-20.47 L40.62,-19.90 L41.18,-19.34 L41.75,-18.77 L42.31,-18.21 L42.88,-17.65 L43.44,-17.08 L44.00,-16.52 L44.57,-15.95 L45.13,-15.39 L45.70,-14.83 L46.26,-14.26 L46.82,-13.70 L47.39,-13.13 L47.95,-12.57 L48.52,-12.00 L49.08,-11.44 L49.65,-10.88 L50.21,-10.31 L50.77,-9.75 L51.34,-9.18 L51.90,-8.62 L52.47,-8.06 L53.03,-7.49 L53.59,-6.93 L54.16,-6.36 L54.72,-5.80 L55.29,-5.23 L55.85,-4.67 L56.41,-4.11 L56.98,-3.54 L57.54,-2.98 L58.11,-2.41 L58.67,-1.85 L59.24,-1.29 L59.80,-0.72 L60.36,-0.16 L60.93,0.41 L61.49,0.97 L62.06,1.54 L62.62,2.10 L63.18,2.66 L63.75,3.23 L64.31,3.79 L64.88,4.36 L65.44,4.92 L66.01,5.48 L66.57,6.05 L67.13,6.61 L67.70,7.18 L68.26,7.74 L68.83,8.30 L69.39,8.87 L69.95,9.43 L70.52,10.00 L71.08,10.56 L71.65,11.13 L72.21,11.69 L72.78,12.25 L73.34,12.82 L73.90,13.38 L74.47,13.95 L75.03,14.51 L75.60,15.07 L76.16,15.64 L76.72,16.20 L77.29,16.77 L77.85,17.33 L78.42,17.90 L78.98,18.46 L79.55,19.02 L80.11,19.59 L80.67,20.15 L81.24,20.72 L81.80,21.28 L82.37,21.84 L82.93,22.41 L83.49,22.97 L84.06,23.54 L84.62,24.10 L85.19,24.67 L85.75,25.23 L86.31,25.79 L86.88,26.36 L87.44,26.92 L88.01,27.49 L88.57,28.05 L89.14,28.61 L89.70,29.18 L90.26,29.74 L90.83,30.31 L91.39,30.87 L91.96,31.43 L92.52,32.00 L93.08,32.56 L93.65,33.13 L94.21,33.69 L94.78,34.26 L95.34,34.82 L95.91,35.38 L96.47,35.95 L97.03,36.51 L97.60,37.08 L98.16,37.64 L98.73,38.20 L99.29,38.77 L99.85,39.33 L100.42,39.90 L100.98,40.46 L101.55,41.03 L102.11,41.59 L102.68,42.15 L103.24,42.72 L103.80,43.28 L104.37,43.85 L104.93,44.41 L105.50,44.97 L106.06,45.54 L106.62,46.10 L107.19,46.67 L107.75,47.23 L108.32,47.80 L108.88,48.36 L109.44,48.92 L110.01,49.49 L110.57,50.05 L111.14,50.62 L111.70,51.18 L112.27,51.74 L112.83,52.31 L113.39,52.87 L113.96,53.44 L114.52,54.00 L115.09,54.57 L115.65,55.13 L116.21,55.69 L116.78,56.26 L117.34,56.82 L117.91,57.39 L118.47,57.95 L119.04,58.51 L119.60,59.08 L120.16,59.64 L120.73,60.21 L121.29,60.77 L121.86,61.33 L122.42,61.90 L122.98,62.46 L123.55,63.03 L124.11,63.59 L124.68,64.16 L125.24,64.72 L125.81,65.28 L126.37,65.85 L126.93,66.41 L127.50,66.98 L128.06,67.54 L128.63,68.10 L129.19,68.67 L129.75,69.23 L130.32,69.80 L130.88,70.36 L131.45,70.93 L132.01,71.49 L132.58,72.05 L133.14,72.62 L133.70,73.18 L134.27,73.75 L134.83,74.31 L135.40,74.87 L135.96,75.44 L136.52,76.00 L137.09,76.57 L137.65,77.13 L138.22,77.70 L138.78,78.26 L139.34,78.82 L139.91,79.39 L140.47,79.95 L141.04,80.52 L141.60,81.08 L142.17,81.64 L142.73,82.21 L143.29,82.77 L143.86,83.34 L144.42,83.90 L144.99,84.47 L145.55,85.03 L146.11,85.59 L146.68,86.16 L147.24,86.72 L147.81,87.29 L148.37,87.85 L148.94,88.41 L149.50,88.98 L150.06,89.54 L150.63,90.11 L151.19,90.67 L151.76,91.23 L152.32,91.80 L152.88,92.36 L153.45,92.93 L154.01,93.49 L154.58,94.06 L155.14,94.62 L155.71,95.18 L156.27,95.75 L156.83,96.31 L157.40,96.88 L157.96,97.44 L158.53,98.00 L159.09,98.57 L159.65,99.13 L160.22,99.70 L160.78,100.26 L161.35,100.83 L161.91,101.39 L162.47,101.95 L163.04,102.52 L163.60,103.08 L164.17,103.65 L164.73,104.21 L165.30,104.77 L165.86,105.34 L166.42,105.90 L166.99,106.47 L167.55,107.03 L168.12,107.60 L168.68,108.16 L169.24,108.72 L169.81,109.29 L170.37,109.85 L170.94,110.42 L171.50,110.98 L172.07,111.54 L172.63,112.11 L173.19,112.67 L173.76,113.24 L174.32,113.80 L174.89,114.36 L175.45,114.93 L176.01,115.49 L176.58,116.06 L177.14,116.62 L177.71,117.19 L178.27,117.75 L178.84,118.31 L179.40,118.88 L179.96,119.44 L180.53,120.01 L181.09,120.57 L181.66,121.13 L182.22,121.70 L182.78,122.26 L183.35,122.83 L183.91,123.39 L184.48,123.96 L185.04,124.52 L185.61,125.08 L186.17,125.65 L186.73,126.21 L187.30,126.78 L187.86,127.34 L188.43,127.90 L188.99,128.47 L189.55,129.03 L190.12,129.60 L190.68,130.16 L191.25,130.73 L191.81,131.29 L192.37,131.85 L192.94,132.42 L193.50,132.98 L194.07,133.55 L194.63,134.11 L195.20,134.67 L195.76,135.24 L196.32,135.80 L196.89,136.37 L197.45,136.93 L198.02,137.50 L198.58,138.06 L199.14,138.62 L199.71,139.19 L200.27,139.75 L200.84,140.32 L201.40,140.88 L201.97,141.44 L202.53,142.01 L203.09,142.57 L203.66,143.14 L204.22,143.70 L204.79,144.26 L205.35,144.83 L205.91,145.39 L206.48,145.96 L207.04,146.52 L207.61,147.09 L208.17,147.65 L208.74,148.21 L209.30,148.78 L209.86,149.34 L210.43,149.91 L210.99,150.47 L211.56,151.03 L212.12,151.60 L212.68,152.16 L213.25,152.73 L213.81,153.29 L214.38,153.86 L214.94,154.42 L215.51,154.98 L216.07,155.55 L216.63,156.11 L217.20,156.68 L217.76,157.24 L218.33,157.80 L218.89,158.37 L219.45,158.93 L220.02,159.50 L220.58,160.06 L221.15,160.63 L221.71,161.19 L222.27,161.75 L222.84,162.32 L223.40,162.88 L223.97,163.45 L224.53,164.01 L225.10,164.57 L225.66,165.14 L226.22,165.70 L226.79,166.27 L227.35,166.83 L227.92,167.39 L228.48,167.96 L229.04,168.52 L229.61,169.09 L230.17,169.65 L230.74,170.22 L231.30,170.78 L231.87,171.34 L232.43,171.91 L232.99,172.47 L233.56,173.04 L234.12,173.60 L234.69,174.16 L235.25,174.73 L235.81,175.29 L236.38,175.86 L236.94,176.42 L237.51,176.99 L238.07,177.55 L238.64,178.11 L239.20,178.68 L239.76,179.24 L240.33,179.81 L240.89,180.37 L241.46,180.93 L242.02,181.50 L242.58,182.06 L243.15,182.63 L243.71,183.19 L244.28,183.76 L244.84,184.32 L245.40,184.88 L245.97,185.45 L246.53,186.01 L247.10,186.58 L247.66,187.14 L248.23,187.70 L248.79,188.27 L249.35,188.83 L249.92,189.40 L250.48,189.96 L251.05,190.53 L251.61,191.09 L252.17,191.65 L252.74,192.22 L253.30,192.78 L253.87,193.35 L254.43,193.91 L255.00,194.47 L255.56,195.04 L256.12,195.60 L256.69,196.17 L257.25,196.73 L257.82,197.29 L258.38,197.86 L258.94,198.42 L259.51,198.99 L260.07,199.55 L260.64,200.12 L261.20,200.68 L261.77,201.24 L262.33,201.81 L262.89,202.37 L263.46,202.94 L264.02,203.50 L264.59,204.06 L265.15,204.63 L265.71,205.19 L266.28,205.76 L266.84,206.32 L267.41,206.89 L267.97,207.45 L268.54,208.01 L269.10,208.58 L269.66,209.14 L270.23,209.71 L270.79,210.27 L271.36,210.83 L271.92,211.40 L272.48,211.96 L273.05,212.53 L273.61,213.09 L274.18,213.66 L274.74,214.22 L275.30,214.78 L275.87,215.35 L276.43,215.91 L277.00,216.48 L277.56,217.04 L278.13,217.60 L278.69,218.17 L279.25,218.73 L279.82,219.30 L280.38,219.86 L280.95,220.42 L281.51,220.99 L282.07,221.55 L282.64,222.12 L283.20,222.68 L283.77,223.25 L284.33,223.81 L284.90,224.37 L285.46,224.94 L286.02,225.50 L286.59,226.07 L287.15,226.63 L287.72,227.19 L288.28,227.76 L288.84,228.32 L289.41,228.89 L289.97,229.45 L290.54,230.02 L291.10,230.58 L291.67,231.14 L292.23,231.71 L292.79,232.27 L293.36,232.84 L293.92,233.40 L294.49,233.96 L295.05,234.53 L295.61,235.09 L296.18,235.66 L296.74,236.22 L297.31,236.79 L297.87,237.35 L298.43,237.91 L299.00,238.48 L299.56,239.04 L300.13,239.61 L300.69,240.17 L301.26,240.73 L301.82,241.30 L302.38,241.86 L302.95,242.43 L303.51,242.99 L304.08,243.40 L304.64,242.84 L305.20,242.27 L305.77,241.71 L306.33,241.15 L306.90,240.58 L307.46,240.02 L308.03,239.45 L308.59,238.89 L309.15,238.32 L309.72,237.76 L310.28,237.20 L310.85,236.63 L311.41,236.07 L311.97,235.50 L312.54,234.94 L313.10,234.38 L313.67,233.81 L314.23,233.25 L314.80,232.68 L315.36,232.12 L315.92,231.56 L316.49,230.99 L317.05,230.43 L317.62,229.86 L318.18,229.30 L318.74,228.73 L319.31,228.17 L319.87,227.61 L320.44,227.04 L321.00,226.48 L321.57,225.91 L322.13,225.35 L322.69,224.79 L323.26,224.22 L323.82,223.66 L324.39,223.09 L324.95,222.53 L325.51,221.96 L326.08,221.40 L326.64,220.84 L327.21,220.27 L327.77,219.71 L328.33,219.14 L328.90,218.58 L329.46,218.02 L330.03,217.45 L330.59,216.89 L331.16,216.32 L331.72,215.76 L332.28,215.19 L332.85,214.63 L333.41,214.07 L333.98,213.50 L334.54,212.94 L335.10,212.37 L335.67,211.81 L336.23,211.25 L336.80,210.68 L337.36,210.12 L337.93,209.55 L338.49,208.99 L339.05,208.42 L339.62,207.86 L340.18,207.30 L340.75,206.73 L341.31,206.17 L341.87,205.60 L342.44,205.04 L343.00,204.48 L343.57,203.91 L344.13,203.35 L344.70,202.78 L345.26,202.22 L345.82,201.66 L346.39,201.09 L346.95,200.53 L347.52,199.96 L348.08,199.40 L348.64,198.83 L349.21,198.27 L349.77,197.71 L350.34,197.14 L350.90,196.58 L351.47,196.01 L352.03,195.45 L352.59,194.89 L353.16,194.32 L353.72,193.76 L354.29,193.19 L354.85,192.63 L355.41,192.06 L355.98,191.50 L356.54,190.94 L357.11,190.37 L357.67,189.81 L358.23,189.24 L358.80,188.68 L359.36,188.12 L359.93,187.55 L360.49,186.99 L361.06,186.42 L361.62,185.86 L362.18,185.29 L362.75,184.73 L363.31,184.17 L363.88,183.60 L364.44,183.04 L365.00,182.47 L365.57,181.91 L366.13,181.35 L366.70,180.78 L367.26,180.22 L367.83,179.65 L368.39,179.09 L368.95,178.53 L369.52,177.96 L370.08,177.40 L370.65,176.83 L371.21,176.27 L371.77,175.70 L372.34,175.14 L372.90,174.58 L373.47,174.01 L374.03,173.45 L374.60,172.88 L375.16,172.32 L375.72,171.76 L376.29,171.19 L376.85,170.63 L377.42,170.06 L377.98,169.50 L378.54,168.93 L379.11,168.37 L379.67,167.81 L380.24,167.24 L380.80,166.68 L381.36,166.11 L381.93,165.55 L382.49,164.99 L383.06,164.42 L383.62,163.86 L384.19,163.29 L384.75,162.73 L385.31,162.16 L385.88,161.60 L386.44,161.04 L387.01,160.47 L387.57,159.91 L388.13,159.34 L388.70,158.78 L389.26,158.22 L389.83,157.65 L390.39,157.09 L390.96,156.52 L391.52,155.96 L392.08,155.39 L392.65,154.83 L393.21,154.27 L393.78,153.70 L394.34,153.14 L394.90,152.57 L395.47,152.01 L396.03,151.45 L396.60,150.88 L397.16,150.32 L397.73,149.75 L398.29,149.19 L398.85,148.63 L399.42,148.06 L399.98,147.50 L400.55,146.93 L401.11,146.37 L401.67,145.80 L402.24,145.24 L402.80,144.68 L403.37,144.11 L403.93,143.55 L404.50,142.98 L405.06,142.42 L405.62,141.86 L406.19,141.29 L406.75,140.73 L407.32,140.16 L407.88,139.60 L408.44,139.03 L409.01,138.47 L409.57,137.91 L410.14,137.34 L410.70,136.78 L411.26,136.21 L411.83,135.65 L412.39,135.09 L412.96,134.52 L413.52,133.96 L414.09,133.39 L414.65,132.83 L415.21,132.26 L415.78,131.70 L416.34,131.14 L416.91,130.57 L417.47,130.01 L418.03,129.44 L418.60,128.88 L419.16,128.32 L419.73,127.75 L420.29,127.19 L420.86,126.62 L421.42,126.06 L421.98,125.50 L422.55,124.93 L423.11,124.37 L423.68,123.80 L424.24,123.24 L424.80,122.67 L425.37,122.11 L425.93,121.55 L426.50,120.98 L427.06,120.42 L427.63,119.85 L428.19,119.29 L428.75,118.73 L429.32,118.16 L429.88,117.60 L430.45,117.03 L431.01,116.47 L431.57,115.90 L432.14,115.34 L432.70,114.78 L433.27,114.21 L433.83,113.65 L434.39,113.08 L434.96,112.52 L435.52,111.96 L436.09,111.39 L436.65,110.83 L437.22,110.26 L437.78,109.70 L438.34,109.13 L438.91,108.57 L439.47,108.01 L440.04,107.44 L440.60,106.88 L441.16,106.31 L441.73,105.75 L442.29,105.19 L442.86,104.62 L443.42,104.06 L443.99,103.49 L444.55,102.93 L445.11,102.36 L445.68,101.80 L446.24,101.24 L446.81,100.67 L447.37,100.11 L447.93,99.54 L448.50,98.98 L449.06,98.42 L449.63,97.85 L450.19,97.29 L450.76,96.72 L451.32,96.16 L451.88,95.60 L452.45,95.03 L453.01,94.47 L453.58,93.90 L454.14,93.34 L454.70,92.77 L455.27,92.21 L455.83,91.65 L456.40,91.08 L456.96,90.52 L457.53,89.95 L458.09,89.39 L458.65,88.83 L459.22,88.26 L459.78,87.70 L460.35,87.13 L460.91,86.57 L461.47,86.00 L462.04,85.44 L462.60,84.88 L463.17,84.31 L463.73,83.75 L464.29,83.18 L464.86,82.62 L465.42,82.06 L465.99,81.49 L466.55,80.93 L467.12,80.36 L467.68,79.80 L468.24,79.23 L468.81,78.67 L469.37,78.11 L469.94,77.54 L470.50,76.98 L471.06,76.41 L471.63,75.85 L472.19,75.29 L472.76,74.72 L473.32,74.16 L473.89,73.59 L474.45,73.03 L475.01,72.47 L475.58,71.90 L476.14,71.34 L476.71,70.77 L477.27,70.21 L477.83,69.64 L478.40,69.08 L478.96,68.52 L479.53,67.95 L480.09,67.39 L480.66,66.82 L481.22,66.26 L481.78,65.70 L482.35,65.13 L482.91,64.57 L483.48,64.00 L484.04,63.44 L484.60,62.87 L485.17,62.31 L485.73,61.75 L486.30,61.18 L486.86,60.62 L487.42,60.05 L487.99,59.49 L488.55,58.93 L489.12,58.36 L489.68,57.80 L490.25,57.23 L490.81,56.67 L491.37,56.10 L491.94,55.54 L492.50,54.98 L493.07,54.41 L493.63,53.85 L494.19,53.28 L494.76,52.72 L495.32,52.16 L495.89,51.59 L496.45,51.03 L497.02,50.46 L497.58,49.90 L498.14,49.33 L498.71,48.77 L499.27,48.21 L499.84,47.64 L500.40,47.08 L500.96,46.51 L501.53,45.95 L502.09,45.39 L502.66,44.82 L503.22,44.26 L503.79,43.69 L504.35,43.13 L504.91,42.57 L505.48,42.00 L506.04,41.44 L506.61,40.87 L507.17,40.31 L507.73,39.74 L508.30,39.18 L508.86,38.62 L509.43,38.05 L509.99,37.49 L510.56,36.92 L511.12,36.36 L511.68,35.80 L512.25,35.23 L512.81,34.67 L513.38,34.10 L513.94,33.54 L514.50,32.97 L515.07,32.41 L515.63,31.85 L516.20,31.28 L516.76,30.72 L517.32,30.15 L517.89,29.59 L518.45,29.03 L519.02,28.46 L519.58,27.90 L520.15,27.33 L520.71,26.77 L521.27,26.20 L521.84,25.64 L522.40,25.08 L522.97,24.51 L523.53,23.95 L524.09,23.38 L524.66,22.82 L525.22,22.26 L525.79,21.69 L526.35,21.13 L526.92,20.56 L527.48,20.00 L528.04,19.43 L528.61,18.87 L529.17,18.31 L529.74,17.74 L530.30,17.18 L530.86,16.61 L531.43,16.05 L531.99,15.49 L532.56,14.92 L533.12,14.36 L533.69,13.79 L534.25,13.23 L534.81,12.67 L535.38,12.10 L535.94,11.54 L536.51,10.97 L537.07,10.41 L537.63,9.84 L538.20,9.28 L538.76,8.72 L539.33,8.15 L539.89,7.59 L540.46,7.02 L541.02,6.46 L541.58,5.90 L542.15,5.33 L542.71,4.77 L543.28,4.20 L543.84,3.64 L544.40,3.07 L544.97,2.51 L545.53,1.95 L546.10,1.38 L546.66,0.82 L547.22,0.25 L547.79,-0.31 L548.35,-0.87 L548.92,-1.44 L549.48,-2.00 L550.05,-2.57 L550.61,-3.13 L551.17,-3.70 L551.74,-4.26 L552.30,-4.82 L552.87,-5.39 L553.43,-5.95 L553.99,-6.52 L554.56,-7.08 L555.12,-7.64 L555.69,-8.21 L556.25,-8.77 L556.82,-9.34 L557.38,-9.90 L557.94,-10.46 L558.51,-11.03 L559.07,-11.59 L559.64,-12.16 L560.20,-12.72 L560.76,-13.29 L561.33,-13.85 L561.89,-14.41 L562.46,-14.98 L563.02,-15.54 L563.59,-16.11 L564.15,-16.67 L564.71,-17.23 L565.28,-17.80 L565.84,-18.36 L566.41,-18.93 L566.97,-19.49 L567.53,-20.06 L568.10,-20.62 L568.66,-21.18 L569.23,-21.75 L569.79,-22.31 L570.35,-22.88 L570.92,-23.44 L571.48,-24.00 L572.05,-24.57 L572.61,-25.13 L573.18,-25.70 L573.74,-26.26 L574.30,-26.83 L574.87,-27.39 L575.43,-27.95 L576.00,-28.52 L576.56,-29.08 L577.12,-29.65 L577.69,-30.21 L578.25,-30.77 L578.82,-31.34 L579.38,-31.90 L579.95,-32.47 L580.51,-33.03 L581.07,-33.60 L581.64,-34.16 L582.20,-34.72 L582.77,-35.29 L583.33,-35.85 L583.89,-36.42 L584.46,-36.98 L585.02,-37.54 L585.59,-38.11 L586.15,-38.67 L586.72,-39.24 L587.28,-39.80 L587.84,-40.36 L588.41,-40.93 L588.97,-41.49 L589.54,-42.06 L590.10,-42.62 L590.66,-43.19 L591.23,-43.75 L591.79,-44.31 L592.36,-44.88 L592.92,-45.44 L593.49,-46.01 L594.05,-46.57 L594.61,-47.13 L595.18,-47.70 L595.74,-48.26 L596.31,-48.83 L596.87,-49.39 L597.43,-49.96 L598.00,-50.52 L598.56,-51.08 L599.13,-51.65 L599.69,-52.21 L600.25,-52.78 L600.82,-53.34 L601.38,-53.90 L601.95,-54.47 L602.51,-55.03 L603.08,-55.60 L603.64,-56.16 L604.20,-56.73 L604.77,-57.29 L605.33,-57.85 L605.90,-58.42 L606.46,-58.98 L607.02,-59.55 L607.59,-60.11 L608.15,-60.67 L608.72,-61.24 L609.28,-61.80 L609.85,-62.37 L610.41,-62.93 L610.97,-63.49 L611.54,-64.06 L612.10,-64.62 L612.67,-65.19 L613.23,-65.75 L613.79,-66.32 L614.36,-66.88 L614.92,-67.44 L615.49,-68.01 L616.05,-68.57 L616.62,-69.14 L617.18,-69.70 L617.74,-70.26 L618.31,-70.83 L618.87,-71.39 L619.44,-71.96 L620.00,-72.52" style="stroke-width: 2; stroke: rgb(0, 0, 0); stroke-opacity: 0.8;"/><g><g class="arrow-line"><path class="vector-plot real" stroke-dasharray="" d="  M304,243.48 L488.57,58.91" style="stroke: rgb(214, 67, 102); stroke-opacity: 1; stroke-width: 2;"/><g stroke="none" fill="rgb(214,67,102)" fill-opacity="1" transform="matrix(-0.7071067811865479,0.7071067811865471,-0.7071067811865471,-0.7071067811865479,491.39953178413003,56.07917640996109)" style="stroke: none; fill: rgb(214, 67, 102); stroke-width: 2;"><path d=" M11.61,-5.58 L0,0 L11.61,5.58 Z"/></g></g></g><g><g class="arrow-line"><path class="vector-plot real" stroke-dasharray="" d="  M304,243.48 L426.1,121.37" style="stroke: rgb(60, 180, 75); stroke-opacity: 1; stroke-width: 2;"/><g stroke="none" fill="rgb(60,180,75)" fill-opacity="1" transform="matrix(-0.7071067811865479,0.7071067811865471,-0.7071067811865471,-0.7071067811865479,428.93303136194606,118.54567683214503)" style="stroke: none; fill: rgb(60, 180, 75); stroke-width: 2;"><path d=" M11.61,-5.58 L0,0 L11.61,5.58 Z"/></g></g></g><g><g class="arrow-line"><path class="vector-plot real" stroke-dasharray="" d="  M304,243.48 L181.9,121.37" style="stroke: rgb(60, 180, 75); stroke-opacity: 1; stroke-width: 2;"/><g stroke="none" fill="rgb(60,180,75)" fill-opacity="1" transform="matrix(0.7071067811865483,0.7071067811865467,-0.7071067811865467,0.7071067811865483,179.06702967321027,118.54567683214503)" style="stroke: none; fill: rgb(60, 180, 75); stroke-width: 2;"><path d=" M11.61,-5.58 L0,0 L11.61,5.58 Z"/></g></g></g><g><g class="arrow-line"><path class="vector-plot real" stroke-dasharray="" d="  M304,243.48 L304,122.55" style="stroke: rgb(74, 144, 226); stroke-opacity: 1; stroke-width: 2;"/><g stroke="none" fill="rgb(74,144,226)" fill-opacity="1" transform="matrix(3.061616997868383e-16,1,-1,3.061616997868383e-16,304.0000305175781,118.54567683214503)" style="stroke: none; fill: rgb(74, 144, 226); stroke-width: 2;"><path d=" M11.61,-5.58 L0,0 L11.61,5.58 Z"/></g></g></g></g></g><g class="test-xtl" style="font-family: &quot;Open Sans&quot;, verdana, arial, sans-serif;"><text text-anchor="middle" font-size="11" dominant-baseline="hanging" stroke="none" fill="rgb(50,50,50)" fill-opacity="1" x="50.999028828842384" y="250.47867767651292">-20</text><text text-anchor="middle" font-size="11" dominant-baseline="hanging" stroke="none" fill="rgb(50,50,50)" fill-opacity="1" x="175.93202967321025" y="250.47867767651292">-10</text><text text-anchor="middle" font-size="11" dominant-baseline="hanging" stroke="none" fill="rgb(50,50,50)" fill-opacity="1" x="428.933031361946" y="250.47867767651292">10</text><text text-anchor="middle" font-size="11" dominant-baseline="hanging" stroke="none" fill="rgb(50,50,50)" fill-opacity="1" x="553.8660322063138" y="250.47867767651292">20</text><text text-anchor="middle" font-size="11" dominant-baseline="hanging" stroke="none" fill="rgb(50,50,50)" fill-opacity="1" x="296.0000305175781" y="248.47867767651292">0</text></g><g class="test-ytl" style="font-family: &quot;Open Sans&quot;, verdana, arial, sans-serif;"><text text-anchor="end" dominant-baseline="middle" font-size="11" stroke="none" fill="rgb(50,50,50)" fill-opacity="1" x="296.0000305175781" y="118.54567683214503">10</text></g><rect class="real" x="1" y="1" width="618.0000610351564" height="268" style="fill: transparent; stroke: none;"/></g></g></g><g/></g><g/><g/><g/></svg>
        <svg xmlns="http://www.w3.org/2000/svg" xmlns:xlink="http://www.w3.org/1999/xlink" width="700" height="310.00002034505206" style="width:700px;height:310.00002034505206px;font-family:Asana-Math, Asana;background:transparent;"><g><g><g><g transform="matrix(1,0,0,1,425.21702067057294,219.73986450195312)"><path transform="matrix(0.02941,0,0,-0.02941,0,0)" d="M9 1C24 -7 40 -11 52 -11C85 -11 124 18 155 65L231 182L242 113C255 28 278 -11 314 -11C336 -11 368 6 400 35L449 79L440 98C404 68 379 53 363 53C348 53 335 63 325 83C316 102 305 139 300 168L282 269L317 318C364 383 391 406 422 406C438 406 450 398 455 383L469 387L484 472C472 479 463 482 454 482C414 482 374 446 312 354L275 299L269 347C257 446 230 482 171 482C145 482 123 474 114 461L56 378L73 368C103 402 123 416 142 416C175 416 197 375 214 277L225 215L185 153C142 86 108 54 80 54C65 54 54 58 52 63L41 91L21 88C21 53 13 27 9 1Z" stroke="rgb(0,0,0)" stroke-opacity="1" stroke-width="8" fill="rgb(0,0,0)" fill-opacity="1"></path></g></g><g><g><g><g><g transform="matrix(1,0,0,1,440.7726033528646,225.49153084309896)"><path transform="matrix(0.020587,0,0,-0.020587,0,0)" d="M418 -3L418 27L366 30C311 33 301 44 301 96L301 700L60 598L67 548L217 614L217 96C217 44 206 33 152 30L96 27L96 -3C250 0 250 0 261 0C292 0 402 -3 418 -3Z" stroke="rgb(0,0,0)" stroke-opacity="1" stroke-width="8" fill="rgb(0,0,0)" fill-opacity="1"></path></g></g></g></g></g></g></g><g><g><g><g transform="matrix(1,0,0,1,240.5468953450521,215.73815551757812)"><path transform="matrix(0.02941,0,0,-0.02941,0,0)" d="M9 1C24 -7 40 -11 52 -11C85 -11 124 18 155 65L231 182L242 113C255 28 278 -11 314 -11C336 -11 368 6 400 35L449 79L440 98C404 68 379 53 363 53C348 53 335 63 325 83C316 102 305 139 300 168L282 269L317 318C364 383 391 406 422 406C438 406 450 398 455 383L469 387L484 472C472 479 463 482 454 482C414 482 374 446 312 354L275 299L269 347C257 446 230 482 171 482C145 482 123 474 114 461L56 378L73 368C103 402 123 416 142 416C175 416 197 375 214 277L225 215L185 153C142 86 108 54 80 54C65 54 54 58 52 63L41 91L21 88C21 53 13 27 9 1Z" stroke="rgb(0,0,0)" stroke-opacity="1" stroke-width="8" fill="rgb(0,0,0)" fill-opacity="1"></path></g></g><g><g><g><g><g transform="matrix(1,0,0,1,256.1024373372396,221.4897811686198)"><path transform="matrix(0.020587,0,0,-0.020587,0,0)" d="M16 23L16 -3C203 -3 203 0 239 0C275 0 275 -3 468 -3L468 82C353 77 307 81 122 77L304 270C401 373 431 428 431 503C431 618 353 689 226 689C154 689 105 669 56 619L39 483L68 483L81 529C97 587 133 612 200 612C286 612 341 558 341 473C341 398 299 324 186 204Z" stroke="rgb(0,0,0)" stroke-opacity="1" stroke-width="8" fill="rgb(0,0,0)" fill-opacity="1"></path></g></g></g></g></g></g></g><g><g><g><g transform="matrix(1,0,0,1,259.2187703450521,104.41001017252603)"><path transform="matrix(0.02941,0,0,-0.02941,0,0)" d="M263 689C108 689 29 566 29 324C29 207 50 106 85 57C120 8 176 -20 238 -20C389 -20 465 110 465 366C465 585 400 689 263 689ZM245 654C342 654 381 556 381 316C381 103 343 15 251 15C154 15 113 116 113 360C113 571 150 654 245 654ZM623 111C593 111 566 83 566 53C566 23 593 -5 622 -5C654 -5 682 22 682 53C682 83 654 111 623 111ZM1207 253C1207 366 1126 446 1012 446C964 446 928 443 875 396L875 605L1180 604L1180 689L823 690L823 322L843 316C890 363 917 377 966 377C1062 377 1122 309 1122 201C1122 90 1058 25 949 25C895 25 845 43 831 69L785 151L761 137C784 80 796 48 810 4C838 -11 878 -20 921 -20C1049 -20 1207 89 1207 253Z" stroke="rgb(0,0,0)" stroke-opacity="1" stroke-width="8" fill="rgb(0,0,0)" fill-opacity="1"></path></g></g><g><g transform="matrix(1,0,0,1,295.89410400390625,104.96555216471353)"><path transform="matrix(0.02941,0,0,-0.02941,0,0)" d="M146 266C146 526 243 632 301 700L282 726C225 675 60 542 60 266C60 159 85 58 133 -32C168 -99 200 -138 282 -215L301 -194C255 -137 146 -15 146 266Z" stroke="rgb(0,0,0)" stroke-opacity="1" stroke-width="8" fill="rgb(0,0,0)" fill-opacity="1"></path></g></g><g><g transform="matrix(1,0,0,1,305.65972900390625,104.41001017252603)"><path transform="matrix(0.02941,0,0,-0.02941,0,0)" d="M9 1C24 -7 40 -11 52 -11C85 -11 124 18 155 65L231 182L242 113C255 28 278 -11 314 -11C336 -11 368 6 400 35L449 79L440 98C404 68 379 53 363 53C348 53 335 63 325 83C316 102 305 139 300 168L282 269L317 318C364 383 391 406 422 406C438 406 450 398 455 383L469 387L484 472C472 479 463 482 454 482C414 482 374 446 312 354L275 299L269 347C257 446 230 482 171 482C145 482 123 474 114 461L56 378L73 368C103 402 123 416 142 416C175 416 197 375 214 277L225 215L185 153C142 86 108 54 80 54C65 54 54 58 52 63L41 91L21 88C21 53 13 27 9 1Z" stroke="rgb(0,0,0)" stroke-opacity="1" stroke-width="8" fill="rgb(0,0,0)" fill-opacity="1"></path></g></g><g><g><g><g><g transform="matrix(1,0,0,1,321.21531168619794,110.16165616861979)"><path transform="matrix(0.020587,0,0,-0.020587,0,0)" d="M418 -3L418 27L366 30C311 33 301 44 301 96L301 700L60 598L67 548L217 614L217 96C217 44 206 33 152 30L96 27L96 -3C250 0 250 0 261 0C292 0 402 -3 418 -3Z" stroke="rgb(0,0,0)" stroke-opacity="1" stroke-width="8" fill="rgb(0,0,0)" fill-opacity="1"></path></g></g></g></g></g><g><g transform="matrix(1,0,0,1,339.1319783528646,104.41001017252603)"><path transform="matrix(0.02941,0,0,-0.02941,0,0)" d="M604 241L604 300L364 300L364 538L305 538L305 300L65 300L65 241L305 241L305 0L364 0L364 241Z" stroke="rgb(0,0,0)" stroke-opacity="1" stroke-width="8" fill="rgb(0,0,0)" fill-opacity="1"></path></g></g><g><g transform="matrix(1,0,0,1,364.65281168619794,104.41001017252603)"><path transform="matrix(0.02941,0,0,-0.02941,0,0)" d="M9 1C24 -7 40 -11 52 -11C85 -11 124 18 155 65L231 182L242 113C255 28 278 -11 314 -11C336 -11 368 6 400 35L449 79L440 98C404 68 379 53 363 53C348 53 335 63 325 83C316 102 305 139 300 168L282 269L317 318C364 383 391 406 422 406C438 406 450 398 455 383L469 387L484 472C472 479 463 482 454 482C414 482 374 446 312 354L275 299L269 347C257 446 230 482 171 482C145 482 123 474 114 461L56 378L73 368C103 402 123 416 142 416C175 416 197 375 214 277L225 215L185 153C142 86 108 54 80 54C65 54 54 58 52 63L41 91L21 88C21 53 13 27 9 1Z" stroke="rgb(0,0,0)" stroke-opacity="1" stroke-width="8" fill="rgb(0,0,0)" fill-opacity="1"></path></g></g><g><g><g><g><g transform="matrix(1,0,0,1,380.20835367838544,110.16165616861979)"><path transform="matrix(0.020587,0,0,-0.020587,0,0)" d="M16 23L16 -3C203 -3 203 0 239 0C275 0 275 -3 468 -3L468 82C353 77 307 81 122 77L304 270C401 373 431 428 431 503C431 618 353 689 226 689C154 689 105 669 56 619L39 483L68 483L81 529C97 587 133 612 200 612C286 612 341 558 341 473C341 398 299 324 186 204Z" stroke="rgb(0,0,0)" stroke-opacity="1" stroke-width="8" fill="rgb(0,0,0)" fill-opacity="1"></path></g></g></g></g></g><g><g transform="matrix(1,0,0,1,392.24827067057294,104.96555216471353)"><path transform="matrix(0.02941,0,0,-0.02941,0,0)" d="M51 726L32 700C87 636 187 526 187 266C187 -10 83 -131 32 -194L51 -215C104 -165 273 -23 273 265C273 542 108 675 51 726Z" stroke="rgb(0,0,0)" stroke-opacity="1" stroke-width="8" fill="rgb(0,0,0)" fill-opacity="1"></path></g></g></g></g><g><g><g><g transform="matrix(1,0,0,1,532.5521443684895,128.40307250976562)"><path transform="matrix(0.02941,0,0,-0.02941,0,0)" d="M418 -3L418 27L366 30C311 33 301 44 301 96L301 700L60 598L67 548L217 614L217 96C217 44 206 33 152 30L96 27L96 -3C250 0 250 0 261 0C292 0 402 -3 418 -3ZM623 111C593 111 566 83 566 53C566 23 593 -5 622 -5C654 -5 682 22 682 53C682 83 654 111 623 111ZM1207 253C1207 366 1126 446 1012 446C964 446 928 443 875 396L875 605L1180 604L1180 689L823 690L823 322L843 316C890 363 917 377 966 377C1062 377 1122 309 1122 201C1122 90 1058 25 949 25C895 25 845 43 831 69L785 151L761 137C784 80 796 48 810 4C838 -11 878 -20 921 -20C1049 -20 1207 89 1207 253ZM1256 1C1271 -7 1287 -11 1299 -11C1332 -11 1371 18 1402 65L1478 182L1489 113C1502 28 1525 -11 1561 -11C1583 -11 1615 6 1647 35L1696 79L1687 98C1651 68 1626 53 1610 53C1595 53 1582 63 1572 83C1563 102 1552 139 1547 168L1529 269L1564 318C1611 383 1638 406 1669 406C1685 406 1697 398 1702 383L1716 387L1731 472C1719 479 1710 482 1701 482C1661 482 1621 446 1559 354L1522 299L1516 347C1504 446 1477 482 1418 482C1392 482 1370 474 1361 461L1303 378L1320 368C1350 402 1370 416 1389 416C1422 416 1444 375 1461 277L1472 215L1432 153C1389 86 1355 54 1327 54C1312 54 1301 58 1299 63L1288 91L1268 88C1268 53 1260 27 1256 1Z" stroke="rgb(0,0,0)" stroke-opacity="1" stroke-width="8" fill="rgb(0,0,0)" fill-opacity="1"></path></g></g><g><g><g><g><g transform="matrix(1,0,0,1,584.7743123372395,134.15471850585936)"><path transform="matrix(0.020587,0,0,-0.020587,0,0)" d="M418 -3L418 27L366 30C311 33 301 44 301 96L301 700L60 598L67 548L217 614L217 96C217 44 206 33 152 30L96 27L96 -3C250 0 250 0 261 0C292 0 402 -3 418 -3Z" stroke="rgb(0,0,0)" stroke-opacity="1" stroke-width="8" fill="rgb(0,0,0)" fill-opacity="1"></path></g></g></g></g></g></g></g></svg>
</svg>
