<?xml version="1.0" encoding="UTF-8" standalone="no"?>
<!DOCTYPE svg PUBLIC "-//W3C//DTD SVG 1.1//EN" "http://www.w3.org/Graphics/SVG/1.1/DTD/svg11.dtd">
<svg xmlns="http://www.w3.org/2000/svg" xmlns:xlink="http://www.w3.org/1999/xlink" version="1.1" width="612pt" height="803.25pt" viewBox="0 0 612 803.25">
<g enable-background="new">
<text fill-opacity="0" xml:space="preserve" transform="matrix(1 0 -0 1 0 803.25)" font-size="7.6842" font-family=".SFUI"><tspan y="-165.8658" x="161.8293">i</tspan></text>
<text xml:space="preserve" transform="matrix(1 0 -0 1 0 803.25)" font-size="20.4911" font-family="STSong"><tspan y="-140.3263" x="141.013">W</tspan></text>
<text xml:space="preserve" transform="matrix(1 0 -0 1 0 803.25)" font-size="10.2455" font-family="STSong"><tspan y="-140.3263" x="159.5369">1</tspan></text>
<text xml:space="preserve" transform="matrix(1 0 -0 1 0 803.25)" font-size="20.4911" font-family="STSong"><tspan y="-141.032" x="436.4352">b</tspan></text>
<text xml:space="preserve" transform="matrix(1 0 -0 1 0 803.25)" font-size="10.2455" font-family="STSong"><tspan y="-141.032" x="447.1315">1</tspan></text>
<text xml:space="preserve" transform="matrix(1 0 -0 1 0 803.25)" font-size="20.4911" font-family="STSong"><tspan y="-140.0335" x="240.5175">U</tspan></text>
<text xml:space="preserve" transform="matrix(1 0 -0 1 0 803.25)" font-size="10.2455" font-family="STSong"><tspan y="-140.0335" x="255.0252 259.83036">11</tspan></text>
<text xml:space="preserve" transform="matrix(1 0 -0 1 0 803.25)" font-size="20.4911" font-family="STSong"><tspan y="-140.2055" x="338.2315">U</tspan></text>
<text xml:space="preserve" transform="matrix(1 0 -0 1 0 803.25)" font-size="10.2455" font-family="STSong"><tspan y="-140.2055" x="352.7392 357.54435">12</tspan></text>
<text xml:space="preserve" transform="matrix(1 0 -0 1 0 803.25)" font-size="20.4911" font-family="STSong"><tspan y="-62.5609" x="287.6984">X</tspan><tspan y="-299.7659" x="139.99854">W</tspan></text>
<text xml:space="preserve" transform="matrix(1 0 -0 1 0 803.25)" font-size="10.2455" font-family="STSong"><tspan y="-299.7606" x="158.5172">2</tspan></text>
<text xml:space="preserve" transform="matrix(1 0 -0 1 0 803.25)" font-size="20.4911" font-family="STSong"><tspan y="-299.5434" x="434.7041">b</tspan></text>
<text xml:space="preserve" transform="matrix(1 0 -0 1 0 803.25)" font-size="10.2455" font-family="STSong"><tspan y="-299.5434" x="445.4004">2</tspan></text>
<text xml:space="preserve" transform="matrix(1 0 -0 1 0 803.25)" font-size="20.4911" font-family="STSong"><tspan y="-385.1541" x="284.4603">H</tspan></text>
<text xml:space="preserve" transform="matrix(1 0 -0 1 0 803.25)" font-size="10.2455" font-family="STSong"><tspan y="-385.1541" x="300.0335">2</tspan></text>
<text xml:space="preserve" transform="matrix(1 0 -0 1 0 803.25)" font-size="20.4911" font-family="STSong"><tspan y="-460.3024" x="139.0929">W</tspan></text>
<text xml:space="preserve" transform="matrix(1 0 -0 1 0 803.25)" font-size="10.2455" font-family="STSong"><tspan y="-460.3024" x="157.6168">3</tspan></text>
<text xml:space="preserve" transform="matrix(1 0 -0 1 0 803.25)" font-size="20.4911" font-family="STSong"><tspan y="-462.5845" x="239.1128">U</tspan></text>
<text xml:space="preserve" transform="matrix(1 0 -0 1 0 803.25)" font-size="10.2455" font-family="STSong"><tspan y="-462.5845" x="253.6205 258.42564">31</tspan></text>
<text xml:space="preserve" transform="matrix(1 0 -0 1 0 803.25)" font-size="20.4911" font-family="STSong"><tspan y="-459.8953" x="336.6441">U</tspan></text>
<text xml:space="preserve" transform="matrix(1 0 -0 1 0 803.25)" font-size="10.2455" font-family="STSong"><tspan y="-459.8953" x="351.1518 355.95695">32</tspan></text>
<text xml:space="preserve" transform="matrix(1 0 -0 1 0 803.25)" font-size="20.4911" font-family="STSong"><tspan y="-461.89" x="434.449">b</tspan></text>
<text xml:space="preserve" transform="matrix(1 0 -0 1 0 803.25)" font-size="10.2455" font-family="STSong"><tspan y="-461.89" x="445.1453">3</tspan></text>
<text xml:space="preserve" transform="matrix(1 0 -0 1 0 803.25)" font-size="20.4911" font-family="STSong"><tspan y="-548.3346" x="286.1241">H</tspan></text>
<text xml:space="preserve" transform="matrix(1 0 -0 1 0 803.25)" font-size="10.2455" font-family="STSong"><tspan y="-548.3346" x="301.6973">3</tspan></text>
<text xml:space="preserve" transform="matrix(1 0 -0 1 0 803.25)" font-size="20.4911" font-family="STSong"><tspan y="-550.5287" x="388.9102">Y</tspan><tspan y="-625.7515" x="240.14479">R</tspan><tspan y="-714.2321" x="289.75376">J</tspan><tspan y="-299.4308" x="236.39493">U</tspan></text>
<text xml:space="preserve" transform="matrix(1 0 -0 1 0 803.25)" font-size="10.2455" font-family="STSong"><tspan y="-299.4429" x="250.906 255.71115">21</tspan></text>
<text xml:space="preserve" transform="matrix(1 0 -0 1 0 803.25)" font-size="20.4911" font-family="STSong"><tspan y="-299.3403" x="336.9771">U</tspan></text>
<text xml:space="preserve" transform="matrix(1 0 -0 1 0 803.25)" font-size="10.2455" font-family="STSong"><tspan y="-299.3403" x="351.4848 356.28996">22</tspan></text>
<text xml:space="preserve" transform="matrix(1 0 -0 1 0 803.25)" font-size="20.4911" font-family="STSong"><tspan y="-627.2356" x="331.2419">J</tspan></text>
<text xml:space="preserve" transform="matrix(1 0 -0 1 0 803.25)" font-size="10.2455" font-family="STSong"><tspan y="-627.2356" x="338.0654 346.5999 352.47059">MLE</tspan></text>
<text fill="#006fff" xml:space="preserve" transform="matrix(1 0 -0 1 0 803.25)" font-size="17.0759" font-family="STSong"><tspan y="-521.3536" x="316.558">G</tspan></text>
<text fill="#006fff" xml:space="preserve" transform="matrix(1 0 -0 1 0 803.25)" font-size="10.2455" font-family="STSong"><tspan y="-521.3536" x="329.7235">f</tspan></text>
<text fill="#006fff" xml:space="preserve" transform="matrix(1 0 -0 1 0 803.25)" font-size="17.0759" font-family="STSong"><tspan y="-357.9561" x="314.4304">G</tspan></text>
<text fill="#006fff" xml:space="preserve" transform="matrix(1 0 -0 1 0 803.25)" font-size="10.2455" font-family="STSong"><tspan y="-357.9561" x="327.5959">f</tspan></text>
<text xml:space="preserve" transform="matrix(1 0 -0 1 0 803.25)" font-size="20.4911" font-family="STSong"><tspan y="-221.5589" x="284.7428">H</tspan></text>
<text xml:space="preserve" transform="matrix(1 0 -0 1 0 803.25)" font-size="10.2455" font-family="STSong"><tspan y="-221.5589" x="300.316">1</tspan></text>
<text fill="#006fff" xml:space="preserve" transform="matrix(1 0 -0 1 0 803.25)" font-size="17.0759" font-family="STSong"><tspan y="-192.3669" x="322.5391">G</tspan></text>
<text fill="#006fff" xml:space="preserve" transform="matrix(1 0 -0 1 0 803.25)" font-size="10.2455" font-family="STSong"><tspan y="-192.3669" x="335.7046">f</tspan></text>
<text fill="#006fff" xml:space="preserve" transform="matrix(1 0 -0 1 0 803.25)" font-size="17.0759" font-family="STSong"><tspan y="-126.5401" x="194.8859 206.94149">X&#x2019;</tspan><tspan y="-265.45256" x="272.85444">W</tspan></text>
<text fill="#006fff" xml:space="preserve" transform="matrix(1 0 -0 1 0 803.25)" font-size="10.2455" font-family="STSong"><tspan y="-265.4605" x="288.2901">2</tspan></text>
<text fill="#006fff" xml:space="preserve" transform="matrix(1 0 -0 1 0 803.25)" font-size="17.0759" font-family="STSong"><tspan y="-284.8868" x="194.5619 207.53958">H&#x2019;</tspan></text>
<text fill="#006fff" xml:space="preserve" transform="matrix(1 0 -0 1 0 803.25)" font-size="8.5379" font-family="STSong"><tspan y="-284.8868" x="211.911">1</tspan></text>
<text fill="#006fff" xml:space="preserve" transform="matrix(1 0 -0 1 0 803.25)" font-size="17.0759" font-family="STSong"><tspan y="-432.2014" x="280.3799">W</tspan></text>
<text fill="#006fff" xml:space="preserve" transform="matrix(1 0 -0 1 0 803.25)" font-size="10.2455" font-family="STSong"><tspan y="-432.2014" x="295.8165">3</tspan></text>
<text fill="#006fff" xml:space="preserve" transform="matrix(1 0 -0 1 0 803.25)" font-size="17.0759" font-family="STSong"><tspan y="-437.459" x="164.0593 177.03699">H&#x2019;</tspan></text>
<text fill="#006fff" xml:space="preserve" transform="matrix(1 0 -0 1 0 803.25)" font-size="10.2455" font-family="STSong"><tspan y="-437.459" x="181.4084">2</tspan></text>
<text fill="#006fff" xml:space="preserve" transform="matrix(1 0 -0 1 0 803.25)" font-size="17.0759" font-family="STSong"><tspan y="-592.7698" x="199.4974">G</tspan></text>
<text fill="#006fff" xml:space="preserve" transform="matrix(1 0 -0 1 0 803.25)" font-size="10.2455" font-family="STSong"><tspan y="-592.7698" x="212.6629">R</tspan></text>
<text fill="#006fff" xml:space="preserve" transform="matrix(1 0 -0 1 0 803.25)" font-size="17.0759" font-family="STSong"><tspan y="-596.6501" x="302.4112">G</tspan></text>
<text fill="#006fff" xml:space="preserve" transform="matrix(1 0 -0 1 0 803.25)" font-size="10.2455" font-family="STSong"><tspan y="-596.6501" x="315.5767">J</tspan></text>
<clipPath id="cp85">
<path transform="matrix(1,0,0,-1,-1.3091126,774.44937)" d="M 0 0 L 612 0 L 612 803.25 L 0 803.25 Z "/>
</clipPath>
<g clip-path="url(#cp85)">
<path transform="matrix(1,0,0,-1,318.7385,731.88839)" d="M 0 0 C 0 -8.775 -4.747 -16.441 -11.814 -20.57 C -15.336 -22.627 -19.434 -23.807 -23.807 -23.807 C -32.582 -23.807 -40.248 -19.059 -44.377 -11.992 C -46.434 -8.471 -47.613 -4.373 -47.613 0 C -47.613 8.775 -42.866 16.441 -35.799 20.57 C -32.277 22.627 -28.18 23.807 -23.807 23.807 C -15.032 23.807 -7.365 19.059 -3.237 11.992 C -1.179 8.471 0 4.373 0 0 M -1.594 0 C -1.594 4.08 -2.693 7.903 -4.613 11.188 C -8.465 17.782 -15.618 22.213 -23.807 22.213 C -27.886 22.213 -31.709 21.113 -34.995 19.194 C -41.589 15.341 -46.02 8.188 -46.02 0 C -46.02 -4.08 -44.92 -7.903 -43.001 -11.188 C -39.148 -17.782 -31.995 -22.213 -23.807 -22.213 C -19.727 -22.213 -15.904 -21.113 -12.618 -19.194 C -6.024 -15.341 -1.594 -8.188 -1.594 0 "/>
</g>
<clipPath id="cp86">
<path transform="matrix(1,0,0,-1,-1.3091126,774.44937)" d="M 0 0 L 612 0 L 612 803.25 L 0 803.25 Z "/>
</clipPath>
<g clip-path="url(#cp86)">
<path transform="matrix(1,0,0,-1,175.6735,654.68716)" d="M 0 0 C 0 -8.775 -4.747 -16.441 -11.814 -20.57 C -15.336 -22.627 -19.434 -23.807 -23.807 -23.807 C -32.582 -23.807 -40.248 -19.059 -44.377 -11.992 C -46.434 -8.471 -47.613 -4.373 -47.613 0 C -47.613 8.775 -42.866 16.441 -35.799 20.57 C -32.277 22.627 -28.18 23.807 -23.807 23.807 C -15.032 23.807 -7.365 19.059 -3.237 11.992 C -1.179 8.471 0 4.373 0 0 M -1.594 0 C -1.594 4.08 -2.693 7.903 -4.613 11.188 C -8.465 17.782 -15.618 22.213 -23.807 22.213 C -27.886 22.213 -31.709 21.113 -34.995 19.194 C -41.589 15.341 -46.02 8.188 -46.02 0 C -46.02 -4.08 -44.92 -7.903 -43.001 -11.188 C -39.148 -17.783 -31.995 -22.213 -23.807 -22.213 C -19.727 -22.213 -15.904 -21.113 -12.618 -19.194 C -6.024 -15.341 -1.594 -8.188 -1.594 0 "/>
</g>
<clipPath id="cp87">
<path transform="matrix(1,0,0,-1,-1.3091126,774.44937)" d="M 0 0 L 612 0 L 612 803.25 L 0 803.25 Z "/>
</clipPath>
<g clip-path="url(#cp87)">
<path transform="matrix(1,0,0,-1,272.7189,654.68716)" d="M 0 0 C 0 -8.775 -4.748 -16.441 -11.814 -20.57 C -15.336 -22.627 -19.434 -23.807 -23.807 -23.807 C -32.582 -23.807 -40.248 -19.059 -44.377 -11.992 C -46.434 -8.471 -47.613 -4.373 -47.613 0 C -47.613 8.775 -42.866 16.441 -35.799 20.57 C -32.277 22.627 -28.18 23.807 -23.807 23.807 C -15.032 23.807 -7.365 19.059 -3.237 11.992 C -1.179 8.471 0 4.373 0 0 M -1.594 0 C -1.594 4.08 -2.693 7.903 -4.613 11.188 C -8.465 17.782 -15.619 22.213 -23.807 22.213 C -27.886 22.213 -31.709 21.113 -34.995 19.194 C -41.589 15.341 -46.02 8.188 -46.02 0 C -46.02 -4.08 -44.92 -7.903 -43.001 -11.188 C -39.148 -17.783 -31.995 -22.213 -23.807 -22.213 C -19.727 -22.213 -15.904 -21.113 -12.618 -19.194 C -6.024 -15.341 -1.594 -8.188 -1.594 0 "/>
</g>
<clipPath id="cp88">
<path transform="matrix(1,0,0,-1,-1.3091126,774.44937)" d="M 0 0 L 612 0 L 612 803.25 L 0 803.25 Z "/>
</clipPath>
<g clip-path="url(#cp88)">
<path transform="matrix(1,0,0,-1,373.37519,654.68716)" d="M 0 0 C 0 -8.775 -4.747 -16.441 -11.814 -20.57 C -15.336 -22.627 -19.434 -23.807 -23.807 -23.807 C -32.582 -23.807 -40.248 -19.059 -44.377 -11.992 C -46.434 -8.471 -47.613 -4.373 -47.613 0 C -47.613 8.775 -42.866 16.441 -35.799 20.57 C -32.277 22.627 -28.18 23.807 -23.807 23.807 C -15.032 23.807 -7.365 19.059 -3.237 11.992 C -1.179 8.471 0 4.373 0 0 M -1.594 0 C -1.594 4.08 -2.693 7.903 -4.613 11.188 C -8.465 17.782 -15.618 22.213 -23.807 22.213 C -27.887 22.213 -31.709 21.113 -34.995 19.194 C -41.589 15.341 -46.02 8.188 -46.02 0 C -46.02 -4.08 -44.92 -7.903 -43 -11.188 C -39.148 -17.783 -31.995 -22.213 -23.807 -22.213 C -19.727 -22.213 -15.904 -21.113 -12.618 -19.194 C -6.024 -15.341 -1.594 -8.188 -1.594 0 "/>
</g>
<clipPath id="cp89">
<path transform="matrix(1,0,0,-1,-1.3091126,774.44937)" d="M 0 0 L 612 0 L 612 803.25 L 0 803.25 Z "/>
</clipPath>
<g clip-path="url(#cp89)">
<path transform="matrix(1,0,0,-1,466.6396,654.68716)" d="M 0 0 C 0 -8.775 -4.747 -16.441 -11.814 -20.57 C -15.336 -22.627 -19.434 -23.807 -23.807 -23.807 C -32.582 -23.807 -40.248 -19.059 -44.377 -11.992 C -46.434 -8.471 -47.613 -4.373 -47.613 0 C -47.613 8.775 -42.866 16.441 -35.799 20.57 C -32.277 22.627 -28.18 23.807 -23.807 23.807 C -15.032 23.807 -7.365 19.059 -3.237 11.992 C -1.179 8.471 0 4.373 0 0 M -1.594 0 C -1.594 4.08 -2.693 7.903 -4.613 11.188 C -8.465 17.782 -15.619 22.213 -23.807 22.213 C -27.887 22.213 -31.709 21.113 -34.995 19.194 C -41.589 15.341 -46.02 8.188 -46.02 0 C -46.02 -4.08 -44.92 -7.903 -43 -11.188 C -39.148 -17.783 -31.995 -22.213 -23.807 -22.213 C -19.727 -22.213 -15.904 -21.113 -12.618 -19.194 C -6.024 -15.341 -1.594 -8.188 -1.594 0 "/>
</g>
<clipPath id="cp90">
<path transform="matrix(1,0,0,-1,-1.3091126,774.44937)" d="M 0 0 L 612 0 L 612 803.25 L 0 803.25 Z "/>
</clipPath>
<g clip-path="url(#cp90)">
<path transform="matrix(1,0,0,-1,317.28208,573.0266)" d="M 0 0 C 0 -8.775 -4.747 -16.441 -11.814 -20.57 C -15.336 -22.627 -19.434 -23.807 -23.807 -23.807 C -32.582 -23.807 -40.248 -19.059 -44.377 -11.992 C -46.434 -8.471 -47.613 -4.373 -47.613 0 C -47.613 8.775 -42.866 16.441 -35.799 20.57 C -32.277 22.627 -28.18 23.807 -23.807 23.807 C -15.032 23.807 -7.365 19.059 -3.237 11.992 C -1.179 8.471 0 4.373 0 0 M -1.594 0 C -1.594 4.08 -2.693 7.903 -4.613 11.188 C -8.465 17.783 -15.618 22.213 -23.807 22.213 C -27.886 22.213 -31.709 21.113 -34.995 19.194 C -41.589 15.341 -46.02 8.188 -46.02 0 C -46.02 -4.08 -44.92 -7.903 -43 -11.188 C -39.148 -17.783 -31.995 -22.213 -23.807 -22.213 C -19.727 -22.213 -15.904 -21.113 -12.618 -19.194 C -6.024 -15.341 -1.594 -8.188 -1.594 0 "/>
</g>
<clipPath id="cp91">
<path transform="matrix(1,0,0,-1,-1.3091126,774.44937)" d="M 0 0 L 612 0 L 612 803.25 L 0 803.25 Z "/>
</clipPath>
<g clip-path="url(#cp91)">
<path transform="matrix(1,0,0,-1,174.21709,495.82545)" d="M 0 0 C 0 -8.775 -4.747 -16.441 -11.814 -20.57 C -15.336 -22.627 -19.434 -23.807 -23.807 -23.807 C -32.582 -23.807 -40.248 -19.059 -44.377 -11.992 C -46.434 -8.471 -47.613 -4.373 -47.613 0 C -47.613 8.775 -42.866 16.441 -35.799 20.57 C -32.277 22.627 -28.18 23.807 -23.807 23.807 C -15.032 23.807 -7.365 19.059 -3.237 11.992 C -1.179 8.471 0 4.373 0 0 M -1.594 0 C -1.594 4.08 -2.693 7.903 -4.613 11.188 C -8.465 17.783 -15.618 22.213 -23.807 22.213 C -27.887 22.213 -31.709 21.113 -34.995 19.194 C -41.589 15.341 -46.02 8.188 -46.02 0 C -46.02 -4.08 -44.92 -7.903 -43.001 -11.188 C -39.148 -17.783 -31.995 -22.213 -23.807 -22.213 C -19.727 -22.213 -15.904 -21.113 -12.618 -19.194 C -6.024 -15.341 -1.594 -8.188 -1.594 0 "/>
</g>
<clipPath id="cp92">
<path transform="matrix(1,0,0,-1,-1.3091126,774.44937)" d="M 0 0 L 612 0 L 612 803.25 L 0 803.25 Z "/>
</clipPath>
<g clip-path="url(#cp92)">
<path transform="matrix(1,0,0,-1,271.26249,495.82545)" d="M 0 0 C 0 -8.775 -4.747 -16.441 -11.814 -20.57 C -15.336 -22.627 -19.434 -23.807 -23.807 -23.807 C -32.582 -23.807 -40.248 -19.059 -44.377 -11.992 C -46.434 -8.471 -47.613 -4.373 -47.613 0 C -47.613 8.775 -42.866 16.441 -35.799 20.57 C -32.277 22.627 -28.18 23.807 -23.807 23.807 C -15.032 23.807 -7.365 19.059 -3.237 11.992 C -1.179 8.471 0 4.373 0 0 M -1.594 0 C -1.594 4.08 -2.693 7.903 -4.613 11.188 C -8.465 17.783 -15.619 22.213 -23.807 22.213 C -27.886 22.213 -31.709 21.113 -34.995 19.194 C -41.589 15.341 -46.02 8.188 -46.02 0 C -46.02 -4.08 -44.92 -7.903 -43 -11.188 C -39.148 -17.783 -31.995 -22.213 -23.807 -22.213 C -19.727 -22.213 -15.904 -21.113 -12.618 -19.194 C -6.024 -15.341 -1.594 -8.188 -1.594 0 "/>
</g>
<clipPath id="cp93">
<path transform="matrix(1,0,0,-1,-1.3091126,774.44937)" d="M 0 0 L 612 0 L 612 803.25 L 0 803.25 Z "/>
</clipPath>
<g clip-path="url(#cp93)">
<path transform="matrix(1,0,0,-1,371.9187,495.82545)" d="M 0 0 C 0 -8.775 -4.748 -16.441 -11.814 -20.57 C -15.336 -22.627 -19.434 -23.807 -23.807 -23.807 C -32.582 -23.807 -40.248 -19.059 -44.377 -11.992 C -46.434 -8.471 -47.613 -4.373 -47.613 0 C -47.613 8.775 -42.866 16.441 -35.799 20.57 C -32.277 22.627 -28.18 23.807 -23.807 23.807 C -15.032 23.807 -7.365 19.059 -3.237 11.992 C -1.179 8.471 0 4.373 0 0 M -1.594 0 C -1.594 4.08 -2.693 7.903 -4.613 11.188 C -8.465 17.783 -15.618 22.213 -23.807 22.213 C -27.886 22.213 -31.709 21.113 -34.995 19.194 C -41.589 15.341 -46.02 8.188 -46.02 0 C -46.02 -4.08 -44.92 -7.903 -43.001 -11.188 C -39.148 -17.783 -31.995 -22.213 -23.807 -22.213 C -19.727 -22.213 -15.904 -21.113 -12.618 -19.194 C -6.024 -15.341 -1.594 -8.188 -1.594 0 "/>
</g>
<clipPath id="cp94">
<path transform="matrix(1,0,0,-1,-1.3091126,774.44937)" d="M 0 0 L 612 0 L 612 803.25 L 0 803.25 Z "/>
</clipPath>
<g clip-path="url(#cp94)">
<path transform="matrix(1,0,0,-1,465.18309,495.82545)" d="M 0 0 C 0 -8.775 -4.747 -16.441 -11.814 -20.57 C -15.336 -22.627 -19.434 -23.807 -23.807 -23.807 C -32.582 -23.807 -40.248 -19.059 -44.377 -11.992 C -46.434 -8.471 -47.613 -4.373 -47.613 0 C -47.613 8.775 -42.866 16.441 -35.799 20.57 C -32.277 22.627 -28.18 23.807 -23.807 23.807 C -15.032 23.807 -7.365 19.059 -3.237 11.992 C -1.179 8.471 0 4.373 0 0 M -1.594 0 C -1.594 4.08 -2.693 7.903 -4.613 11.188 C -8.465 17.783 -15.618 22.213 -23.807 22.213 C -27.886 22.213 -31.709 21.113 -34.995 19.194 C -41.589 15.341 -46.02 8.188 -46.02 0 C -46.02 -4.08 -44.92 -7.903 -43 -11.188 C -39.148 -17.783 -31.995 -22.213 -23.807 -22.213 C -19.727 -22.213 -15.904 -21.113 -12.618 -19.194 C -6.024 -15.341 -1.594 -8.188 -1.594 0 "/>
</g>
<clipPath id="cp95">
<path transform="matrix(1,0,0,-1,-1.3091126,774.44937)" d="M 0 0 L 612 0 L 612 803.25 L 0 803.25 Z "/>
</clipPath>
<g clip-path="url(#cp95)">
<path transform="matrix(1,0,0,-1,306.15129,592.4119)" d="M 0 0 C -.311 .311 -.311 .816 0 1.127 C .311 1.438 .816 1.438 1.127 1.127 C 1.438 .816 1.438 .311 1.127 0 C .816 -.311 .311 -.311 0 0 "/>
</g>
<clipPath id="cp96">
<path transform="matrix(1,0,0,-1,-1.3091126,774.44937)" d="M 0 0 L 612 0 L 612 803.25 L 0 803.25 Z "/>
</clipPath>
<g clip-path="url(#cp96)">
<path transform="matrix(1,0,0,-1,317.3338,410.27165)" d="M 0 0 C 0 -8.775 -4.748 -16.441 -11.814 -20.57 C -15.336 -22.627 -19.434 -23.807 -23.807 -23.807 C -32.582 -23.807 -40.248 -19.059 -44.377 -11.992 C -46.434 -8.471 -47.613 -4.373 -47.613 0 C -47.613 8.775 -42.866 16.441 -35.799 20.57 C -32.277 22.627 -28.18 23.807 -23.807 23.807 C -15.032 23.807 -7.365 19.059 -3.237 11.992 C -1.179 8.471 0 4.373 0 0 M -1.594 0 C -1.594 4.08 -2.693 7.903 -4.613 11.188 C -8.465 17.783 -15.618 22.213 -23.807 22.213 C -27.886 22.213 -31.709 21.113 -34.995 19.194 C -41.589 15.341 -46.02 8.188 -46.02 0 C -46.02 -4.08 -44.92 -7.903 -43.001 -11.188 C -39.148 -17.783 -31.995 -22.213 -23.807 -22.213 C -19.727 -22.213 -15.904 -21.113 -12.618 -19.194 C -6.024 -15.341 -1.594 -8.188 -1.594 0 "/>
</g>
<clipPath id="cp97">
<path transform="matrix(1,0,0,-1,-1.3091126,774.44937)" d="M 0 0 L 612 0 L 612 803.25 L 0 803.25 Z "/>
</clipPath>
<g clip-path="url(#cp97)">
<path transform="matrix(1,0,0,-1,174.26879,333.07044)" d="M 0 0 C 0 -8.775 -4.747 -16.441 -11.814 -20.57 C -15.336 -22.627 -19.434 -23.807 -23.807 -23.807 C -32.582 -23.807 -40.248 -19.059 -44.377 -11.992 C -46.434 -8.471 -47.613 -4.373 -47.613 0 C -47.613 8.775 -42.866 16.441 -35.799 20.57 C -32.277 22.627 -28.18 23.807 -23.807 23.807 C -15.032 23.807 -7.365 19.059 -3.237 11.992 C -1.179 8.471 0 4.373 0 0 M -1.594 0 C -1.594 4.08 -2.693 7.903 -4.613 11.188 C -8.465 17.783 -15.618 22.213 -23.807 22.213 C -27.886 22.213 -31.709 21.113 -34.995 19.194 C -41.589 15.341 -46.02 8.188 -46.02 0 C -46.02 -4.08 -44.92 -7.903 -43 -11.188 C -39.148 -17.782 -31.995 -22.213 -23.807 -22.213 C -19.727 -22.213 -15.904 -21.113 -12.618 -19.194 C -6.024 -15.341 -1.594 -8.188 -1.594 0 "/>
</g>
<clipPath id="cp98">
<path transform="matrix(1,0,0,-1,-1.3091126,774.44937)" d="M 0 0 L 612 0 L 612 803.25 L 0 803.25 Z "/>
</clipPath>
<g clip-path="url(#cp98)">
<path transform="matrix(1,0,0,-1,271.31419,333.07044)" d="M 0 0 C 0 -8.775 -4.747 -16.441 -11.814 -20.57 C -15.336 -22.627 -19.434 -23.807 -23.807 -23.807 C -32.582 -23.807 -40.248 -19.059 -44.377 -11.992 C -46.434 -8.471 -47.613 -4.373 -47.613 0 C -47.613 8.775 -42.866 16.441 -35.799 20.57 C -32.277 22.627 -28.18 23.807 -23.807 23.807 C -15.032 23.807 -7.365 19.059 -3.237 11.992 C -1.179 8.471 0 4.373 0 0 M -1.594 0 C -1.594 4.08 -2.693 7.903 -4.613 11.188 C -8.465 17.783 -15.618 22.213 -23.807 22.213 C -27.886 22.213 -31.709 21.113 -34.995 19.194 C -41.589 15.341 -46.02 8.188 -46.02 0 C -46.02 -4.08 -44.92 -7.903 -43 -11.188 C -39.148 -17.782 -31.995 -22.213 -23.807 -22.213 C -19.727 -22.213 -15.904 -21.113 -12.618 -19.194 C -6.024 -15.341 -1.594 -8.188 -1.594 0 "/>
</g>
<clipPath id="cp99">
<path transform="matrix(1,0,0,-1,-1.3091126,774.44937)" d="M 0 0 L 612 0 L 612 803.25 L 0 803.25 Z "/>
</clipPath>
<g clip-path="url(#cp99)">
<path transform="matrix(1,0,0,-1,465.2349,333.07044)" d="M 0 0 C 0 -8.775 -4.747 -16.441 -11.814 -20.57 C -15.336 -22.627 -19.434 -23.807 -23.807 -23.807 C -32.582 -23.807 -40.248 -19.059 -44.377 -11.992 C -46.434 -8.471 -47.613 -4.373 -47.613 0 C -47.613 8.775 -42.866 16.441 -35.799 20.57 C -32.277 22.627 -28.18 23.807 -23.807 23.807 C -15.032 23.807 -7.365 19.059 -3.237 11.992 C -1.179 8.471 0 4.373 0 0 M -1.594 0 C -1.594 4.08 -2.693 7.903 -4.613 11.188 C -8.465 17.783 -15.619 22.213 -23.807 22.213 C -27.887 22.213 -31.709 21.113 -34.995 19.194 C -41.589 15.341 -46.02 8.188 -46.02 0 C -46.02 -4.08 -44.92 -7.903 -43.001 -11.188 C -39.148 -17.782 -31.995 -22.213 -23.807 -22.213 C -19.727 -22.213 -15.904 -21.113 -12.618 -19.194 C -6.024 -15.341 -1.594 -8.188 -1.594 0 "/>
</g>
<clipPath id="cp100">
<path transform="matrix(1,0,0,-1,-1.3091126,774.44937)" d="M 0 0 L 612 0 L 612 803.25 L 0 803.25 Z "/>
</clipPath>
<g clip-path="url(#cp100)">
<path transform="matrix(1,0,0,-1,319.4614,246.47034)" d="M 0 0 C 0 -8.775 -4.747 -16.441 -11.814 -20.57 C -15.336 -22.627 -19.434 -23.807 -23.807 -23.807 C -32.582 -23.807 -40.248 -19.059 -44.377 -11.992 C -46.434 -8.471 -47.613 -4.373 -47.613 0 C -47.613 8.775 -42.866 16.441 -35.799 20.57 C -32.277 22.627 -28.18 23.807 -23.807 23.807 C -15.032 23.807 -7.365 19.059 -3.237 11.992 C -1.179 8.471 0 4.373 0 0 M -1.594 0 C -1.594 4.08 -2.693 7.903 -4.613 11.188 C -8.465 17.782 -15.618 22.213 -23.807 22.213 C -27.886 22.213 -31.709 21.113 -34.995 19.194 C -41.589 15.341 -46.02 8.188 -46.02 0 C -46.02 -4.08 -44.92 -7.903 -43.001 -11.188 C -39.148 -17.783 -31.995 -22.213 -23.807 -22.213 C -19.727 -22.213 -15.904 -21.113 -12.618 -19.194 C -6.024 -15.341 -1.594 -8.188 -1.594 0 "/>
</g>
<clipPath id="cp101">
<path transform="matrix(1,0,0,-1,-1.3091126,774.44937)" d="M 0 0 L 612 0 L 612 803.25 L 0 803.25 Z "/>
</clipPath>
<g clip-path="url(#cp101)">
<path transform="matrix(1,0,0,-1,367.6391,168.52265)" d="M 0 0 C 0 -8.775 -4.747 -16.441 -11.814 -20.57 C -15.336 -22.627 -19.434 -23.807 -23.807 -23.807 C -32.582 -23.807 -40.248 -19.059 -44.377 -11.992 C -46.434 -8.471 -47.613 -4.373 -47.613 0 C -47.613 8.775 -42.866 16.441 -35.799 20.57 C -32.277 22.627 -28.18 23.807 -23.807 23.807 C -15.032 23.807 -7.365 19.059 -3.237 11.992 C -1.179 8.471 0 4.373 0 0 M -1.594 0 C -1.594 4.08 -2.693 7.903 -4.613 11.188 C -8.465 17.783 -15.618 22.213 -23.807 22.213 C -27.887 22.213 -31.709 21.113 -34.995 19.194 C -41.589 15.341 -46.02 8.188 -46.02 0 C -46.02 -4.08 -44.92 -7.903 -43.001 -11.188 C -39.148 -17.782 -31.995 -22.213 -23.807 -22.213 C -19.727 -22.213 -15.904 -21.113 -12.618 -19.194 C -6.024 -15.341 -1.594 -8.188 -1.594 0 "/>
</g>
<clipPath id="cp102">
<path transform="matrix(1,0,0,-1,-1.3091126,774.44937)" d="M 0 0 L 612 0 L 612 803.25 L 0 803.25 Z "/>
</clipPath>
<g clip-path="url(#cp102)">
<path transform="matrix(1,0,0,-1,270.7454,168.66602)" d="M 0 0 C 0 -8.775 -4.747 -16.441 -11.814 -20.57 C -15.336 -22.627 -19.434 -23.807 -23.807 -23.807 C -32.582 -23.807 -40.248 -19.059 -44.377 -11.992 C -46.434 -8.471 -47.613 -4.373 -47.613 0 C -47.613 8.775 -42.866 16.441 -35.799 20.57 C -32.277 22.627 -28.18 23.807 -23.807 23.807 C -15.032 23.807 -7.365 19.059 -3.237 11.992 C -1.179 8.47 0 4.373 0 0 M -1.594 0 C -1.594 4.08 -2.693 7.903 -4.613 11.188 C -8.465 17.782 -15.619 22.213 -23.807 22.213 C -27.887 22.213 -31.709 21.113 -34.995 19.194 C -41.589 15.341 -46.02 8.188 -46.02 0 C -46.02 -4.08 -44.92 -7.903 -43.001 -11.188 C -39.148 -17.783 -31.995 -22.213 -23.807 -22.213 C -19.727 -22.213 -15.904 -21.113 -12.618 -19.194 C -6.024 -15.341 -1.594 -8.188 -1.594 0 "/>
</g>
<clipPath id="cp103">
<path transform="matrix(1,0,0,-1,-1.3091126,774.44937)" d="M 0 0 L 612 0 L 612 803.25 L 0 803.25 Z "/>
</clipPath>
<g clip-path="url(#cp103)">
<path transform="matrix(1,0,0,-1,316.0033,81.558048)" d="M 0 0 C 0 -8.775 -4.747 -16.441 -11.814 -20.57 C -15.336 -22.627 -19.434 -23.807 -23.807 -23.807 C -32.582 -23.807 -40.248 -19.059 -44.377 -11.992 C -46.434 -8.471 -47.613 -4.373 -47.613 0 C -47.613 8.775 -42.866 16.441 -35.799 20.57 C -32.277 22.627 -28.18 23.807 -23.807 23.807 C -15.032 23.807 -7.365 19.059 -3.237 11.992 C -1.179 8.471 0 4.373 0 0 M -1.594 0 C -1.594 4.08 -2.693 7.903 -4.613 11.188 C -8.465 17.782 -15.618 22.213 -23.807 22.213 C -27.886 22.213 -31.709 21.113 -34.995 19.194 C -41.589 15.341 -46.02 8.188 -46.02 0 C -46.02 -4.08 -44.92 -7.903 -43.001 -11.188 C -39.148 -17.782 -31.995 -22.213 -23.807 -22.213 C -19.727 -22.213 -15.904 -21.113 -12.618 -19.194 C -6.024 -15.341 -1.594 -8.188 -1.594 0 "/>
</g>
<clipPath id="cp104">
<path transform="matrix(1,0,0,-1,-1.3091126,774.44937)" d="M 0 0 L 612 0 L 612 803.25 L 0 803.25 Z "/>
</clipPath>
<g clip-path="url(#cp104)">
<path transform="matrix(1,0,0,-1,281.7937,102.79022)" d="M 0 0 C .316 .58 1.042 .794 1.621 .478 C 2.201 .163 2.415 -.563 2.1 -1.143 L -22.854 -46.98 C -23.17 -47.56 -23.896 -47.774 -24.475 -47.458 C -25.055 -47.143 -25.269 -46.417 -24.954 -45.837 Z " fill="#006fff"/>
</g>
<clipPath id="cp105">
<path transform="matrix(1,0,0,-1,-1.3091126,774.44937)" d="M 0 0 L 612 0 L 612 803.25 L 0 803.25 Z "/>
</clipPath>
<g clip-path="url(#cp105)">
<path transform="matrix(1,0,0,-1,258.86769,145.92597)" d="M 0 0 L 0 -.75 L .707 -.546 Z M -.465 3.38 L 4.036 -.096 C 4.811 -.695 4.577 -1.92 3.636 -2.191 L -.865 -3.486 C -1.629 -3.706 -2.391 -3.132 -2.391 -2.337 L -2.391 2.434 C -2.391 3.426 -1.25 3.986 -.465 3.38 " fill="#006fff"/>
</g>
<clipPath id="cp106">
<path transform="matrix(1,0,0,-1,-1.3091126,774.44937)" d="M 0 0 L 612 0 L 612 803.25 L 0 803.25 Z "/>
</clipPath>
<g clip-path="url(#cp106)">
<path transform="matrix(1,0,0,-1,304.09419,102.01593)" d="M 0 0 C -.35 .56 -.181 1.297 .379 1.647 C .938 1.998 1.676 1.828 2.026 1.269 L 31.389 -45.621 C 31.74 -46.181 31.57 -46.918 31.011 -47.269 C 30.451 -47.619 29.714 -47.449 29.363 -46.89 Z " fill="#006fff"/>
</g>
<clipPath id="cp107">
<path transform="matrix(1,0,0,-1,-1.3091126,774.44937)" d="M 0 0 L 612 0 L 612 803.25 L 0 803.25 Z "/>
</clipPath>
<g clip-path="url(#cp107)">
<path transform="matrix(1,0,0,-1,333.1994,145.01026)" d="M 0 0 L .246 -.144 L .246 .09 Z M -3.21 1.376 L 1.033 2.92 C 1.812 3.204 2.637 2.626 2.637 1.797 L 2.637 -2.227 C 2.637 -3.15 1.635 -3.725 .838 -3.259 L -3.404 -.779 C -4.278 -.268 -4.161 1.03 -3.21 1.376 " fill="#006fff"/>
</g>
<clipPath id="cp108">
<path transform="matrix(1,0,0,-1,-1.3091126,774.44937)" d="M 0 0 L 612 0 L 612 803.25 L 0 803.25 Z "/>
</clipPath>
<g clip-path="url(#cp108)">
<path transform="matrix(1,0,0,-1,240.99489,190.47254)" d="M 0 0 C .369 .547 1.113 .691 1.66 .322 C 2.207 -.048 2.351 -.791 1.981 -1.338 L -79.785 -122.422 C -80.155 -122.969 -80.898 -123.113 -81.445 -122.744 C -81.992 -122.374 -82.136 -121.631 -81.767 -121.084 Z " fill="#006fff"/>
</g>
<clipPath id="cp109">
<path transform="matrix(1,0,0,-1,-1.3091126,774.44937)" d="M 0 0 L 612 0 L 612 803.25 L 0 803.25 Z "/>
</clipPath>
<g clip-path="url(#cp109)">
<path transform="matrix(1,0,0,-1,160.99768,310.47526)" d="M 0 0 L 0 -.825 L .668 -.557 Z M -.429 3.473 L 3.736 -.005 C 4.43 -.585 4.254 -1.695 3.414 -2.032 L -.751 -3.701 C -1.536 -4.016 -2.391 -3.438 -2.391 -2.592 L -2.391 2.556 C -2.391 3.57 -1.207 4.123 -.429 3.473 " fill="#006fff"/>
</g>
<clipPath id="cp110">
<path transform="matrix(1,0,0,-1,-1.3091126,774.44937)" d="M 0 0 L 612 0 L 612 803.25 L 0 803.25 Z "/>
</clipPath>
<g clip-path="url(#cp110)">
<path transform="matrix(1,0,0,-1,240.84198,190.79352)" d="M 0 0 C .192 .631 .86 .988 1.491 .796 C 2.123 .603 2.479 -.064 2.287 -.696 L -83.617 -283.074 C -83.81 -283.706 -84.477 -284.062 -85.109 -283.87 C -85.74 -283.678 -86.097 -283.01 -85.904 -282.378 Z " fill="#006fff"/>
</g>
<clipPath id="cp111">
<path transform="matrix(1,0,0,-1,-1.3091126,774.44937)" d="M 0 0 L 612 0 L 612 803.25 L 0 803.25 Z "/>
</clipPath>
<g clip-path="url(#cp111)">
<path transform="matrix(1,0,0,-1,154.32389,469.12126)" d="M 0 0 L 6.186 -2.655 C 7.38 -3.168 7.013 -4.949 5.714 -4.949 L 1.525 -4.949 C 1.149 -4.949 .795 -4.772 .57 -4.472 L -1.427 -1.817 C -2.163 -.838 -1.125 .483 0 0 " fill="#006fff"/>
</g>
<clipPath id="cp112">
<path transform="matrix(1,0,0,-1,-1.3091126,774.44937)" d="M 0 0 L 612 0 L 612 803.25 L 0 803.25 Z "/>
</clipPath>
<g clip-path="url(#cp112)">
<path transform="matrix(1,0,0,-1,240.8095,190.92792)" d="M 0 0 C .118 .649 .74 1.081 1.39 .963 C 2.039 .845 2.47 .222 2.352 -.427 L -78.019 -443.124 C -78.137 -443.773 -78.759 -444.204 -79.409 -444.086 C -80.058 -443.968 -80.489 -443.346 -80.371 -442.697 Z " fill="#006fff"/>
</g>
<clipPath id="cp113">
<path transform="matrix(1,0,0,-1,-1.3091126,774.44937)" d="M 0 0 L 612 0 L 612 803.25 L 0 803.25 Z "/>
</clipPath>
<g clip-path="url(#cp113)">
<path transform="matrix(1,0,0,-1,162.33209,631.22207)" d="M 0 0 L .59 -1.154 L 1.067 -.574 Z M -2.241 3.922 L 3.48 .841 C 4.143 .484 4.315 -.389 3.836 -.97 L 1.278 -4.081 C .731 -4.746 -.318 -4.632 -.71 -3.866 L -3.873 2.326 C -4.406 3.37 -3.274 4.478 -2.241 3.922 " fill="#006fff"/>
</g>
<clipPath id="cp114">
<path transform="matrix(1,0,0,-1,-1.3091126,774.44937)" d="M 0 0 L 612 0 L 612 803.25 L 0 803.25 Z "/>
</clipPath>
<g clip-path="url(#cp114)">
<path transform="matrix(1,0,0,-1,309.52149,224.59583)" d="M 0 0 L 0 -.861 L .578 -.595 Z M -.338 3.778 L 3.471 -.141 C 4.046 -.733 3.863 -1.716 3.113 -2.06 L -.696 -3.813 C -1.488 -4.177 -2.391 -3.599 -2.391 -2.727 L -2.391 2.945 C -2.391 4.018 -1.086 4.548 -.338 3.778 " fill="#006fff"/>
</g>
<clipPath id="cp115">
<path transform="matrix(1,0,0,-1,-1.3091126,774.44937)" d="M 0 0 L 612 0 L 612 803.25 L 0 803.25 Z "/>
</clipPath>
<g clip-path="url(#cp115)">
<path transform="matrix(1,0,0,-1,371.94279,333.15415)" d="M 0 0 C 0 -8.775 -4.747 -16.441 -11.814 -20.57 C -15.336 -22.627 -19.434 -23.807 -23.807 -23.807 C -32.582 -23.807 -40.248 -19.059 -44.377 -11.992 C -46.434 -8.471 -47.613 -4.373 -47.613 0 C -47.613 8.775 -42.866 16.441 -35.799 20.57 C -32.277 22.627 -28.18 23.807 -23.807 23.807 C -15.032 23.807 -7.365 19.059 -3.237 11.992 C -1.179 8.471 0 4.373 0 0 M -1.594 0 C -1.594 4.08 -2.693 7.903 -4.613 11.188 C -8.465 17.783 -15.619 22.213 -23.807 22.213 C -27.887 22.213 -31.709 21.113 -34.995 19.194 C -41.589 15.341 -46.02 8.188 -46.02 0 C -46.02 -4.08 -44.92 -7.903 -43 -11.188 C -39.148 -17.783 -31.995 -22.213 -23.807 -22.213 C -19.727 -22.213 -15.904 -21.113 -12.618 -19.194 C -6.024 -15.341 -1.594 -8.188 -1.594 0 "/>
</g>
<clipPath id="cp116">
<path transform="matrix(1,0,0,-1,-1.3091126,774.44937)" d="M 0 0 L 612 0 L 612 803.25 L 0 803.25 Z "/>
</clipPath>
<g clip-path="url(#cp116)">
<path transform="matrix(1,0,0,-1,465.20719,333.15415)" d="M 0 0 C 0 -8.775 -4.747 -16.441 -11.814 -20.57 C -15.336 -22.627 -19.434 -23.807 -23.807 -23.807 C -32.582 -23.807 -40.248 -19.059 -44.377 -11.992 C -46.434 -8.471 -47.613 -4.373 -47.613 0 C -47.613 8.775 -42.866 16.441 -35.799 20.57 C -32.277 22.627 -28.18 23.807 -23.807 23.807 C -15.032 23.807 -7.365 19.059 -3.237 11.992 C -1.179 8.471 0 4.373 0 0 M -1.594 0 C -1.594 4.08 -2.693 7.903 -4.613 11.188 C -8.465 17.783 -15.619 22.213 -23.807 22.213 C -27.887 22.213 -31.709 21.113 -34.995 19.194 C -41.589 15.341 -46.02 8.188 -46.02 0 C -46.02 -4.08 -44.92 -7.903 -43 -11.188 C -39.148 -17.783 -31.995 -22.213 -23.807 -22.213 C -19.727 -22.213 -15.904 -21.113 -12.618 -19.194 C -6.024 -15.341 -1.594 -8.188 -1.594 0 "/>
</g>
<clipPath id="cp117">
<path transform="matrix(1,0,0,-1,-1.3091126,774.44937)" d="M 0 0 L 612 0 L 612 803.25 L 0 803.25 Z "/>
</clipPath>
<g clip-path="url(#cp117)">
<path transform="matrix(1,0,0,-1,319.4337,246.55414)" d="M 0 0 C 0 -8.775 -4.747 -16.441 -11.814 -20.57 C -15.336 -22.627 -19.434 -23.807 -23.807 -23.807 C -32.582 -23.807 -40.248 -19.059 -44.377 -11.992 C -46.434 -8.471 -47.613 -4.373 -47.613 0 C -47.613 8.775 -42.866 16.441 -35.799 20.57 C -32.277 22.627 -28.18 23.807 -23.807 23.807 C -15.032 23.807 -7.365 19.059 -3.237 11.992 C -1.179 8.471 0 4.373 0 0 M -1.594 0 C -1.594 4.08 -2.693 7.903 -4.613 11.188 C -8.465 17.782 -15.618 22.213 -23.807 22.213 C -27.886 22.213 -31.709 21.113 -34.995 19.194 C -41.589 15.341 -46.02 8.188 -46.02 0 C -46.02 -4.08 -44.92 -7.903 -43 -11.188 C -39.148 -17.782 -31.995 -22.213 -23.807 -22.213 C -19.727 -22.213 -15.904 -21.113 -12.618 -19.194 C -6.024 -15.341 -1.594 -8.188 -1.594 0 "/>
</g>
<clipPath id="cp118">
<path transform="matrix(1,0,0,-1,-1.3091126,774.44937)" d="M 0 0 L 612 0 L 612 803.25 L 0 803.25 Z "/>
</clipPath>
<g clip-path="url(#cp118)">
<path transform="matrix(1,0,0,-1,418.59349,244.84986)" d="M 0 0 C 0 -8.775 -4.747 -16.441 -11.814 -20.57 C -15.336 -22.627 -19.434 -23.807 -23.807 -23.807 C -32.582 -23.807 -40.248 -19.059 -44.377 -11.992 C -46.434 -8.471 -47.613 -4.373 -47.613 0 C -47.613 8.775 -42.866 16.441 -35.799 20.57 C -32.277 22.627 -28.18 23.807 -23.807 23.807 C -15.032 23.807 -7.365 19.059 -3.237 11.992 C -1.179 8.471 0 4.373 0 0 M -1.594 0 C -1.594 4.08 -2.693 7.903 -4.613 11.188 C -8.465 17.782 -15.619 22.213 -23.807 22.213 C -27.886 22.213 -31.709 21.113 -34.995 19.194 C -41.589 15.341 -46.02 8.188 -46.02 0 C -46.02 -4.08 -44.92 -7.903 -43 -11.188 C -39.148 -17.783 -31.995 -22.213 -23.807 -22.213 C -19.727 -22.213 -15.904 -21.113 -12.618 -19.194 C -6.024 -15.341 -1.594 -8.188 -1.594 0 "/>
</g>
<clipPath id="cp119">
<path transform="matrix(1,0,0,-1,-1.3091126,774.44937)" d="M 0 0 L 612 0 L 612 803.25 L 0 803.25 Z "/>
</clipPath>
<g clip-path="url(#cp119)">
<path transform="matrix(1,0,0,-1,384.8925,223.88043)" d="M 0 0 C .275 -.344 .22 -.845 -.124 -1.12 C -.468 -1.395 -.969 -1.34 -1.244 -.996 L -30.021 34.952 C -30.297 35.295 -30.241 35.797 -29.897 36.072 C -29.554 36.347 -29.052 36.291 -28.777 35.948 Z "/>
</g>
<clipPath id="cp120">
<path transform="matrix(1,0,0,-1,-1.3091126,774.44937)" d="M 0 0 L 612 0 L 612 803.25 L 0 803.25 Z "/>
</clipPath>
<g clip-path="url(#cp120)">
<path transform="matrix(1,0,0,-1,331.75639,188.14154)" d="M 0 0 C .361 .553 1.102 .708 1.655 .347 C 2.207 -.015 2.362 -.755 2.001 -1.308 L -22.977 -39.524 C -23.338 -40.076 -24.078 -40.232 -24.631 -39.87 C -25.184 -39.509 -25.339 -38.768 -24.978 -38.216 Z " fill="#006fff"/>
</g>
<clipPath id="cp121">
<path transform="matrix(1,0,0,-1,-1.3091126,774.44937)" d="M 0 0 L 612 0 L 612 803.25 L 0 803.25 Z "/>
</clipPath>
<g clip-path="url(#cp121)">
<path transform="matrix(1,0,0,-1,309.49378,224.67963)" d="M 0 0 L 0 -.861 L .578 -.595 Z M -.338 3.778 L 3.471 -.141 C 4.046 -.733 3.863 -1.715 3.113 -2.06 L -.696 -3.813 C -1.488 -4.177 -2.391 -3.599 -2.391 -2.727 L -2.391 2.945 C -2.391 4.018 -1.086 4.548 -.338 3.778 " fill="#006fff"/>
</g>
<clipPath id="cp122">
<path transform="matrix(1,0,0,-1,-1.3091126,774.44937)" d="M 0 0 L 612 0 L 612 803.25 L 0 803.25 Z "/>
</clipPath>
<g clip-path="url(#cp122)">
<path transform="matrix(1,0,0,-1,303.9206,268.30665)" d="M 0 0 C -.38 .54 -.249 1.286 .291 1.665 C .831 2.045 1.577 1.914 1.956 1.374 L 33.903 -44.106 C 34.283 -44.647 34.152 -45.392 33.612 -45.772 C 33.072 -46.151 32.327 -46.021 31.947 -45.48 Z " fill="#006fff"/>
</g>
<clipPath id="cp123">
<path transform="matrix(1,0,0,-1,-1.3091126,774.44937)" d="M 0 0 L 612 0 L 612 803.25 L 0 803.25 Z "/>
</clipPath>
<g clip-path="url(#cp123)">
<path transform="matrix(1,0,0,-1,332.9028,310.35276)" d="M 0 0 L 4.039 1.439 C 4.818 1.716 5.636 1.139 5.636 .313 L 5.636 -2.693 C 5.636 -3.533 4.792 -4.111 4.008 -3.807 L -.031 -2.24 C -1.064 -1.84 -1.043 -.372 0 0 " fill="#006fff"/>
</g>
<clipPath id="cp124">
<path transform="matrix(1,0,0,-1,-1.3091126,774.44937)" d="M 0 0 L 612 0 L 612 803.25 L 0 803.25 Z "/>
</clipPath>
<g clip-path="url(#cp124)">
<path transform="matrix(1,0,0,-1,371.08949,335.97325)" d="M 0 0 C -.66 0 -1.195 .535 -1.195 1.195 C -1.195 1.855 -.66 2.391 0 2.391 L 47.346 2.391 C 48.006 2.391 48.541 1.855 48.541 1.195 C 48.541 .535 48.006 0 47.346 0 Z " fill="#006fff"/>
</g>
<clipPath id="cp125">
<path transform="matrix(1,0,0,-1,-1.3091126,774.44937)" d="M 0 0 L 612 0 L 612 803.25 L 0 803.25 Z "/>
</clipPath>
<g clip-path="url(#cp125)">
<path transform="matrix(1,0,0,-1,417.56278,331.66075)" d="M 0 0 L 1.63 -2.009 C 1.968 -2.426 1.987 -3.017 1.676 -3.455 L .046 -5.746 C -.629 -6.694 -2.124 -6.216 -2.124 -5.052 L -2.124 -.753 C -2.124 .373 -.709 .874 0 0 " fill="#006fff"/>
</g>
<clipPath id="cp126">
<path transform="matrix(1,0,0,-1,-1.3091126,774.44937)" d="M 0 0 L 612 0 L 612 803.25 L 0 803.25 Z "/>
</clipPath>
<g clip-path="url(#cp126)">
<path transform="matrix(1,0,0,-1,270.5074,333.58335)" d="M 0 0 C -.66 0 -1.195 .535 -1.195 1.195 C -1.195 1.855 -.66 2.391 0 2.391 L 54.621 2.391 C 55.281 2.391 55.817 1.855 55.817 1.195 C 55.817 .535 55.281 0 54.621 0 Z " fill="#006fff"/>
</g>
<clipPath id="cp127">
<path transform="matrix(1,0,0,-1,-1.3091126,774.44937)" d="M 0 0 L 612 0 L 612 803.25 L 0 803.25 Z "/>
</clipPath>
<g clip-path="url(#cp127)">
<path transform="matrix(1,0,0,-1,274.3739,330.62095)" d="M 0 0 L 0 -4.296 C 0 -5.437 -1.446 -5.929 -2.142 -5.025 L -4.087 -2.499 C -4.467 -2.007 -4.405 -1.305 -3.945 -.886 L -2 .884 C -1.232 1.583 0 1.038 0 0 " fill="#006fff"/>
</g>
<clipPath id="cp128">
<path transform="matrix(1,0,0,-1,-1.3091126,774.44937)" d="M 0 0 L 612 0 L 612 803.25 L 0 803.25 Z "/>
</clipPath>
<g clip-path="url(#cp128)">
<path transform="matrix(1,0,0,-1,173.46749,334.72087)" d="M 0 0 C -.66 0 -1.195 .535 -1.195 1.195 C -1.195 1.855 -.66 2.391 0 2.391 L 51.033 2.391 C 51.693 2.391 52.228 1.855 52.228 1.195 C 52.228 .535 51.693 0 51.033 0 Z " fill="#006fff"/>
</g>
<clipPath id="cp129">
<path transform="matrix(1,0,0,-1,-1.3091126,774.44937)" d="M 0 0 L 612 0 L 612 803.25 L 0 803.25 Z "/>
</clipPath>
<g clip-path="url(#cp129)">
<path transform="matrix(1,0,0,-1,177.72319,330.70295)" d="M 0 0 L 0 -4.865 C 0 -5.804 -1.034 -6.377 -1.83 -5.878 L -4.665 -4.102 C -5.299 -3.706 -5.417 -2.831 -4.911 -2.281 L -2.076 .808 C -1.339 1.611 0 1.09 0 0 " fill="#006fff"/>
</g>
<clipPath id="cp130">
<path transform="matrix(1,0,0,-1,-1.3091126,774.44937)" d="M 0 0 L 612 0 L 612 803.25 L 0 803.25 Z "/>
</clipPath>
<g clip-path="url(#cp130)">
<path transform="matrix(1,0,0,-1,173.43498,497.33836)" d="M 0 0 C -.66 -.009 -1.203 .518 -1.212 1.178 C -1.221 1.838 -.694 2.381 -.034 2.39 L 50.997 3.114 C 51.658 3.124 52.2 2.596 52.21 1.936 C 52.219 1.276 51.691 .733 51.031 .724 Z " fill="#006fff"/>
</g>
<clipPath id="cp131">
<path transform="matrix(1,0,0,-1,-1.3091126,774.44937)" d="M 0 0 L 612 0 L 612 803.25 L 0 803.25 Z "/>
</clipPath>
<g clip-path="url(#cp131)">
<path transform="matrix(1,0,0,-1,177.19989,493.84614)" d="M 0 0 L 0 -4.354 C 0 -5.365 -1.177 -5.919 -1.957 -5.275 L -4.243 -3.386 C -4.772 -2.949 -4.825 -2.156 -4.358 -1.652 L -2.072 .813 C -1.333 1.61 0 1.087 0 0 " fill="#006fff"/>
</g>
<clipPath id="cp132">
<path transform="matrix(1,0,0,-1,-1.3091126,774.44937)" d="M 0 0 L 612 0 L 612 803.25 L 0 803.25 Z "/>
</clipPath>
<g clip-path="url(#cp132)">
<path transform="matrix(1,0,0,-1,258.4246,353.36936)" d="M 0 0 C -.344 .563 -.167 1.299 .396 1.643 C .959 1.988 1.695 1.81 2.039 1.247 L 24.923 -36.173 C 25.268 -36.737 25.09 -37.472 24.527 -37.817 C 23.964 -38.161 23.228 -37.984 22.884 -37.421 Z " fill="#006fff"/>
</g>
<clipPath id="cp133">
<path transform="matrix(1,0,0,-1,-1.3091126,774.44937)" d="M 0 0 L 612 0 L 612 803.25 L 0 803.25 Z "/>
</clipPath>
<g clip-path="url(#cp133)">
<path transform="matrix(1,0,0,-1,278.5766,387.53446)" d="M 0 0 L 4.043 1.528 C 4.825 1.823 5.661 1.245 5.661 .41 L 5.661 -2.577 C 5.661 -3.405 4.839 -3.982 4.06 -3.701 L .017 -2.242 C -1.028 -1.866 -1.039 -.392 0 0 " fill="#006fff"/>
</g>
<clipPath id="cp134">
<path transform="matrix(1,0,0,-1,-1.3091126,774.44937)" d="M 0 0 L 612 0 L 612 803.25 L 0 803.25 Z "/>
</clipPath>
<g clip-path="url(#cp134)">
<path transform="matrix(1,0,0,-1,303.7301,431.05595)" d="M 0 0 C -.372 .545 -.232 1.289 .313 1.661 C .858 2.033 1.602 1.893 1.974 1.348 L 33.287 -44.509 C 33.659 -45.054 33.519 -45.798 32.974 -46.17 C 32.429 -46.543 31.685 -46.402 31.313 -45.857 Z " fill="#006fff"/>
</g>
<clipPath id="cp135">
<path transform="matrix(1,0,0,-1,-1.3091126,774.44937)" d="M 0 0 L 612 0 L 612 803.25 L 0 803.25 Z "/>
</clipPath>
<g clip-path="url(#cp135)">
<path transform="matrix(1,0,0,-1,332.16499,473.78034)" d="M 0 0 L 3.587 1.472 C 4.374 1.795 5.236 1.217 5.236 .367 L 5.236 -2.337 C 5.236 -3.158 4.429 -3.734 3.653 -3.468 L .066 -2.236 C -.977 -1.878 -1.02 -.419 0 0 " fill="#006fff"/>
</g>
<clipPath id="cp136">
<path transform="matrix(1,0,0,-1,-1.3091126,774.44937)" d="M 0 0 L 612 0 L 612 803.25 L 0 803.25 Z "/>
</clipPath>
<g clip-path="url(#cp136)">
<path transform="matrix(1,0,0,-1,371.0867,498.30397)" d="M 0 0 C -.66 0 -1.195 .535 -1.195 1.195 C -1.195 1.855 -.66 2.391 0 2.391 L 47.317 2.391 C 47.977 2.391 48.512 1.855 48.512 1.195 C 48.512 .535 47.977 0 47.317 0 Z " fill="#006fff"/>
</g>
<clipPath id="cp137">
<path transform="matrix(1,0,0,-1,-1.3091126,774.44937)" d="M 0 0 L 612 0 L 612 803.25 L 0 803.25 Z "/>
</clipPath>
<g clip-path="url(#cp137)">
<path transform="matrix(1,0,0,-1,415.18919,493.24674)" d="M 0 0 L 3.63 -2.528 C 4.19 -2.917 4.311 -3.695 3.896 -4.236 L 1.861 -6.889 C 1.27 -7.66 .056 -7.442 -.23 -6.514 L -1.825 -1.333 C -2.16 -.247 -.933 .649 0 0 " fill="#006fff"/>
</g>
<clipPath id="cp138">
<path transform="matrix(1,0,0,-1,-1.3091126,774.44937)" d="M 0 0 L 612 0 L 612 803.25 L 0 803.25 Z "/>
</clipPath>
<g clip-path="url(#cp138)">
<path transform="matrix(1,0,0,-1,270.3892,495.49726)" d="M 0 0 C -.66 .015 -1.183 .562 -1.168 1.222 C -1.154 1.882 -.606 2.405 .053 2.39 L 54.742 1.165 C 55.402 1.15 55.925 .603 55.91 -.057 C 55.895 -.717 55.348 -1.24 54.688 -1.225 Z " fill="#006fff"/>
</g>
<clipPath id="cp139">
<path transform="matrix(1,0,0,-1,-1.3091126,774.44937)" d="M 0 0 L 612 0 L 612 803.25 L 0 803.25 Z "/>
</clipPath>
<g clip-path="url(#cp139)">
<path transform="matrix(1,0,0,-1,273.8971,491.83735)" d="M 0 0 L 0 -4.354 C 0 -5.365 -1.177 -5.919 -1.957 -5.275 L -4.242 -3.386 C -4.772 -2.949 -4.825 -2.156 -4.358 -1.652 L -2.072 .813 C -1.333 1.61 0 1.087 0 0 " fill="#006fff"/>
</g>
<clipPath id="cp140">
<path transform="matrix(1,0,0,-1,-1.3091126,774.44937)" d="M 0 0 L 612 0 L 612 803.25 L 0 803.25 Z "/>
</clipPath>
<g clip-path="url(#cp140)">
<path transform="matrix(1,0,0,-1,256.5416,517.2623)" d="M 0 0 C -.344 .563 -.167 1.299 .396 1.643 C .959 1.988 1.695 1.81 2.039 1.247 L 24.923 -36.173 C 25.268 -36.737 25.09 -37.472 24.527 -37.817 C 23.964 -38.161 23.228 -37.984 22.884 -37.421 Z " fill="#006fff"/>
</g>
<clipPath id="cp141">
<path transform="matrix(1,0,0,-1,-1.3091126,774.44937)" d="M 0 0 L 612 0 L 612 803.25 L 0 803.25 Z "/>
</clipPath>
<g clip-path="url(#cp141)">
<path transform="matrix(1,0,0,-1,276.6937,551.42739)" d="M 0 0 L 4.043 1.528 C 4.825 1.823 5.661 1.245 5.661 .409 L 5.661 -2.577 C 5.661 -3.405 4.839 -3.982 4.06 -3.701 L .017 -2.243 C -1.028 -1.866 -1.039 -.393 0 0 " fill="#006fff"/>
</g>
<clipPath id="cp142">
<path transform="matrix(1,0,0,-1,-1.3091126,774.44937)" d="M 0 0 L 612 0 L 612 803.25 L 0 803.25 Z "/>
</clipPath>
<g clip-path="url(#cp142)">
<path transform="matrix(1,0,0,-1,305.745,592.54727)" d="M 0 0 C -.386 .536 -.265 1.283 .271 1.669 C .806 2.055 1.554 1.933 1.939 1.398 L 32.986 -41.687 C 33.372 -42.223 33.251 -42.97 32.715 -43.356 C 32.18 -43.742 31.433 -43.621 31.047 -43.085 Z " fill="#006fff"/>
</g>
<clipPath id="cp143">
<path transform="matrix(1,0,0,-1,-1.3091126,774.44937)" d="M 0 0 L 612 0 L 612 803.25 L 0 803.25 Z "/>
</clipPath>
<g clip-path="url(#cp143)">
<path transform="matrix(1,0,0,-1,333.04789,632.50418)" d="M 0 0 L 4.405 2.128 C 5.199 2.512 6.12 1.933 6.12 1.052 L 6.12 -2.281 C 6.12 -3.07 5.37 -3.643 4.609 -3.434 L .204 -2.229 C -.861 -1.938 -.995 -.48 0 0 " fill="#006fff"/>
</g>
<clipPath id="cp144">
<path transform="matrix(1,0,0,-1,-1.3091126,774.44937)" d="M 0 0 L 612 0 L 612 803.25 L 0 803.25 Z "/>
</clipPath>
<g clip-path="url(#cp144)">
<path transform="matrix(1,0,0,-1,373.2263,656.45559)" d="M 0 0 C -.66 0 -1.195 .535 -1.195 1.195 C -1.195 1.855 -.66 2.391 0 2.391 L 46.599 2.391 C 47.259 2.391 47.795 1.855 47.795 1.195 C 47.795 .535 47.259 0 46.599 0 Z " fill="#006fff"/>
</g>
<clipPath id="cp145">
<path transform="matrix(1,0,0,-1,-1.3091126,774.44937)" d="M 0 0 L 612 0 L 612 803.25 L 0 803.25 Z "/>
</clipPath>
<g clip-path="url(#cp145)">
<path transform="matrix(1,0,0,-1,418.0316,652.24118)" d="M 0 0 L 2.067 -1.187 C 2.656 -1.525 2.845 -2.285 2.484 -2.859 L .417 -6.15 C -.221 -7.166 -1.79 -6.714 -1.79 -5.514 L -1.79 -1.036 C -1.79 -.118 -.797 .458 0 0 " fill="#006fff"/>
</g>
<clipPath id="cp146">
<path transform="matrix(1,0,0,-1,-1.3091126,774.44937)" d="M 0 0 L 612 0 L 612 803.25 L 0 803.25 Z "/>
</clipPath>
<g clip-path="url(#cp146)">
<path transform="matrix(1,0,0,-1,271.9094,656.89907)" d="M 0 0 C -.66 0 -1.195 .535 -1.195 1.195 C -1.195 1.855 -.66 2.391 0 2.391 L 54.665 2.391 C 55.326 2.391 55.861 1.855 55.861 1.195 C 55.861 .535 55.326 0 54.665 0 Z " fill="#006fff"/>
</g>
<clipPath id="cp147">
<path transform="matrix(1,0,0,-1,-1.3091126,774.44937)" d="M 0 0 L 612 0 L 612 803.25 L 0 803.25 Z "/>
</clipPath>
<g clip-path="url(#cp147)">
<path transform="matrix(1,0,0,-1,275.563,653.16159)" d="M 0 0 L 0 -4.819 C 0 -5.89 -1.301 -6.421 -2.05 -5.655 L -4.098 -3.56 C -4.511 -3.137 -4.554 -2.477 -4.199 -2.006 L -2.151 .718 C -1.461 1.636 0 1.148 0 0 " fill="#006fff"/>
</g>
<clipPath id="cp148">
<path transform="matrix(1,0,0,-1,-1.3091126,774.44937)" d="M 0 0 L 612 0 L 612 803.25 L 0 803.25 Z "/>
</clipPath>
<g clip-path="url(#cp148)">
<path transform="matrix(1,0,0,-1,163.77458,632.0872)" d="M 0 0 C -.067 .009 -.055 -.082 -.039 -.193 C -.22 .191 -.678 .355 -1.062 .174 C -1.446 -.008 -1.61 -.465 -1.428 -.849 C -1.247 -1.233 -.789 -1.397 -.406 -1.215 C -.022 -1.034 .142 -.576 -.039 -.193 C -.048 -.305 -.08 -.587 -.142 -.656 C -.015 -.329 -.178 .038 -.505 .165 C -.832 .291 -1.199 .128 -1.326 -.198 C -1.452 -.525 -1.29 -.893 -.963 -1.019 C -.636 -1.146 -.268 -.983 -.142 -.656 C -.162 -.694 -.192 -.739 -.157 -.702 C .078 -.442 .057 -.04 -.203 .195 C -.463 .429 -.865 .409 -1.099 .149 C -1.181 .057 -1.276 -.084 -1.326 -.198 C -1.417 -.345 -1.444 -.685 -1.429 -.849 C -1.388 -1.012 -1.332 -1.148 -1.353 -1.193 C -1.023 -1.566 -.453 -1.602 -.08 -1.273 C .294 -.943 .329 -.374 0 0 " fill="#006fff"/>
</g>
<clipPath id="cp149">
<path transform="matrix(1,0,0,-1,-1.3091126,774.44937)" d="M 0 0 L 612 0 L 612 803.25 L 0 803.25 Z "/>
</clipPath>
<g clip-path="url(#cp149)">
<path transform="matrix(1,0,0,-1,161.9757,633.14486)" d="M 0 0 C .001 .007 .004 .03 .006 .046 C -.071 -.446 .266 -.907 .758 -.984 C 1.25 -1.06 1.711 -.724 1.788 -.232 C 1.865 .26 1.528 .721 1.036 .798 C .544 .875 .083 .538 .006 .046 C .019 .114 1.397 .657 1.779 .091 C 1.678 .578 1.2 .891 .713 .789 C .225 .688 -.088 .21 .014 -.277 C .115 -.765 .593 -1.078 1.08 -.976 C 1.568 -.875 1.881 -.397 1.779 .091 C 1.797 -.046 1.798 -.093 1.798 -.096 C 1.804 .402 1.405 .81 .907 .816 C .409 .822 .001 .423 -.005 -.075 C -.011 -.573 .388 -.981 .886 -.987 C 1.384 -.993 1.792 -.594 1.798 -.096 C 1.798 -.095 1.798 -.082 1.799 -.061 C 1.8 -.019 1.8 .058 1.798 .128 C 1.752 .162 1.703 .225 1.651 .272 C 1.584 .691 1.19 .976 .771 .909 C .352 .842 .067 .448 .134 .029 C .202 -.39 .596 -.675 1.015 -.608 C 1.434 -.54 1.718 -.146 1.651 .272 C 1.624 .301 1.581 .378 1.537 .436 C 1.388 .794 .978 .964 .62 .815 C .262 .667 .092 .257 .241 -.101 C .389 -.459 .799 -.629 1.157 -.48 C 1.515 -.332 1.685 .078 1.537 .436 C 1.51 .469 1.442 .562 1.38 .622 C 1.131 .895 .708 .914 .436 .665 C .163 .417 .144 -.006 .393 -.278 C .641 -.551 1.064 -.57 1.336 -.322 C 1.609 -.073 1.628 .35 1.38 .622 C 1.308 .676 1.066 .793 .943 .806 C .594 .839 .284 .583 .251 .234 C .218 -.115 .474 -.425 .823 -.458 C .702 -.446 .462 -.329 .372 -.255 C .332 -.22 .266 -.13 .241 -.101 C .199 -.051 .16 .014 .134 .028 C .087 .048 .04 .072 -.004 .062 C -.003 .043 -.004 .012 -.004 -.023 C -.005 -.041 -.005 -.059 -.005 -.075 C -.005 -.087 -.004 -.14 .027 -.332 C .396 -.844 1.774 -.301 1.784 -.251 C 1.79 -.214 1.793 -.189 1.795 -.177 C 1.843 .318 1.481 .76 .986 .809 C .49 .858 .049 .496 0 0 " fill="#006fff"/>
</g>
<clipPath id="cp150">
<path transform="matrix(1,0,0,-1,-1.3091126,774.44937)" d="M 0 0 L 612 0 L 612 803.25 L 0 803.25 Z "/>
</clipPath>
<g clip-path="url(#cp150)">
<path transform="matrix(1,0,0,-1,161.6576,632.27658)" d="M 0 0 C -.012 -.101 -.012 -.288 .008 -.422 C .102 -.911 .574 -1.232 1.063 -1.138 C 1.552 -1.045 1.873 -.573 1.78 -.083 C 1.686 .406 1.214 .727 .725 .633 C .236 .54 -.085 .067 .008 -.422 C .047 -.558 .151 -.778 .228 -.88 C .515 -1.274 1.068 -1.361 1.462 -1.074 C 1.856 -.787 1.943 -.235 1.656 .159 C 1.369 .553 .817 .64 .423 .353 C .028 .066 -.059 -.486 .228 -.88 C .363 -.919 .518 -.959 .636 -.951 C .902 -1.179 1.303 -1.147 1.53 -.88 C 1.758 -.613 1.726 -.213 1.46 .015 C 1.486 .101 1.571 .13 1.655 .16 C 1.683 .126 1.757 -.025 1.78 -.084 C 1.785 -.138 1.786 -.238 1.788 -.232 C 1.852 .262 1.504 .714 1.01 .778 C .516 .842 .064 .494 0 0 " fill="#006fff"/>
</g>
<clipPath id="cp151">
<path transform="matrix(1,0,0,-1,-1.3091126,774.44937)" d="M 0 0 L 612 0 L 612 803.25 L 0 803.25 Z "/>
</clipPath>
<g clip-path="url(#cp151)">
<path transform="matrix(1,0,0,-1,258.99989,675.45169)" d="M 0 0 C -.233 .373 -.12 .865 .254 1.098 C .627 1.331 1.118 1.218 1.352 .844 L 24.603 -36.381 C 24.836 -36.754 24.723 -37.246 24.35 -37.479 C 23.976 -37.712 23.485 -37.598 23.251 -37.225 Z "/>
</g>
<clipPath id="cp152">
<path transform="matrix(1,0,0,-1,-1.3091126,774.44937)" d="M 0 0 L 612 0 L 612 803.25 L 0 803.25 Z "/>
</clipPath>
<g clip-path="url(#cp152)">
<path transform="matrix(1,0,0,-1,174.86469,655.9512)" d="M 0 0 C -.66 .007 -1.19 .547 -1.183 1.207 C -1.177 1.867 -.636 2.397 .024 2.391 L 51.057 1.882 C 51.717 1.876 52.247 1.336 52.24 .675 C 52.234 .015 51.693 -.515 51.033 -.508 Z " fill="#006fff"/>
</g>
<clipPath id="cp153">
<path transform="matrix(1,0,0,-1,-1.3091126,774.44937)" d="M 0 0 L 612 0 L 612 803.25 L 0 803.25 Z "/>
</clipPath>
<g clip-path="url(#cp153)">
<path transform="matrix(1,0,0,-1,176.4793,657.4442)" d="M 0 0 L -1.871 1.689 C -2.36 2.131 -2.399 2.884 -1.959 3.375 L -.089 5.46 C .643 6.277 1.996 5.759 1.996 4.662 L 1.996 .887 C 1.996 -.149 .769 -.694 0 0 " fill="#006fff"/>
</g>
</g>
</svg>
