<svg xmlns="http://www.w3.org/2000/svg" xmlns:xlink="http://www.w3.org/1999/xlink" x="0" y="0" width="700" height="339" style="
        width:700px;
        height:339px;
        background: transparent;
        fill: none;
">
        
        
        <svg xmlns="http://www.w3.org/2000/svg" class="role-diagram-draw-area" style="overflow: visible;"><g class="shapes-region" style="stroke: black; fill: none;"><g class="composite-shape"><path class="real" d=" M147.66,103.71 C147.66,65.45 181.22,34.43 222.62,34.43 C264.02,34.43 297.58,65.45 297.58,103.71 C297.58,141.97 264.02,172.99 222.62,172.99 C181.22,172.99 147.66,141.97 147.66,103.71 Z" style="stroke-width: 1; stroke: rgb(0, 0, 0); fill: none; fill-opacity: 1; stroke-dasharray: 1.125, 3.35;"/></g><g class="composite-shape"><path class="real" d=" M296.42,122.69 C296.42,116.16 333.28,110.87 378.74,110.87 C424.2,110.87 461.06,116.16 461.06,122.69 C461.06,129.21 424.2,134.5 378.74,134.5 C333.28,134.5 296.42,129.21 296.42,122.69 Z" style="stroke-width: 1; stroke: rgb(0, 0, 0); fill: none; fill-opacity: 1; stroke-dasharray: 6, 6;"/></g><g class="composite-shape"><path class="real" d=" M198.2,122.69 C198.2,111.22 279.03,101.92 378.74,101.92 C478.45,101.92 559.28,111.22 559.28,122.69 C559.28,134.15 478.45,143.45 378.74,143.45 C279.03,143.45 198.2,134.15 198.2,122.69 Z" style="stroke-width: 1; stroke: rgb(0, 0, 0); fill: none; fill-opacity: 1; stroke-dasharray: 6, 6;"/></g><g class="arrow-line"><path class="connection real" stroke-dasharray="" d="  M222.62,103.71 L376.75,122.44" style="stroke: rgb(0, 0, 0); stroke-width: 1; fill: none; fill-opacity: 1;"/><g stroke="none" fill="#000" transform="matrix(-0.9926943023455738,-0.12065662887149829,0.12065662887149829,-0.9926943023455738,378.7388996339856,122.6862522471379)" style="stroke: none; fill: rgb(0, 0, 0); stroke-width: 1;"><path d=" M12,-3 L0,0 L12,3 Z"/></g></g><g class="arrow-line"><path class="connection real" stroke-dasharray="" d="  M377.38,59.14 C313.08,146.5 404.5,-14.62 311.53,114.99" style="stroke: rgb(0, 0, 0); stroke-width: 1; fill: none; fill-opacity: 1;"/><g stroke="none" fill="#000" transform="matrix(0.5828323126827829,-0.8125924533816683,0.8125924533816683,0.5828323126827829,311.52792959269397,114.98864604030655)" style="stroke: none; fill: rgb(0, 0, 0); stroke-width: 1;"><path d=" M12,-3 L0,0 L12,3 Z"/></g></g><g class="arrow-line"><path class="connection real" stroke-dasharray="" d="  M222.62,103.71 L294.48,122.19" style="stroke: rgb(0, 0, 0); stroke-width: 1; fill: none; fill-opacity: 1;"/><g stroke="none" fill="#000" transform="matrix(-0.9684962929739852,-0.2490279713117557,0.2490279713117557,-0.9684962929739852,296.41998820012697,122.68625224713787)" style="stroke: none; fill: rgb(0, 0, 0); stroke-width: 1;"><path d=" M12,-3 L0,0 L12,3 Z"/></g></g><g class="arrow-line"><path class="connection real" stroke-dasharray="" d="  M139.53,219.53 C247.22,167.26 37.16,222.76 259.52,113.2" style="stroke: rgb(0, 0, 0); stroke-width: 1; fill: none; fill-opacity: 1;"/><g stroke="none" fill="#000" transform="matrix(-0.8970270747667141,0.44197559563336974,-0.44197559563336974,-0.8970270747667141,259.52174672212675,113.19850506197372)" style="stroke: none; fill: rgb(0, 0, 0); stroke-width: 1;"><path d=" M12,-3 L0,0 L12,3 Z"/></g></g><g class="arrow-line"><path class="connection real" stroke-dasharray="" d="  M222.62,103.71 L378.74,122.69" style="stroke: rgb(0, 0, 0); stroke-width: 1; fill: none; fill-opacity: 1;"/><g stroke="#000" fill="#000" transform="matrix(0.9926943023455738,0.12065662887149839,-0.12065662887149839,0.9926943023455738,378.7388996339856,122.6862522471379)" style="stroke: rgb(0, 0, 0); fill: rgb(0, 0, 0); stroke-width: 1;"><circle cx="0" cy="0" r="1.34"/></g><g stroke="#000" fill="#000" transform="matrix(0.9926943023455738,0.12065662887149839,-0.12065662887149839,0.9926943023455738,222.62350524412653,103.71075787680957)" style="stroke: rgb(0, 0, 0); fill: rgb(0, 0, 0); stroke-width: 1;"><circle cx="0" cy="0" r="1.34"/></g></g><g class="shape"><path class="real" d=" M151.54,122.87 C171.68,94.94 302.62,79.19 331.28,104.25 C359.95,129.31 385.13,179.43 385.13,179.43 C385.13,179.43 474.38,209.65 449.98,234 C425.57,258.34 336.4,286.41 317.03,267.08 C297.66,247.75 296.03,198.05 295.65,197.34 C295.26,196.62 252.65,171.2 232.89,167.26 C213.13,163.32 131.39,150.79 151.54,122.87 Z" style="stroke: rgb(0, 0, 0); stroke-width: 1; fill: none; fill-opacity: 1;"/></g><g class="shape"><path class="real" d=" M174.78,131.46 C173.23,120.72 293.32,111.41 315.01,120 C336.71,128.59 369.64,183.01 368.86,183.01 C368.09,183.01 456.8,204.93 389,240.3 C321.21,275.67 313.85,192.32 313.85,193.04 C313.85,193.75 284.41,156.16 264.65,152.22 C244.9,148.29 176.33,142.2 174.78,131.46 Z" style="stroke: rgb(0, 0, 0); stroke-width: 1; fill: none; fill-opacity: 1;"/></g><g class="shape"><path class="real" d=" M307.27,153.66 C316.56,146.5 330.12,150.08 340.97,162.96 C351.82,175.85 350.65,185.25 350.46,186.33 C350.27,187.4 408.61,209.94 379.71,225.98 C350.81,242.02 331.67,190.89 330.9,190.89 C330.12,190.89 297.97,160.82 307.27,153.66 Z" style="stroke: rgb(0, 0, 0); stroke-width: 1; fill: none; fill-opacity: 1;"/></g><g class="arrow-line"><path class="connection real" stroke-dasharray="" d="  M295.65,197.34 L385.13,179.43" style="stroke: rgb(0, 0, 0); stroke-width: 1; fill: none; fill-opacity: 1;"/><g><g stroke="#000" fill="#000" transform="matrix(0.9805804445574351,-0.1961172908020683,0.1961172908020683,0.9805804445574351,340.3879714836231,188.38442615195382)" style="stroke: rgb(0, 0, 0); fill: rgb(0, 0, 0); stroke-width: 1;"><circle cx="0" cy="0" r="2.01"/></g></g></g><g class="arrow-line"><path class="connection real" stroke-dasharray="" d="  M290.13,56.45 C389,60.21 470.26,240.12 544.05,247.64" style="stroke: rgb(0, 0, 0); stroke-width: 1; fill: none; fill-opacity: 1;"/></g><g class="arrow-line"><path class="connection real" stroke-dasharray="" d="  M106.51,137.81 C126.84,80.35 258.75,100.22 290.13,56.45" style="stroke: rgb(0, 0, 0); stroke-width: 1; fill: none; fill-opacity: 1;"/></g><g class="arrow-line"><path class="connection real" stroke-dasharray="" d="  M360.44,329 C380.77,271.54 512.68,291.41 544.05,247.64" style="stroke: rgb(0, 0, 0); stroke-width: 1; fill: none; fill-opacity: 1;"/></g><g class="composite-shape"><path class="real" d=" M161.1,13.67 L605.02,13.67 L548.57,182.66 L104.64,182.66 Z" style="stroke-width: 1; stroke: rgb(0, 0, 0); stroke-opacity: 1; fill: none; fill-opacity: 1;"/></g><g class="arrow-line"><path class="connection real" stroke-dasharray="" d="  M106.51,137.81 C205.38,141.57 286.64,321.48 360.44,329" style="stroke: rgb(0, 0, 0); stroke-width: 1; fill: none; fill-opacity: 1;"/></g><g class="arrow-line"><path class="connection real" stroke-dasharray="" d="  M222.62,103.71 L284.23,139.76" style="stroke: rgb(0, 0, 0); stroke-width: 1; fill: none; fill-opacity: 1;"/><g stroke="none" fill="#000" transform="matrix(-0.8631312622203641,-0.5049796274879623,0.5049796274879623,-0.8631312622203641,285.96064415911906,140.76667612829976)" style="stroke: none; fill: rgb(0, 0, 0); stroke-width: 1;"><path d=" M12,-3 L0,0 L12,3 Z"/></g></g><g class="arrow-line"><path class="connection real" stroke-dasharray="" d="  M179.04,250.32 C230.95,132.17 175.94,348.42 261.94,127.88" style="stroke: rgb(0, 0, 0); stroke-width: 1; fill: none; fill-opacity: 1;"/><g stroke="none" fill="#000" transform="matrix(-0.363251230472978,0.9316912275855491,-0.9316912275855491,-0.363251230472978,261.9428911760638,127.87766108430316)" style="stroke: none; fill: rgb(0, 0, 0); stroke-width: 1;"><path d=" M12,-3 L0,0 L12,3 Z"/></g></g><g class="arrow-line"><path class="connection real" stroke-dasharray="1.125 3.35" d="  M286.35,140.77 C303.72,141.46 312.99,145.57 325.66,164.35" style="stroke: rgb(0, 0, 0); stroke-width: 1; fill: none; fill-opacity: 1;"/><g stroke="none" fill="#000" transform="matrix(-0.5490228179981321,-0.83580736136827,0.83580736136827,-0.5490228179981321,326.6358709852609,165.82864982495977)" style="stroke: none; fill: rgb(0, 0, 0); stroke-width: 1;"><path d=" M7.2,-1.8 L0,0 L7.2,1.8 Z"/></g></g><g class="arrow-line"><path class="connection real" stroke-dasharray="" d="  M230.56,278.97 C345.23,181.58 163.93,283.26 326.64,165.83" style="stroke: rgb(0, 0, 0); stroke-width: 1; fill: none; fill-opacity: 1;"/><g stroke="none" fill="#000" transform="matrix(-0.8108595808323732,0.5852407540255106,-0.5852407540255106,-0.8108595808323732,326.63587098526074,165.8286498249598)" style="stroke: none; fill: rgb(0, 0, 0); stroke-width: 1;"><path d=" M12,-3 L0,0 L12,3 Z"/></g></g><g/></g><g/><g/><g/></svg>
        <svg xmlns="http://www.w3.org/2000/svg" xmlns:xlink="http://www.w3.org/1999/xlink" width="698" height="337" style="width:698px;height:337px;font-family:Asana-Math, Asana;background:transparent;"><g><g><g><text x="209.0234375" y="17.9375" style="white-space:pre;stroke:none;fill:rgb(0,0,0);fill-opacity:1;font-size:12px;font-family:Arial, Helvetica, sans-serif;font-weight:400;font-style:normal;dominant-baseline:text-before-edge;text-decoration:none solid rgb(0, 0, 0);">Trust region</text></g></g></g><g><g><g><text x="472.8828125" y="80.5546875" style="white-space:pre;stroke:none;fill:rgb(0,0,0);fill-opacity:1;font-size:12px;font-family:Arial, Helvetica, sans-serif;font-weight:400;font-style:normal;dominant-baseline:text-before-edge;text-decoration:none solid rgb(0, 0, 0);">contours of </text></g><g><g><g><g><g transform="matrix(1,0,0,1,535.5859375,91.6546875)"><path transform="matrix(0.0136,0,0,-0.0136,0,0)" d="M730 103L704 86C675 67 653 56 643 56C636 56 630 65 630 76C630 86 632 95 637 116L712 413C716 430 719 446 719 454C719 471 709 482 693 482C664 482 626 464 565 421C502 376 467 341 418 272L448 409C452 429 455 444 455 451C455 470 445 482 429 482C399 482 353 460 298 418C254 384 234 363 169 275L202 408C206 424 208 439 208 451C208 470 199 482 185 482C164 482 126 461 52 408L24 388L31 368C68 391 103 414 110 414C121 414 128 404 128 389C128 338 87 145 46 2L49 -9L117 6L139 108C163 219 190 278 245 338C287 384 332 414 360 414C367 414 371 406 371 393C371 358 349 244 308 69L292 2L297 -9L366 6L387 113C403 194 437 269 481 318C536 379 586 414 618 414C626 414 631 405 631 389C631 365 628 351 606 264C566 105 550 84 550 31C550 6 561 -9 580 -9C606 -9 642 12 740 85Z" stroke="rgb(0,0,0)" stroke-opacity="1" stroke-width="8" fill="rgb(0,0,0)" fill-opacity="1"></path></g></g><g><g><g><g><g transform="matrix(1,0,0,1,546.5625,94.05125)"><path transform="matrix(0.009519999999999999,0,0,-0.009519999999999999,0,0)" d="M240 722L228 733C176 707 140 698 68 691L64 670L112 670C136 670 146 663 146 646C146 638 145 629 144 622L96 354C82 279 66 210 14 1L23 -9L90 8L113 132C122 180 146 225 180 259C249 59 281 -9 306 -9C319 -9 343 4 387 35L433 67L425 86L382 62C368 54 361 52 353 52C343 52 336 58 327 75C292 139 270 193 231 316L245 330C306 391 352 416 402 416C410 416 421 414 438 410L455 473C437 479 419 482 407 482C341 482 258 405 133 230Z" stroke="rgb(0,0,0)" stroke-opacity="1" stroke-width="8" fill="rgb(0,0,0)" fill-opacity="1"></path></g></g></g></g></g></g></g></g></g></g><g><g><g><text x="384.21875" y="266.375" style="white-space:pre;stroke:none;fill:rgb(0,0,0);fill-opacity:1;font-size:12px;font-family:Arial, Helvetica, sans-serif;font-weight:400;font-style:normal;dominant-baseline:text-before-edge;text-decoration:none solid rgb(0, 0, 0);">contours of </text></g><g><g><g><g><g transform="matrix(1,0,0,1,446.921875,277.475)"><path transform="matrix(0.0136,0,0,-0.0136,0,0)" d="M345 437L329 437L350 549C366 635 394 673 440 673C470 673 497 658 512 634L522 638C527 654 537 685 545 705L550 720C534 727 503 733 480 733C469 733 453 730 445 726C421 715 339 654 316 630C294 608 282 578 271 521L256 442C215 422 195 414 170 405L165 383L246 383L237 327C207 132 170 -54 148 -123C130 -182 100 -213 64 -213C41 -213 30 -206 12 -184L-2 -188C-6 -211 -20 -259 -25 -268C-16 -273 -1 -276 10 -276C51 -276 105 -245 144 -198C215 -114 235 -18 319 383L423 383C427 402 434 425 440 439L436 446C407 439 408 437 345 437Z" stroke="rgb(0,0,0)" stroke-opacity="1" stroke-width="8" fill="rgb(0,0,0)" fill-opacity="1"></path></g></g></g></g></g></g></g><g><g><g><g transform="matrix(1,0,0,1,349.15625,208.3671875)"><path transform="matrix(0.017,0,0,-0.017,0,0)" d="M9 1C24 -7 40 -11 52 -11C85 -11 124 18 155 65L231 182L242 113C255 28 278 -11 314 -11C336 -11 368 6 400 35L449 79L440 98C404 68 379 53 363 53C348 53 335 63 325 83C316 102 305 139 300 168L282 269L317 318C364 383 391 406 422 406C438 406 450 398 455 383L469 387L484 472C472 479 463 482 454 482C414 482 374 446 312 354L275 299L269 347C257 446 230 482 171 482C145 482 123 474 114 461L56 378L73 368C103 402 123 416 142 416C175 416 197 375 214 277L225 215L185 153C142 86 108 54 80 54C65 54 54 58 52 63L41 91L21 88C21 53 13 27 9 1Z" stroke="rgb(0,0,0)" stroke-opacity="1" stroke-width="8" fill="rgb(0,0,0)" fill-opacity="1"></path></g></g><g><g><g><g><g transform="matrix(1,0,0,1,358.6171875,202.1734375)"><path transform="matrix(0.0119,0,0,-0.0119,0,0)" d="M168 267L37 213L32 204L68 153L78 153L184 241L202 99L212 95L280 121L280 131L212 253L350 233L359 241L359 303L353 307L214 283L283 408L280 423L218 442L209 438L183 295L88 393L78 393L34 341L37 331Z" stroke="rgb(0,0,0)" stroke-opacity="1" stroke-width="8" fill="rgb(0,0,0)" fill-opacity="1"></path></g></g></g></g></g></g></g><g><g><g><g transform="matrix(1,0,0,1,461.8359375,313.921875)"><path transform="matrix(0.017,0,0,-0.017,0,0)" d="M1060 53C1056 48 1050 45 1043 45C984 45 943 208 933 249C908 349 878 486 878 597C878 631 880 662 887 690L879 696C838 686 801 669 767 648C763 458 635 330 539 194C494 283 447 371 396 458C349 539 297 619 266 704C229 694 196 676 170 652C186 618 193 559 193 489C193 281 127 -22 15 -31C28 -40 42 -44 56 -44C105 -44 142 -22 169 12C215 70 236 421 237 517C314 391 451 193 484 62C487 50 488 38 488 27C488 14 487 2 485 -10C524 -3 556 19 580 46L580 52C580 243 727 356 790 513C802 419 812 324 836 229C859 138 882 52 955 -27L963 -31C1011 -31 1062 3 1060 53Z" stroke="rgb(0,0,0)" stroke-opacity="1" stroke-width="8" fill="rgb(0,0,0)" fill-opacity="1"></path></g></g></g></g><g><g><g><g transform="matrix(1,0,0,1,546.96875,45.4765625)"><path transform="matrix(0.017,0,0,-0.017,0,0)" d="M390 646L463 646C541 646 577 641 580 629C583 621 585 602 584 592L580 528L608 528L635 692L544 691C456 690 388 689 353 689C316 689 252 690 166 691L71 692L53 528L82 528L97 588C102 610 109 626 115 633C121 640 159 646 196 646L308 646L222 125C206 34 204 31 164 28L113 25L109 -3L166 -2C206 -1 235 0 251 0C270 0 301 -1 340 -2L384 -3L387 25L328 28C302 29 292 37 292 58C292 67 293 74 296 93Z" stroke="rgb(0,0,0)" stroke-opacity="1" stroke-width="8" fill="rgb(0,0,0)" fill-opacity="1"></path></g></g><g><g><g><g><g transform="matrix(1,0,0,1,557.8515625,48.978125)"><path transform="matrix(0.0119,0,0,-0.0119,0,0)" d="M9 1C24 -7 40 -11 52 -11C85 -11 124 18 155 65L231 182L242 113C255 28 278 -11 314 -11C336 -11 368 6 400 35L449 79L440 98C404 68 379 53 363 53C348 53 335 63 325 83C316 102 305 139 300 168L282 269L317 318C364 383 391 406 422 406C438 406 450 398 455 383L469 387L484 472C472 479 463 482 454 482C414 482 374 446 312 354L275 299L269 347C257 446 230 482 171 482C145 482 123 474 114 461L56 378L73 368C103 402 123 416 142 416C175 416 197 375 214 277L225 215L185 153C142 86 108 54 80 54C65 54 54 58 52 63L41 91L21 88C21 53 13 27 9 1Z" stroke="rgb(0,0,0)" stroke-opacity="1" stroke-width="8" fill="rgb(0,0,0)" fill-opacity="1"></path></g></g></g></g></g><g><g transform="matrix(1,0,0,1,564.8125,45.4765625)"><path transform="matrix(0.017,0,0,-0.017,0,0)" d="M1060 53C1056 48 1050 45 1043 45C984 45 943 208 933 249C908 349 878 486 878 597C878 631 880 662 887 690L879 696C838 686 801 669 767 648C763 458 635 330 539 194C494 283 447 371 396 458C349 539 297 619 266 704C229 694 196 676 170 652C186 618 193 559 193 489C193 281 127 -22 15 -31C28 -40 42 -44 56 -44C105 -44 142 -22 169 12C215 70 236 421 237 517C314 391 451 193 484 62C487 50 488 38 488 27C488 14 487 2 485 -10C524 -3 556 19 580 46L580 52C580 243 727 356 790 513C802 419 812 324 836 229C859 138 882 52 955 -27L963 -31C1011 -31 1062 3 1060 53Z" stroke="rgb(0,0,0)" stroke-opacity="1" stroke-width="8" fill="rgb(0,0,0)" fill-opacity="1"></path></g></g></g></g><g><g><g><g transform="matrix(1,0,0,1,209.7734375,79.3125)"><path transform="matrix(0.017,0,0,-0.017,0,0)" d="M9 1C24 -7 40 -11 52 -11C85 -11 124 18 155 65L231 182L242 113C255 28 278 -11 314 -11C336 -11 368 6 400 35L449 79L440 98C404 68 379 53 363 53C348 53 335 63 325 83C316 102 305 139 300 168L282 269L317 318C364 383 391 406 422 406C438 406 450 398 455 383L469 387L484 472C472 479 463 482 454 482C414 482 374 446 312 354L275 299L269 347C257 446 230 482 171 482C145 482 123 474 114 461L56 378L73 368C103 402 123 416 142 416C175 416 197 375 214 277L225 215L185 153C142 86 108 54 80 54C65 54 54 58 52 63L41 91L21 88C21 53 13 27 9 1Z" stroke="rgb(0,0,0)" stroke-opacity="1" stroke-width="8" fill="rgb(0,0,0)" fill-opacity="1"></path></g></g><g><g><g><g><g transform="matrix(1,0,0,1,218.765625,82.8140625)"><path transform="matrix(0.0119,0,0,-0.0119,0,0)" d="M240 722L228 733C176 707 140 698 68 691L64 670L112 670C136 670 146 663 146 646C146 638 145 629 144 622L96 354C82 279 66 210 14 1L23 -9L90 8L113 132C122 180 146 225 180 259C249 59 281 -9 306 -9C319 -9 343 4 387 35L433 67L425 86L382 62C368 54 361 52 353 52C343 52 336 58 327 75C292 139 270 193 231 316L245 330C306 391 352 416 402 416C410 416 421 414 438 410L455 473C437 479 419 482 407 482C341 482 258 405 133 230Z" stroke="rgb(0,0,0)" stroke-opacity="1" stroke-width="8" fill="rgb(0,0,0)" fill-opacity="1"></path></g></g></g></g></g></g></g><g><g><g><g transform="matrix(1,0,0,1,120.6796875,234.140625)"><path transform="matrix(0.017,0,0,-0.017,0,0)" d="M215 473C182 473 71 404 38 383L38 377L50 366L50 364C73 373 133 429 143 382C141 316 98 73 77 -6L77 -16C98 -6 127 3 149 9C165 134 177 423 351 426C396 426 421 402 421 356C424 186 303 -113 326 -275C350 -264 380 -255 405 -251C362 -129 495 274 497 382C499 444 459 473 400 473C324 473 255 424 210 367L210 369C226 433 242 473 215 473Z" stroke="rgb(0,0,0)" stroke-opacity="1" stroke-width="8" fill="rgb(0,0,0)" fill-opacity="1"></path></g></g><g><g><g><g><g transform="matrix(1,0,0,1,130.6875,227.946875)"><path transform="matrix(0.0119,0,0,-0.0119,0,0)" d="M168 267L37 213L32 204L68 153L78 153L184 241L202 99L212 95L280 121L280 131L212 253L350 233L359 241L359 303L353 307L214 283L283 408L280 423L218 442L209 438L183 295L88 393L78 393L34 341L37 331Z" stroke="rgb(0,0,0)" stroke-opacity="1" stroke-width="8" fill="rgb(0,0,0)" fill-opacity="1"></path></g></g></g></g></g></g></g><g><g><g><g transform="matrix(1,0,0,1,385.6484375,46.53125)"><path transform="matrix(0.017,0,0,-0.017,0,0)" d="M371 6C389 6 406 1 407 -20C393 -81 288 -113 221 -99L221 -108C241 -120 260 -133 274 -148C333 -125 461 -43 463 28C463 58 435 66 411 66C300 66 118 9 118 148C118 283 263 353 397 338C405 348 411 359 421 366L421 374C341 376 255 404 256 501C258 619 403 646 493 647C500 646 500 667 501 696C452 671 395 656 339 656C310 656 240 657 242 701C230 695 200 684 200 666C198 627 303 637 320 636L320 629C256 609 186 563 184 489C183 417 244 388 303 369L303 360C193 329 42 264 42 131C42 -34 228 6 371 6Z" stroke="rgb(0,0,0)" stroke-opacity="1" stroke-width="8" fill="rgb(0,0,0)" fill-opacity="1"></path></g></g><g><g><g><g><g transform="matrix(1,0,0,1,395.9296875,40.3375)"><path transform="matrix(0.0119,0,0,-0.0119,0,0)" d="M168 267L37 213L32 204L68 153L78 153L184 241L202 99L212 95L280 121L280 131L212 253L350 233L359 241L359 303L353 307L214 283L283 408L280 423L218 442L209 438L183 295L88 393L78 393L34 341L37 331Z" stroke="rgb(0,0,0)" stroke-opacity="1" stroke-width="8" fill="rgb(0,0,0)" fill-opacity="1"></path></g></g></g></g></g></g></g><g><g><g><g transform="matrix(1,0,0,1,169.78125,267.5625)"><path transform="matrix(0.017,0,0,-0.017,0,0)" d="M215 473C182 473 71 404 38 383L38 377L50 366L50 364C73 373 133 429 143 382C141 316 98 73 77 -6L77 -16C98 -6 127 3 149 9C165 134 177 423 351 426C396 426 421 402 421 356C424 186 303 -113 326 -275C350 -264 380 -255 405 -251C362 -129 495 274 497 382C499 444 459 473 400 473C324 473 255 424 210 367L210 369C226 433 242 473 215 473Z" stroke="rgb(0,0,0)" stroke-opacity="1" stroke-width="8" fill="rgb(0,0,0)" fill-opacity="1"></path></g></g></g></g><g><g><g><g transform="matrix(1,0,0,1,213.2109375,298.1953125)"><path transform="matrix(0.017,0,0,-0.017,0,0)" d="M105 664L161 662C185 661 196 653 196 635C196 621 192 589 187 559L112 125C96 34 94 32 54 28L13 25L9 -3L51 -2C98 0 117 0 141 0L238 -3L264 -3L267 25L218 28C191 30 182 38 182 58C182 67 183 76 186 93L287 648C316 654 336 656 363 656C450 656 496 617 496 543C496 448 418 378 314 378L270 378L267 367C401 172 432 124 507 -3C507 -3 592 0 592 0C593 0 607 -1 626 -3L639 -3L639 24C599 29 588 37 559 79L375 354C430 364 459 376 495 402C553 444 584 499 584 560C584 646 520 693 409 691L108 691Z" stroke="rgb(0,0,0)" stroke-opacity="1" stroke-width="8" fill="rgb(0,0,0)" fill-opacity="1"></path></g></g><g><g><g></g></g><g><g><g><g transform="matrix(1,0,0,1,225.046875,302.853125)"><path transform="matrix(0.0119,0,0,-0.0119,0,0)" d="M9 1C24 -7 40 -11 52 -11C85 -11 124 18 155 65L231 182L242 113C255 28 278 -11 314 -11C336 -11 368 6 400 35L449 79L440 98C404 68 379 53 363 53C348 53 335 63 325 83C316 102 305 139 300 168L282 269L317 318C364 383 391 406 422 406C438 406 450 398 455 383L469 387L484 472C472 479 463 482 454 482C414 482 374 446 312 354L275 299L269 347C257 446 230 482 171 482C145 482 123 474 114 461L56 378L73 368C103 402 123 416 142 416C175 416 197 375 214 277L225 215L185 153C142 86 108 54 80 54C65 54 54 58 52 63L41 91L21 88C21 53 13 27 9 1Z" stroke="rgb(0,0,0)" stroke-opacity="1" stroke-width="8" fill="rgb(0,0,0)" fill-opacity="1"></path></g></g><g><g><g><g><g transform="matrix(1,0,0,1,231.34375,305.455)"><path transform="matrix(0.00833,0,0,-0.00833,0,0)" d="M240 722L228 733C176 707 140 698 68 691L64 670L112 670C136 670 146 663 146 646C146 638 145 629 144 622L96 354C82 279 66 210 14 1L23 -9L90 8L113 132C122 180 146 225 180 259C249 59 281 -9 306 -9C319 -9 343 4 387 35L433 67L425 86L382 62C368 54 361 52 353 52C343 52 336 58 327 75C292 139 270 193 231 316L245 330C306 391 352 416 402 416C410 416 421 414 438 410L455 473C437 479 419 482 407 482C341 482 258 405 133 230Z" stroke="rgb(0,0,0)" stroke-opacity="1" stroke-width="8" fill="rgb(0,0,0)" fill-opacity="1"></path></g></g></g></g></g></g></g></g><g><g transform="matrix(1,0,0,1,236.96875,298.6953125)"><path transform="matrix(0.017,0,0,-0.017,0,0)" d="M146 266C146 526 243 632 301 700L282 726C225 675 60 542 60 266C60 159 85 58 133 -32C168 -99 200 -138 282 -215L301 -194C255 -137 146 -15 146 266Z" stroke="rgb(0,0,0)" stroke-opacity="1" stroke-width="8" fill="rgb(0,0,0)" fill-opacity="1"></path></g></g><g><g transform="matrix(1,0,0,1,242.6171875,298.1953125)"><path transform="matrix(0.017,0,0,-0.017,0,0)" d="M215 473C182 473 71 404 38 383L38 377L50 366L50 364C73 373 133 429 143 382C141 316 98 73 77 -6L77 -16C98 -6 127 3 149 9C165 134 177 423 351 426C396 426 421 402 421 356C424 186 303 -113 326 -275C350 -264 380 -255 405 -251C362 -129 495 274 497 382C499 444 459 473 400 473C324 473 255 424 210 367L210 369C226 433 242 473 215 473Z" stroke="rgb(0,0,0)" stroke-opacity="1" stroke-width="8" fill="rgb(0,0,0)" fill-opacity="1"></path></g></g><g><g transform="matrix(1,0,0,1,251.6484375,298.6953125)"><path transform="matrix(0.017,0,0,-0.017,0,0)" d="M51 726L32 700C87 636 187 526 187 266C187 -10 83 -131 32 -194L51 -215C104 -165 273 -23 273 265C273 542 108 675 51 726Z" stroke="rgb(0,0,0)" stroke-opacity="1" stroke-width="8" fill="rgb(0,0,0)" fill-opacity="1"></path></g></g></g></g></svg>
</svg>
