<svg xmlns="http://www.w3.org/2000/svg" width="322.752" height="239.382" viewBox="-72 -72 242.064 179.536"><g stroke-opacity=".7" stroke-width="1.2" stroke="currentColor" fill="currentColor" stroke-miterlimit="10"><g transform="matrix(1 0 0 -1 -65.003 90.33)" stroke-width="1.2" stroke="currentColor"><path d="M0 0v162h162V0H0Z" fill="none"></path><clipPath id="pgfd68ef8c4f81262891dbf42ceb7118398cp1"><path d="M0 0h162v162H0Z"></path></clipPath><g clip-path="url(#pgfd68ef8c4f81262891dbf42ceb7118398cp1)"><path d="M81 0v162" fill="none"></path><path d="M121.5 0v162" fill="none" stroke-dasharray="3.0,3.0" stroke="#dd143c"></path><path d="m0 8.987 1.636.118 1.637.131 1.636.145 1.636.16 1.637.175 1.636.192 1.636.21 1.637.226 1.636.249 1.637.268 1.636.29 1.636.308 1.637.333 1.636.356 1.636.378 1.637.402 1.636.422 1.636.449 1.637.468 1.636.491 1.636.511L36 15.8l1.636.549 1.636.566 1.637.58 1.636.593 1.637.604 1.636.61 1.636.619 1.637.618 1.636.618 1.636.612 1.637.606 1.636.596 1.636.58 1.637.561 1.636.54 1.636.513 1.637.486 1.636.453 1.636.418 1.637.38 1.636.34 1.637.294 1.636.25 1.636.2 1.637.154 1.636.103 1.636.05h1.637l1.636-.05 1.636-.103 1.637-.153 1.636-.2 1.636-.25 1.637-.296 1.636-.34 1.636-.379 1.637-.418 1.636-.453 1.637-.484 1.636-.516 1.636-.539 1.637-.561 1.636-.58 1.636-.596 1.637-.606 1.636-.612 1.636-.618 1.637-.618 1.636-.617 1.636-.612 1.637-.604 1.636-.592 1.636-.581 1.637-.566 1.636-.55 1.637-.529 1.636-.511 1.636-.49 1.637-.47 1.636-.446 1.636-.424 1.637-.402 1.636-.378 1.636-.356 1.637-.333 1.636-.309 1.636-.289 1.637-.268 1.636-.25 1.636-.226 1.637-.21 1.636-.191 1.637-.175 1.636-.16 1.636-.145 1.637-.13 1.636-.119" fill="none"></path><path d="M0 8.1h162" fill="none" stroke="none" fill-opacity="0" stroke-opacity="0"></path><path d="m0 33.287 1.636.118 1.637.131 1.636.145 1.636.16 1.637.175 1.636.192 1.636.21 1.637.226 1.636.249 1.637.268 1.636.29 1.636.308 1.637.333 1.636.356 1.636.378 1.637.402 1.636.422 1.636.449 1.637.468 1.636.49 1.636.512L36 40.1l1.636.549 1.636.565 1.637.58 1.636.594 1.637.604 1.636.61 1.636.618 1.637.618 1.636.619 1.636.612 1.637.606 1.636.596 1.636.58 1.637.561 1.636.54 1.636.513 1.637.486 1.636.453 1.636.418 1.637.38 1.636.34 1.637.294 1.636.25 1.636.2 1.637.154 1.636.103 1.636.05h1.637l1.636-.05 1.636-.103 1.637-.153 1.636-.2 1.636-.25 1.637-.296 1.636-.34 1.636-.38 1.637-.417 1.636-.453 1.637-.484 1.636-.516 1.636-.539 1.637-.562 1.636-.58 1.636-.595 1.637-.606 1.636-.612 1.636-.619 1.637-.618 1.636-.616 1.636-.612 1.637-.604 1.636-.592 1.636-.582 1.637-.565 1.636-.55 1.637-.529 1.636-.511 1.636-.49 1.637-.47 1.636-.446 1.636-.424 1.637-.402 1.636-.378 1.636-.356 1.637-.333 1.636-.309 1.636-.289 1.637-.268 1.636-.25 1.636-.226 1.637-.21 1.636-.191 1.637-.175 1.636-.16 1.636-.145 1.637-.13 1.636-.119" fill="none"></path><path d="M0 32.4h162" fill="none" stroke="none" fill-opacity="0" stroke-opacity="0"></path><path d="m0 57.588 1.636.118 1.637.13 1.636.145 1.636.16 1.637.175 1.636.192 1.636.21 1.637.226 1.636.249 1.637.268 1.636.29 1.636.309 1.637.333 1.636.355 1.636.378 1.637.402 1.636.422 1.636.449 1.637.468 1.636.491 1.636.511L36 64.4l1.636.55 1.636.565 1.637.58 1.636.593 1.637.604 1.636.61 1.636.619 1.637.618 1.636.618 1.636.612 1.637.606 1.636.596 1.636.58 1.637.561 1.636.54 1.636.513 1.637.487 1.636.452 1.636.418 1.637.38 1.636.34 1.637.295 1.636.25 1.636.2 1.637.153 1.636.103 1.636.05h1.637l1.636-.05 1.636-.103 1.637-.153 1.636-.2 1.636-.25 1.637-.296 1.636-.339 1.636-.38 1.637-.418 1.636-.452 1.637-.485 1.636-.515 1.636-.54 1.637-.561 1.636-.58 1.636-.596 1.637-.606 1.636-.612 1.636-.618 1.637-.618 1.636-.616 1.636-.613 1.637-.604 1.636-.591 1.636-.582 1.637-.566 1.636-.55 1.637-.529 1.636-.51 1.636-.492 1.637-.468 1.636-.447 1.636-.424 1.637-.402 1.636-.378 1.636-.355 1.637-.333 1.636-.31 1.636-.289 1.637-.268 1.636-.249 1.636-.226 1.637-.21 1.636-.192 1.637-.175 1.636-.16 1.636-.144 1.637-.131 1.636-.118" fill="none"></path><path d="M0 56.7h162" fill="none" stroke="none" fill-opacity="0" stroke-opacity="0"></path><path d="m0 81.888 1.636.118 1.637.131 1.636.145 1.636.16 1.637.174 1.636.192 1.636.21 1.637.227 1.636.248 1.637.269L18 84.05l1.636.309 1.637.333 1.636.356 1.636.378 1.637.401 1.636.423 1.636.448 1.637.469 1.636.49 1.636.512 1.637.529 1.636.55 1.636.565 1.637.58 1.636.594 1.637.604 1.636.61 1.636.618 1.637.618 1.636.618 1.636.612 1.637.607 1.636.595 1.636.58 1.637.562 1.636.539 1.636.513 1.637.487 1.636.452 1.636.419 1.637.38 1.636.339 1.637.295 1.636.25 1.636.2 1.637.154 1.636.103 1.636.05h1.637l1.636-.05 1.636-.103 1.637-.154 1.636-.2 1.636-.25 1.637-.295 1.636-.34 1.636-.38 1.637-.418 1.636-.452 1.637-.485 1.636-.515 1.636-.54 1.637-.56 1.636-.58 1.636-.596 1.637-.607 1.636-.612 1.636-.618 1.637-.618 1.636-.616 1.636-.612 1.637-.604 1.636-.592 1.636-.582 1.637-.566 1.636-.55 1.637-.528 1.636-.511 1.636-.491 1.637-.469 1.636-.446 1.636-.425 1.637-.401 1.636-.378 1.636-.356 1.637-.333 1.636-.31 1.636-.288 1.637-.269 1.636-.248 1.636-.227 1.637-.21 1.636-.191 1.637-.176 1.636-.16 1.636-.144 1.637-.13 1.636-.12" fill="none"></path><path d="M0 81h162" fill="none" stroke="none" fill-opacity="0" stroke-opacity="0"></path><path d="m0 106.188 1.636.118 1.637.13 1.636.146 1.636.16 1.637.174 1.636.192 1.636.21 1.637.226 1.636.25 1.637.268 1.636.289 1.636.309 1.637.333 1.636.356 1.636.377 1.637.402 1.636.422 1.636.45 1.637.468 1.636.49 1.636.512 1.637.529 1.636.55 1.636.565 1.637.58 1.636.593 1.637.605 1.636.61 1.636.618 1.637.618 1.636.618 1.636.612 1.637.606 1.636.596 1.636.58 1.637.562 1.636.539 1.636.513 1.637.487 1.636.452 1.636.419 1.637.38 1.636.339 1.637.295 1.636.25 1.636.2 1.637.154 1.636.103 1.636.05h1.637l1.636-.05 1.636-.103 1.637-.154 1.636-.2 1.636-.25 1.637-.295 1.636-.34 1.636-.38 1.637-.418 1.636-.452 1.637-.485 1.636-.515 1.636-.54 1.637-.56 1.636-.58 1.636-.597 1.637-.606 1.636-.612 1.636-.618 1.637-.618 1.636-.616 1.636-.612 1.637-.605 1.636-.591 1.636-.582 1.637-.566 1.636-.55 1.637-.528 1.636-.511 1.636-.491 1.637-.469 1.636-.446 1.636-.425 1.637-.402 1.636-.377 1.636-.356 1.637-.333 1.636-.31 1.636-.288 1.637-.269 1.636-.249 1.636-.226 1.637-.21 1.636-.192 1.637-.175 1.636-.16 1.636-.144 1.637-.131 1.636-.118" fill="none"></path><path d="M0 105.3h162" fill="none" stroke="none" fill-opacity="0" stroke-opacity="0"></path><path d="m0 130.488 1.636.118 1.637.131 1.636.145 1.636.16 1.637.175 1.636.192 1.636.21 1.637.226 1.636.249 1.637.268 1.636.289 1.636.31 1.637.332 1.636.356 1.636.378 1.637.402 1.636.422 1.636.449 1.637.468 1.636.49 1.636.512 1.637.53 1.636.549 1.636.565 1.637.58 1.636.594 1.637.604 1.636.61 1.636.618 1.637.618 1.636.619 1.636.612 1.637.606 1.636.596 1.636.58 1.637.561 1.636.54 1.636.512 1.637.487 1.636.453 1.636.418 1.637.38 1.636.339 1.637.295 1.636.25 1.636.2 1.637.154 1.636.103 1.636.05h1.637l1.636-.05 1.636-.103 1.637-.154 1.636-.2 1.636-.25 1.637-.295 1.636-.34 1.636-.38 1.637-.417 1.636-.453 1.637-.484 1.636-.516 1.636-.539 1.637-.562 1.636-.58 1.636-.595 1.637-.606 1.636-.612 1.636-.619 1.637-.618 1.636-.616 1.636-.612 1.637-.604 1.636-.592 1.636-.582 1.637-.565 1.636-.55 1.637-.529 1.636-.511 1.636-.49 1.637-.47 1.636-.446 1.636-.424 1.637-.402 1.636-.378 1.636-.356 1.637-.333 1.636-.309 1.636-.289 1.637-.268 1.636-.25 1.636-.226 1.637-.21 1.636-.191 1.637-.175 1.636-.16 1.636-.145 1.637-.13 1.636-.119" fill="none"></path><path d="M0 129.6h162" fill="none" stroke="none" fill-opacity="0" stroke-opacity="0"></path></g></g><text y="90.329" x="-65.003" font-family="cmr10" font-size="10" transform="translate(80.013 9.408)" stroke="none">0</text><g stroke="none"><text y="90.329" x="-65.003" font-family="cmr10" font-size="10" transform="translate(109.296 11.104)">©</text><text y="86.701" x="-57.781" font-family="cmsy7" font-size="7" transform="translate(109.296 11.104)">¡</text><text y="86.701" x="-51.531" font-family="cmr7" font-size="7" transform="translate(109.296 11.104)">1</text><text y="90.329" x="-47.045" font-family="cmr10" font-size="10" transform="translate(109.296 11.104)">(</text><text y="90.329" x="-43.156" font-family="cmmi10" font-size="10" transform="translate(109.296 11.104)">®</text><text y="90.329" x="-36.722" font-family="cmmi10" font-size="10" transform="translate(109.296 11.104)">=n</text><text y="90.329" x="-25.72" font-family="cmr10" font-size="10" transform="translate(109.296 11.104)">)</text></g><path d="M105.023 84.639c1.5-.75 2.5-2.5 2.5-5V24.198c0-2.5 1-4.25 2.5-5-1.5-.75-2.5-2.5-2.5-5v-55.442c0-2.5-1-4.25-2.5-5" fill="none"></path><g font-family="cmr10" font-size="10" stroke="none"><text y="90.329" x="-60.301" transform="translate(174.559 -73.66)">cum</text><text y="90.329" x="-42.245" transform="translate(174.559 -73.66)">ulativ</text><text y="90.329" x="-17.245" transform="translate(174.559 -73.66)">e</text><text y="102.329" x="-43.773" transform="translate(174.559 -73.66)">tail</text></g></g></svg>
