<svg xmlns="http://www.w3.org/2000/svg" width="245.509" height="241.057" viewBox="-72 -72 184.132 180.793"><g stroke-opacity=".7" stroke-width="1.2" stroke="currentColor" fill="currentColor" stroke-miterlimit="10"><g transform="matrix(1 0 0 -1 -50.738 90.33)" stroke-width="1.2" stroke="currentColor"><path d="M0 0v162h162V0H0Z" fill="none"></path><clipPath id="pgf7c9b8147b70a2bbcfe545df716d1fbd5cp1"><path d="M0 0h162v162H0Z"></path></clipPath><g clip-path="url(#pgf7c9b8147b70a2bbcfe545df716d1fbd5cp1)"><path d="m0 0 1.636 1.636 1.636 1.636L4.91 4.91l1.636 1.636L8.18 8.18l1.636 1.636 1.636 1.636 1.637 1.637 1.636 1.636 1.636 1.636 1.636 1.636 1.636 1.636 1.637 1.637 1.636 1.636 1.636 1.636 1.636 1.636 1.636 1.636 1.636 1.636 1.637 1.637 1.636 1.636 1.636 1.636 1.636 1.636 1.636 1.636 1.637 1.637 1.636 1.636 1.636 1.636 1.636 1.636 1.636 1.636 1.637 1.637 1.636 1.636 1.636 1.636 1.636 1.636 1.636 1.636 1.637 1.637 1.636 1.636 1.636 1.636 1.636 1.636 1.636 1.636 1.637 1.637 1.636 1.636 1.636 1.636 1.636 1.636 1.636 1.636 1.637 1.637 1.636 1.636 1.636 1.636L76.9 76.9l1.636 1.636 1.636 1.636 1.637 1.637 1.636 1.636 1.636 1.636 1.636 1.636 1.636 1.636 1.637 1.637 1.636 1.636 1.636 1.636 1.636 1.636 1.636 1.636 1.637 1.637 1.636 1.636 1.636 1.636 1.636 1.636 1.636 1.636 1.637 1.637 1.636 1.636 1.636 1.636 1.636 1.636 1.636 1.636 1.637 1.637 1.636 1.636 1.636 1.636 1.636 1.636 1.636 1.636 1.637 1.637 1.636 1.636 1.636 1.636 1.636 1.636 1.636 1.636 1.637 1.637 1.636 1.636 1.636 1.636 1.636 1.636 1.636 1.636 1.636 1.636 1.637 1.637 1.636 1.636 1.636 1.636 1.636 1.636 1.636 1.636 1.637 1.637 1.636 1.636 1.636 1.636 1.636 1.636 1.636 1.636 1.637 1.637 1.636 1.636 1.636 1.636 1.636 1.636" fill="none"></path><path d="m0 0 1.636.573 1.636.572 1.637.573 1.636.573 1.636.572 1.636.573 1.636.573 1.637.572 1.636.573 1.636.573 1.636.572 1.636.573 1.637.573 1.636.572 1.636.573 1.636.573 1.636.572 1.636.573 1.637.573 1.636.572 1.636.573 1.636.573 1.636.572 1.637.573 1.636.573 1.636.572 1.636.573 1.636.573 1.637.572 1.636.573 1.636.573 1.636.572 1.636.573 1.637.573 1.636.572 1.636.573 1.636.573 1.636.572 1.637.573 1.636.573 1.636.572 1.636.573 1.636.573 1.637.572 1.636.573 1.636.573 1.636.572 1.636.573 1.636.573 1.637.572 1.636.573 1.636.573 1.636.572 1.636.573 1.637.573 1.636.572 1.636.573 1.636.573 1.636.572 1.637.573 1.636.573 1.636.572 1.636.573 1.636.573 1.637.572 1.636.573 1.636.573 1.636.572 1.636.573 1.637.573 1.636.572 1.636.573 1.636.573 1.636.572 1.637.573 1.636.573 1.636.572 1.636.573 1.636.573 1.637.572 1.636.573 1.636.573 1.636.572 1.636.573 1.636.573 1.637.572 1.636.573 1.636.573 1.636.572 1.636.573 1.637.573 1.636.572 1.636.573 1.636.573 1.636.572 1.637.573 1.636.573 1.636.572 1.636.573" fill="none" stroke-dasharray="3.0,3.0"></path><path d="M64.8 0v162" fill="none" stroke-dasharray="3.0,3.0" stroke="#dd143c"></path></g><path d="M18.2 5.214a2 2 0 1 1-4 0 2 2 0 0 1 4 0ZM34.4 11.984a2 2 0 1 1-4 0 2 2 0 0 1 4 0ZM50.6 20.594a2 2 0 1 1-4 0 2 2 0 0 1 4 0ZM66.8 21.08a2 2 0 1 1-4 0 2 2 0 0 1 4 0ZM83 37.269a2 2 0 1 1-4 0 2 2 0 0 1 4 0ZM99.2 63.215a2 2 0 1 1-4 0 2 2 0 0 1 4 0ZM115.4 69.324a2 2 0 1 1-4 0 2 2 0 0 1 4 0ZM131.6 86.146a2 2 0 1 1-4 0 2 2 0 0 1 4 0ZM147.8 87.649a2 2 0 1 1-4 0 2 2 0 0 1 4 0Zm-2 0" fill="#ff8000"></path><g stroke="none"><text y="89.73" x="-32.539" font-family="cmmi10" font-size="10" transform="matrix(0 1 1 0 -100.29 106.233)">p</text><text y="91.535" x="-27.507" font-family="cmr7" font-size="7" transform="matrix(0 1 1 0 -100.29 106.233)">(</text><text y="91.535" x="-24.382" font-family="cmmi7" font-size="7" transform="matrix(0 1 1 0 -100.29 106.233)">i</text><text y="91.535" x="-21.553" font-family="cmr7" font-size="7" transform="matrix(0 1 1 0 -100.29 106.233)">)</text></g><g fill="white"><path d="M3.84 116.27h93.69v41.889H3.84Z"></path><g stroke="none" fill="currentColor"><path d="M7.44 149.937H24.513" fill="none" stroke="currentColor"></path><text y="64.285" x="-14.867" font-family="cmr10" font-size="10" transform="matrix(1 0 0 -1 41.98 211.5)" stroke="none">uniform</text><path d="M7.44 137.214H24.513" fill="none" stroke-dasharray="3.0,3.0" stroke="currentColor"></path><g font-family="cmmi10" font-size="10" stroke="none"><text y="77.007" x="-14.867" transform="matrix(1 0 0 -1 41.98 211.222)">α</text><text y="77.007" x="-8.433" transform="matrix(1 0 0 -1 41.98 211.222)">i/n</text></g><path d="M17.977 124.492a2 2 0 1 1-4 0 2 2 0 0 1 4 0Zm-2 0" fill="#ff8000" stroke="currentColor"></path><g font-family="cmr10" font-size="10" stroke="none"><text y="89.73" x="-14.867" transform="matrix(1 0 0 -1 41.98 211.5)">sorted</text><text y="89.73" x="15.217" transform="matrix(1 0 0 -1 41.98 211.5)">p-v</text><text y="89.73" x="28.828" transform="matrix(1 0 0 -1 41.98 211.5)">alues</text></g></g></g></g><g stroke="none"><text y="86.392" x="-49.059" font-family="cmr7" font-size="7" transform="translate(11.977 11.412)">1</text><path d="M-37.56 99.042h4.942v.4h-4.943z"></path><text y="93.778" x="-49.538" font-family="cmmi7" font-size="7" transform="translate(11.977 11.412)">n</text></g><g stroke="none"><text y="86.392" x="-49.059" font-family="cmr7" font-size="7" transform="translate(29.049 11.412)">2</text><path d="M-20.49 99.042h4.944v.4h-4.943z"></path><text y="93.778" x="-49.538" font-family="cmmi7" font-size="7" transform="translate(29.049 11.412)">n</text></g><g stroke="none"><text y="86.392" x="-49.538" font-family="cmmi7" font-size="7" transform="translate(142.86 9.915)">n</text><path d="M93.322 97.545h4.943v.4h-4.943z"></path><text y="93.778" x="-49.538" font-family="cmmi7" font-size="7" transform="translate(142.86 9.915)">n</text></g><g fill="#dc143c" stroke="none"><text y="90.329" x="-50.738" font-family="cmr10" font-size="10" transform="translate(43.463 11.178)">BH:</text><text y="86.23" x="-28.843" font-family="cmmi7" font-size="7" transform="translate(43.463 11.178)">i</text><text y="87.23" x="-26.014" font-family="cmr5" font-size="5" transform="translate(43.463 11.178)">0</text><path d="M14.62 98.808h6.732v.4H14.62z"></path><text y="93.778" x="-27.949" font-family="cmmi7" font-size="7" transform="translate(43.463 11.178)">n</text></g></g></svg>
