<svg xmlns="http://www.w3.org/2000/svg" width="311.142" height="241.057" viewBox="-72 -72 233.356 180.793"><g stroke-opacity=".7" stroke-width="1.2" stroke="currentColor" fill="currentColor" stroke-miterlimit="10"><g transform="matrix(1 0 0 -1 -1.513 90.33)" stroke-width="1.2" stroke="currentColor"><path d="M0 0v162h162V0H0Z" fill="none"></path><clipPath id="pgf91f1a382d52ccd3447a884e5f3e1a739cp1"><path d="M0 0h162v162H0Z"></path></clipPath><g clip-path="url(#pgf91f1a382d52ccd3447a884e5f3e1a739cp1)"><path d="m0 0 1.636 1.636 1.636 1.636L4.91 4.91l1.636 1.636L8.18 8.18l1.636 1.636 1.636 1.636 1.637 1.637 1.636 1.636 1.636 1.636 1.636 1.636 1.636 1.636 1.637 1.637 1.636 1.636 1.636 1.636 1.636 1.636 1.636 1.636 1.636 1.636 1.637 1.637 1.636 1.636 1.636 1.636 1.636 1.636 1.636 1.636 1.637 1.637 1.636 1.636 1.636 1.636 1.636 1.636 1.636 1.636 1.637 1.637 1.636 1.636 1.636 1.636 1.636 1.636 1.636 1.636 1.637 1.637 1.636 1.636 1.636 1.636 1.636 1.636 1.636 1.636 1.637 1.637 1.636 1.636 1.636 1.636 1.636 1.636 1.636 1.636 1.637 1.637 1.636 1.636 1.636 1.636L76.9 76.9l1.636 1.636 1.636 1.636 1.637 1.637 1.636 1.636 1.636 1.636 1.636 1.636 1.636 1.636 1.637 1.637 1.636 1.636 1.636 1.636 1.636 1.636 1.636 1.636 1.637 1.637 1.636 1.636 1.636 1.636 1.636 1.636 1.636 1.636 1.637 1.637 1.636 1.636 1.636 1.636 1.636 1.636 1.636 1.636 1.637 1.637 1.636 1.636 1.636 1.636 1.636 1.636 1.636 1.636 1.637 1.637 1.636 1.636 1.636 1.636 1.636 1.636 1.636 1.636 1.637 1.637 1.636 1.636 1.636 1.636 1.636 1.636 1.636 1.636 1.636 1.636 1.637 1.637 1.636 1.636 1.636 1.636 1.636 1.636 1.636 1.636 1.637 1.637 1.636 1.636 1.636 1.636 1.636 1.636 1.636 1.636 1.637 1.637 1.636 1.636 1.636 1.636 1.636 1.636" fill="none"></path><path d="M0 27.54h162" fill="none" stroke-dasharray="3.0,3.0" stroke="gray"></path><path d="M0 8.1h162" fill="none" stroke-dasharray="3.0,3.0" stroke="#dd143c"></path></g><path d="M18.2 17.426a2 2 0 1 1-4 0 2 2 0 0 1 4 0ZM34.4 34.48a2 2 0 1 1-4 0 2 2 0 0 1 4 0ZM50.6 51.48a2 2 0 1 1-4 0 2 2 0 0 1 4 0ZM66.8 64.686a2 2 0 1 1-4 0 2 2 0 0 1 4 0ZM83 83.32a2 2 0 1 1-4 0 2 2 0 0 1 4 0ZM99.2 105.136a2 2 0 1 1-4 0 2 2 0 0 1 4 0ZM115.4 118.78a2 2 0 1 1-4 0 2 2 0 0 1 4 0ZM131.6 136.023a2 2 0 1 1-4 0 2 2 0 0 1 4 0ZM147.8 146.88a2 2 0 1 1-4 0 2 2 0 0 1 4 0Zm-2 0" fill="#0ff"></path><path d="M18.2 4.328a2 2 0 1 1-4 0 2 2 0 0 1 4 0ZM34.4 8.82a2 2 0 1 1-4 0 2 2 0 0 1 4 0ZM50.6 15.971a2 2 0 1 1-4 0 2 2 0 0 1 4 0ZM66.8 18.918a2 2 0 1 1-4 0 2 2 0 0 1 4 0ZM83 24.606a2 2 0 1 1-4 0 2 2 0 0 1 4 0ZM99.2 30.718a2 2 0 1 1-4 0 2 2 0 0 1 4 0ZM115.4 40.614a2 2 0 1 1-4 0 2 2 0 0 1 4 0ZM131.6 42.46a2 2 0 1 1-4 0 2 2 0 0 1 4 0ZM147.8 45.76a2 2 0 1 1-4 0 2 2 0 0 1 4 0Zm-2 0" fill="#ff8000"></path><text y="89.73" x="16.686" font-family="cmmi10" font-size="10" transform="matrix(0 1 1 0 -100.29 61.798)" stroke="none">p</text><g fill="var(--background-primary)"><path d="M3.84 129.27h67.362v28.889H3.84Z"></path><g stroke="none" fill="currentColor"><path d="M10.84 149.937a2 2 0 1 1-4 0 2 2 0 0 1 4 0Zm-2 0" fill="#0ff" stroke="currentColor"></path><g font-family="cmr10" font-size="10" stroke="none"><text y="77.285" x="20.086" transform="matrix(1 0 0 -1 -7.245 224.5)">No</text><text y="77.285" x="35.919" transform="matrix(1 0 0 -1 -7.245 224.5)">signal</text></g><path d="M10.84 137.492a2 2 0 1 1-4 0 2 2 0 0 1 4 0Zm-2 0" fill="#ff8000" stroke="currentColor"></path><g font-family="cmr10" font-size="10" stroke="none"><text y="89.73" x="20.086" transform="matrix(1 0 0 -1 -7.245 224.5)">Clear</text><text y="89.73" x="46.78" transform="matrix(1 0 0 -1 -7.245 224.5)">Signal</text></g></g></g></g><g stroke="none"><text y="86.392" x=".165" font-family="cmr7" font-size="7" transform="translate(11.977 11.412)">1</text><path d="M11.664 99.042h4.943v.4h-4.943z"></path><text y="93.778" x="-.313" font-family="cmmi7" font-size="7" transform="translate(11.977 11.412)">n</text></g><g stroke="none"><text y="86.392" x=".165" font-family="cmr7" font-size="7" transform="translate(29.049 11.412)">2</text><path d="M28.736 99.042h4.943v.4h-4.943z"></path><text y="93.778" x="-.313" font-family="cmmi7" font-size="7" transform="translate(29.049 11.412)">n</text></g><g stroke="none"><text y="86.392" x="-.313" font-family="cmmi7" font-size="7" transform="translate(142.86 9.915)">n</text><path d="M142.547 97.545h4.943v.4h-4.943z"></path><text y="93.778" x="-.313" font-family="cmmi7" font-size="7" transform="translate(142.86 9.915)">n</text></g><text y="90.329" x="-1.513" font-family="cmmi10" font-size="10" transform="translate(-9.398 -26.3)" stroke="none">®</text><g fill="#dc143c" stroke="none"><text y="90.329" x="-1.513" font-family="cmr10" font-size="10" transform="translate(-64.09 -6.784)">Bonferroni:</text><text y="86.392" x="53.215" font-family="cmmi7" font-size="7" transform="translate(-64.09 -6.784)">®</text><path d="M-10.875 80.846h5.199v.4h-5.2z"></path><text y="93.778" x="53.342" font-family="cmmi7" font-size="7" transform="translate(-64.09 -6.784)">n</text></g></g></svg>
