<svg width="540" height="540" viewBox="0 0 540 540" fill="none" xmlns="http://www.w3.org/2000/svg">
<g clip-path="url(#clip0_2202_282)">
<circle cx="270" cy="270" r="270" fill="#F9F9F9"/>
<circle cx="270" cy="270" r="250" fill="#3A7668"/>
<circle cx="170.854" cy="169.85" r="60" transform="rotate(-45 170.854 169.85)" fill="#FEFEFE"/>
<circle cx="170.641" cy="369.636" r="45" transform="rotate(-45 170.641 369.636)" fill="#FEFEFE"/>
<circle cx="370.641" cy="169.636" r="45" transform="rotate(-45 370.641 169.636)" fill="#FEFEFE"/>
<circle cx="370.854" cy="369.85" r="60" transform="rotate(-45 370.854 369.85)" fill="#FEFEFE"/>
<line x1="160.398" y1="169.997" x2="379.602" y2="169.997" stroke="white" stroke-width="20"/>
<line x1="160.398" y1="369.997" x2="379.602" y2="369.997" stroke="white" stroke-width="20"/>
<line x1="170.501" y1="379.602" x2="170.501" y2="160.398" stroke="white" stroke-width="20"/>
<line x1="370.501" y1="379.602" x2="370.501" y2="160.398" stroke="white" stroke-width="20"/>
<mask id="mask0_2202_282" style="mask-type:alpha" maskUnits="userSpaceOnUse" x="8" y="0" width="540" height="540">
<circle cx="278" cy="270" r="270" fill="#F9F9F9"/>
</mask>
<g mask="url(#mask0_2202_282)">
<g opacity="0.35">
<circle cx="514.17" cy="527.198" r="18.8894" fill="white"/>
<circle cx="514.17" cy="527.198" r="20.3894" stroke="white" stroke-opacity="0.32" stroke-width="3"/>
<circle cx="94" cy="248" r="24" fill="white"/>
<circle cx="94" cy="248" r="25.5" stroke="white" stroke-opacity="0.32" stroke-width="3"/>
<circle cx="89.5" cy="364.5" r="23.5" fill="white"/>
<circle cx="89.5" cy="364.5" r="25" stroke="white" stroke-opacity="0.32" stroke-width="3"/>
<circle cx="258.5" cy="449.5" r="35.5" fill="white"/>
<circle cx="258.5" cy="449.5" r="37" stroke="white" stroke-opacity="0.32" stroke-width="3"/>
<circle cx="459" cy="331" r="19" fill="white"/>
<circle cx="459" cy="331" r="20.5" stroke="white" stroke-opacity="0.32" stroke-width="3"/>
<circle cx="448.5" cy="240.5" r="36.5" fill="white"/>
<circle cx="448.5" cy="240.5" r="38" stroke="white" stroke-opacity="0.32" stroke-width="3"/>
<circle cx="242" cy="284" r="41" fill="white"/>
<circle cx="242" cy="284" r="42.5" stroke="white" stroke-opacity="0.32" stroke-width="3"/>
<circle cx="254.5" cy="96.5" r="36.5" fill="white"/>
<circle cx="254.5" cy="96.5" r="38" stroke="white" stroke-opacity="0.32" stroke-width="3"/>
<line x1="85.2145" y1="364.548" x2="264.214" y2="449.548" stroke="white"/>
<path d="M89 367L258 460" stroke="white" stroke-width="20"/>
<path d="M261 456.5L371 370.5" stroke="white" stroke-width="20"/>
<path d="M259 458.5L239 291" stroke="white" stroke-width="20"/>
<path d="M370.5 372.5L239.5 286" stroke="white" stroke-width="20"/>
<path d="M237.5 285.5L170.5 171" stroke="white" stroke-width="20"/>
<path d="M237.5 289.5L93.5 248.5" stroke="white" stroke-width="20"/>
<line x1="169.458" y1="170.662" x2="102.458" y2="245.662" stroke="white" stroke-width="20"/>
<path d="M170 370L92 248" stroke="white" stroke-width="20"/>
<path d="M87.5 365.5L91 247.5" stroke="white" stroke-width="20"/>
<path d="M372.5 169L237.5 288L450 241" stroke="white" stroke-width="20"/>
<path d="M371 171L449.5 242.5" stroke="white" stroke-width="20"/>
<path d="M449.5 242.5L460.5 330" stroke="white" stroke-width="20"/>
<path d="M172.681 172.186L251 90.5" stroke="white" stroke-width="20"/>
<path d="M369.877 168.588L251 91.5" stroke="white" stroke-width="20"/>
<path d="M460.5 333L372 370" stroke="white" stroke-width="20"/>
</g>
</g>
</g>
<defs>
<clipPath id="clip0_2202_282">
<rect width="540" height="540" fill="white"/>
</clipPath>
</defs>
</svg>
