<svg width="540" height="540" viewBox="0 0 540 540" fill="none" xmlns="http://www.w3.org/2000/svg">
<g clip-path="url(#clip0_224_270)">
<circle cx="270" cy="270" r="270" fill="#F9F9F9"/>
<circle cx="270" cy="270" r="250" fill="url(#paint0_radial_224_270)"/>
<circle cx="170.854" cy="169.85" r="60" transform="rotate(-45 170.854 169.85)" fill="#FEFEFE"/>
<circle cx="170.641" cy="369.637" r="45" transform="rotate(-45 170.641 369.637)" fill="#FEFEFE"/>
<circle cx="370.641" cy="169.637" r="45" transform="rotate(-45 370.641 169.637)" fill="#FEFEFE"/>
<circle cx="370.854" cy="369.85" r="60" transform="rotate(-45 370.854 369.85)" fill="#FEFEFE"/>
<line x1="160.398" y1="169.997" x2="379.602" y2="169.997" stroke="white" stroke-width="20"/>
<line x1="160.398" y1="369.997" x2="379.602" y2="369.997" stroke="white" stroke-width="20"/>
<line x1="170.501" y1="379.602" x2="170.501" y2="160.398" stroke="white" stroke-width="20"/>
<line x1="370.501" y1="379.602" x2="370.501" y2="160.398" stroke="white" stroke-width="20"/>
<circle cx="171" cy="370" r="64" stroke="white" stroke-opacity="0.5" stroke-width="4" stroke-dasharray="8 8"/>
<circle cx="186" cy="355" r="98" stroke="white" stroke-opacity="0.5" stroke-width="4" stroke-dasharray="8 8"/>
<circle cx="194.5" cy="337.5" r="132.5" stroke="white" stroke-opacity="0.5" stroke-width="4" stroke-dasharray="8 8"/>
<circle cx="209" cy="320" r="182" stroke="white" stroke-opacity="0.5" stroke-width="4" stroke-dasharray="8 8"/>
<circle cx="250.5" cy="289.5" r="228.5" stroke="white" stroke-opacity="0.5" stroke-width="4" stroke-dasharray="8 8"/>
<path d="M340.5 195.5L312.5 278L278.5 328L232.5 351.5L167 366.5" stroke="white" stroke-opacity="0.5" stroke-width="6"/>
</g>
<defs>
<radialGradient id="paint0_radial_224_270" cx="0" cy="0" r="1" gradientUnits="userSpaceOnUse" gradientTransform="translate(176.5 368.5) rotate(-45) scale(383.252)">
<stop stop-color="#AE4E1C"/>
<stop offset="1" stop-color="#C46D1B"/>
</radialGradient>
<clipPath id="clip0_224_270">
<rect width="540" height="540" fill="white"/>
</clipPath>
</defs>
</svg>
