<svg width="540" height="540" viewBox="0 0 540 540" fill="none" xmlns="http://www.w3.org/2000/svg">
<g clip-path="url(#clip0_217_170)">
<circle cx="270" cy="270" r="270" fill="#F9F9F9"/>
<path d="M520 270C520 408.071 408.071 520 270 520C131.929 520 20 408.071 20 270C20 131.929 131.929 20 270 20C408.071 20 520 131.929 520 270Z" fill="#006CA6"/>
<circle cx="170.854" cy="169.85" r="60" transform="rotate(-45 170.854 169.85)" fill="#FEFEFE"/>
<circle cx="170.641" cy="369.637" r="45" transform="rotate(-45 170.641 369.637)" fill="#FEFEFE"/>
<circle cx="170.641" cy="369.637" r="47" transform="rotate(-45 170.641 369.637)" stroke="white" stroke-opacity="0.48" stroke-width="4"/>
<circle cx="370.641" cy="169.637" r="45" transform="rotate(-45 370.641 169.637)" fill="#FEFEFE"/>
<circle cx="370.641" cy="169.637" r="47" transform="rotate(-45 370.641 169.637)" stroke="white" stroke-opacity="0.48" stroke-width="4"/>
<circle cx="370.854" cy="369.85" r="60" transform="rotate(-45 370.854 369.85)" fill="#FEFEFE"/>
<line x1="160.398" y1="169.997" x2="379.602" y2="169.997" stroke="white" stroke-width="20"/>
<line x1="160.398" y1="369.997" x2="379.602" y2="369.997" stroke="white" stroke-width="20"/>
<line x1="170.501" y1="379.602" x2="170.501" y2="160.398" stroke="white" stroke-width="20"/>
<line x1="370.501" y1="379.602" x2="370.501" y2="160.398" stroke="white" stroke-width="20"/>
<circle cx="370.411" cy="172.861" r="20.6887" transform="rotate(90 370.411 172.861)" stroke="white" stroke-opacity="0.48" stroke-width="4"/>
<path d="M436.734 179.71C436.734 199.374 428.746 212.675 415.612 223.397C402.336 234.235 383.884 242.375 362.989 251.569C343.214 260.27 320.337 251.66 304.635 235.907C288.9 220.12 281.229 198.063 290.616 180.659C300.708 161.946 308.947 143.822 319.859 130.22C330.639 116.783 343.846 108.019 363.794 108.019C404.109 108.019 436.734 140.148 436.734 179.71Z" stroke="white" stroke-opacity="0.48" stroke-width="4"/>
<circle cx="175.756" cy="365.378" r="20.6887" transform="rotate(-90 175.756 365.378)" stroke="white" stroke-opacity="0.48" stroke-width="4"/>
<path d="M109.433 358.53C109.433 338.865 117.421 325.564 130.555 314.842C143.831 304.005 162.283 295.864 183.178 286.67C202.953 277.97 225.83 286.579 241.532 302.332C257.268 318.119 264.938 340.176 255.552 357.58C245.459 376.293 237.22 394.417 226.308 408.019C215.529 421.456 202.321 430.22 182.373 430.22C142.058 430.22 109.433 398.091 109.433 358.53Z" stroke="white" stroke-opacity="0.48" stroke-width="4"/>
<path d="M280.967 117.844C287.19 109.851 298.026 102.137 310.195 96.4096C321.975 90.8659 334.754 87.3019 345.417 87.0749L346.442 87.0632C407.399 87.4167 461.734 136.883 455.822 196.237C454.423 210.283 451.093 221.174 445.707 231.057C440.306 240.968 432.79 249.955 422.882 260.149C402.548 281.071 383.47 279.671 354.653 285.449C343.443 287.697 332.559 285.029 321.907 283.533C311.468 282.067 301.196 281.769 292.862 290.103C284.595 298.37 284.048 309.238 284.584 320.515C285.129 332.009 286.779 344.046 283.907 356.142C282.248 363.125 281.127 369.752 280.068 375.995C279.006 382.261 278.01 388.114 276.598 393.672C273.792 404.718 269.368 414.487 259.624 423.408C239.926 441.445 221.422 452.703 199.036 453.184L197.957 453.199L196.697 453.201L196.698 453.2C135.956 452.858 86.3614 402.67 86.0143 341.029H86.0129L86.0136 339.587C86.074 324.635 89.2704 314.717 94.6653 306.297C100.136 297.757 107.891 290.686 117.443 281.388C127.447 271.649 137.33 267.183 148.19 264.405C153.656 263.006 159.367 262.036 165.516 261.037C171.644 260.042 178.197 259.02 185.231 257.521C197.489 254.909 209.402 257.441 220.972 258.695C232.343 259.927 243.404 259.88 252.367 250.917C260.568 242.716 259.984 232.026 258.322 221.143C256.619 209.995 253.774 198.417 255.972 186.741C261.339 158.224 268.317 134.09 280.967 117.844Z" stroke="white" stroke-opacity="0.48" stroke-width="4"/>
<path d="M231.42 169.781C241.229 134.889 242.202 109.681 269.415 87.7559C293.092 68.68 319.779 65.5685 344.568 65.8377L344.569 65.8384C412.119 67.0252 469.126 123.26 472.673 194.005C473.465 209.797 473.317 223.014 470.595 235.336C467.882 247.614 462.59 259.091 452.963 271.339C442.188 285.046 430.23 291.671 416.68 296.256C409.864 298.562 402.666 300.345 394.964 302.261C387.285 304.17 379.132 306.205 370.536 308.997C362.011 311.767 354.512 311.202 346.661 311.721C338.857 312.237 331.21 313.88 323.657 321.432C316.029 329.059 314.82 337.461 314.677 346.034C314.533 354.694 315.41 363.223 312.578 372.437C302.762 404.368 301.248 426.791 276.673 447.619C252.401 468.189 222.621 470.078 197.442 470.395L195.021 470.421L193.835 470.424L193.835 470.423L192.423 470.408C124.876 469.217 69.0603 412.743 67.8538 344.206H67.8552L67.8338 342.583C67.7016 325.699 68.6705 312.069 72.3215 299.681C75.9612 287.331 82.302 276.104 93.0776 264.106C103.967 251.981 115.246 245.951 127.815 241.78C134.133 239.683 140.771 238.057 147.896 236.361C155 234.669 162.577 232.909 170.659 230.554C179.93 227.853 188.527 228.806 197.235 228.664C205.848 228.522 214.245 227.237 221.721 219.437C228.967 211.877 229.981 203.701 229.95 195.39C229.919 186.991 228.895 178.763 231.42 169.781Z" stroke="white" stroke-opacity="0.48" stroke-width="4"/>
<path d="M210.465 124.988C226.017 89.4312 235.22 64.6737 268.314 46.2281C297.308 30.0672 319.456 30.8029 353.083 34.5353C438.261 43.9894 503.652 102.103 508.288 189.635C509.332 209.341 510.672 223.345 509.608 236.126C508.557 248.761 505.146 260.159 496.582 274.407C476.803 307.312 448.922 311.364 412.215 326.694C400.521 331.578 389.638 331.812 378.782 333.09C367.981 334.362 357.466 336.683 347.576 346.126C337.247 355.987 334.501 366.881 332.935 378.179C331.36 389.538 330.963 401.021 325.699 413.198C311.252 446.615 308.091 470.892 279.556 491.386C250.262 512.425 225.03 512.668 188.337 509.648C103.102 502.634 40.2507 439.729 33.184 354.495C30.1474 317.869 31.5232 293.362 51.4369 263.154C70.4588 234.3 91.8963 226.257 124.018 211.454C136.171 205.853 148.031 205.785 159.758 204.686C171.401 203.594 182.735 201.455 192.579 191.126C202.397 180.827 204.168 169.92 204.894 158.856C205.624 147.737 205.337 136.711 210.465 124.988Z" stroke="white" stroke-opacity="0.48" stroke-width="4"/>
</g>
<defs>
<clipPath id="clip0_217_170">
<rect width="540" height="540" fill="white"/>
</clipPath>
</defs>
</svg>
