<svg width="540" height="540" viewBox="0 0 540 540" fill="none" xmlns="http://www.w3.org/2000/svg">
<g clip-path="url(#clip0_223_2)">
<circle cx="270" cy="270" r="270" fill="#F9F9F9"/>
<circle cx="270" cy="270" r="250" fill="#343434"/>
<mask id="mask0_223_2" style="mask-type:alpha" maskUnits="userSpaceOnUse" x="0" y="0" width="540" height="540">
<circle cx="270" cy="270" r="270" fill="#F9F9F9"/>
</mask>
<g mask="url(#mask0_223_2)">
</g>
<mask id="mask1_223_2" style="mask-type:alpha" maskUnits="userSpaceOnUse" x="-19" y="35" width="549" height="542">
<circle cx="135" cy="233" r="8" fill="white"/>
<circle cx="135" cy="233" r="9.5" stroke="white" stroke-opacity="0.32" stroke-width="3"/>
<circle cx="469" cy="324" r="8" fill="white"/>
<circle cx="469" cy="324" r="9.5" stroke="white" stroke-opacity="0.32" stroke-width="3"/>
<circle cx="262" cy="431" r="8" fill="white"/>
<circle cx="262" cy="431" r="9.5" stroke="white" stroke-opacity="0.32" stroke-width="3"/>
<circle cx="431" cy="316" r="8" fill="white"/>
<circle cx="431" cy="316" r="9.5" stroke="white" stroke-opacity="0.32" stroke-width="3"/>
<circle cx="377" cy="46" r="8" fill="white"/>
<circle cx="377" cy="46" r="9.5" stroke="white" stroke-opacity="0.32" stroke-width="3"/>
<circle cx="149" cy="177" r="8" fill="white"/>
<circle cx="149" cy="177" r="9.5" stroke="white" stroke-opacity="0.32" stroke-width="3"/>
<circle cx="89" cy="347" r="8" fill="white"/>
<circle cx="89" cy="347" r="9.5" stroke="white" stroke-opacity="0.32" stroke-width="3"/>
<circle cx="307" cy="339" r="8" fill="white"/>
<circle cx="307" cy="339" r="9.5" stroke="white" stroke-opacity="0.32" stroke-width="3"/>
<circle cx="275" cy="276" r="8" fill="white"/>
<circle cx="275" cy="276" r="9.5" stroke="white" stroke-opacity="0.32" stroke-width="3"/>
<circle cx="312" cy="477" r="8" fill="white"/>
<circle cx="312" cy="477" r="9.5" stroke="white" stroke-opacity="0.32" stroke-width="3"/>
<circle cx="104" cy="376" r="8" fill="white"/>
<circle cx="104" cy="376" r="9.5" stroke="white" stroke-opacity="0.32" stroke-width="3"/>
<circle cx="241" cy="283" r="8" fill="white"/>
<circle cx="241" cy="283" r="9.5" stroke="white" stroke-opacity="0.32" stroke-width="3"/>
<circle cx="420" cy="184" r="8" fill="white"/>
<circle cx="420" cy="184" r="9.5" stroke="white" stroke-opacity="0.32" stroke-width="3"/>
<circle cx="421" cy="350" r="8" fill="white"/>
<circle cx="421" cy="350" r="9.5" stroke="white" stroke-opacity="0.32" stroke-width="3"/>
<circle cx="343" cy="276" r="8" fill="white"/>
<circle cx="343" cy="276" r="9.5" stroke="white" stroke-opacity="0.32" stroke-width="3"/>
<circle cx="133" cy="164" r="8" fill="white"/>
<circle cx="133" cy="164" r="9.5" stroke="white" stroke-opacity="0.32" stroke-width="3"/>
<circle cx="191" cy="47" r="8" fill="white"/>
<circle cx="191" cy="47" r="9.5" stroke="white" stroke-opacity="0.32" stroke-width="3"/>
<circle cx="373" cy="505" r="8" fill="white"/>
<circle cx="373" cy="505" r="9.5" stroke="white" stroke-opacity="0.32" stroke-width="3"/>
<circle cx="164" cy="172" r="8" fill="white"/>
<circle cx="164" cy="172" r="9.5" stroke="white" stroke-opacity="0.32" stroke-width="3"/>
<circle cx="100" cy="486" r="8" fill="white"/>
<circle cx="100" cy="486" r="9.5" stroke="white" stroke-opacity="0.32" stroke-width="3"/>
<circle cx="165" cy="82" r="8" fill="white"/>
<circle cx="165" cy="82" r="9.5" stroke="white" stroke-opacity="0.32" stroke-width="3"/>
<circle cx="379" cy="420" r="8" fill="white"/>
<circle cx="379" cy="420" r="9.5" stroke="white" stroke-opacity="0.32" stroke-width="3"/>
<circle cx="80" cy="459" r="8" fill="white"/>
<circle cx="80" cy="459" r="9.5" stroke="white" stroke-opacity="0.32" stroke-width="3"/>
<circle cx="132" cy="161" r="8" fill="white"/>
<circle cx="132" cy="161" r="9.5" stroke="white" stroke-opacity="0.32" stroke-width="3"/>
<circle cx="326" cy="110" r="8" fill="white"/>
<circle cx="326" cy="110" r="9.5" stroke="white" stroke-opacity="0.32" stroke-width="3"/>
<circle cx="450" cy="160" r="8" fill="white"/>
<circle cx="450" cy="160" r="9.5" stroke="white" stroke-opacity="0.32" stroke-width="3"/>
<circle cx="439" cy="421" r="8" fill="white"/>
<circle cx="439" cy="421" r="9.5" stroke="white" stroke-opacity="0.32" stroke-width="3"/>
<circle cx="110" cy="46" r="8" fill="white"/>
<circle cx="110" cy="46" r="9.5" stroke="white" stroke-opacity="0.32" stroke-width="3"/>
<circle cx="350" cy="355" r="8" fill="white"/>
<circle cx="350" cy="355" r="9.5" stroke="white" stroke-opacity="0.32" stroke-width="3"/>
<circle cx="85" cy="221" r="8" fill="white"/>
<circle cx="85" cy="221" r="9.5" stroke="white" stroke-opacity="0.32" stroke-width="3"/>
<circle cx="293" cy="314" r="8" fill="white"/>
<circle cx="293" cy="314" r="9.5" stroke="white" stroke-opacity="0.32" stroke-width="3"/>
<circle cx="486" cy="261" r="8" fill="white"/>
<circle cx="486" cy="261" r="9.5" stroke="white" stroke-opacity="0.32" stroke-width="3"/>
<circle cx="185" cy="547" r="8" fill="white"/>
<circle cx="185" cy="547" r="9.5" stroke="white" stroke-opacity="0.32" stroke-width="3"/>
<circle cx="281" cy="253" r="8" fill="white"/>
<circle cx="281" cy="253" r="9.5" stroke="white" stroke-opacity="0.32" stroke-width="3"/>
<circle cx="400" cy="139" r="8" fill="white"/>
<circle cx="400" cy="139" r="9.5" stroke="white" stroke-opacity="0.32" stroke-width="3"/>
<circle cx="281" cy="525" r="8" fill="white"/>
<circle cx="281" cy="525" r="9.5" stroke="white" stroke-opacity="0.32" stroke-width="3"/>
<circle cx="212" cy="183" r="8" fill="white"/>
<circle cx="212" cy="183" r="9.5" stroke="white" stroke-opacity="0.32" stroke-width="3"/>
<circle cx="104" cy="63" r="8" fill="white"/>
<circle cx="104" cy="63" r="9.5" stroke="white" stroke-opacity="0.32" stroke-width="3"/>
<circle cx="430" cy="83" r="8" fill="white"/>
<circle cx="430" cy="83" r="9.5" stroke="white" stroke-opacity="0.32" stroke-width="3"/>
<circle cx="271" cy="298" r="8" fill="white"/>
<circle cx="271" cy="298" r="9.5" stroke="white" stroke-opacity="0.32" stroke-width="3"/>
<circle cx="167" cy="348" r="8" fill="white"/>
<circle cx="167" cy="348" r="9.5" stroke="white" stroke-opacity="0.32" stroke-width="3"/>
<circle cx="143" cy="465" r="8" fill="white"/>
<circle cx="143" cy="465" r="9.5" stroke="white" stroke-opacity="0.32" stroke-width="3"/>
<circle cx="177" cy="417" r="8" fill="white"/>
<circle cx="177" cy="417" r="9.5" stroke="white" stroke-opacity="0.32" stroke-width="3"/>
<circle cx="-8" cy="375" r="8" fill="white"/>
<circle cx="-8" cy="375" r="9.5" stroke="white" stroke-opacity="0.32" stroke-width="3"/>
<circle cx="430" cy="374" r="8" fill="white"/>
<circle cx="430" cy="374" r="9.5" stroke="white" stroke-opacity="0.32" stroke-width="3"/>
<circle cx="460" cy="247" r="8" fill="white"/>
<circle cx="460" cy="247" r="9.5" stroke="white" stroke-opacity="0.32" stroke-width="3"/>
<circle cx="299" cy="276" r="8" fill="white"/>
<circle cx="299" cy="276" r="9.5" stroke="white" stroke-opacity="0.32" stroke-width="3"/>
<circle cx="303" cy="474" r="8" fill="white"/>
<circle cx="303" cy="474" r="9.5" stroke="white" stroke-opacity="0.32" stroke-width="3"/>
<circle cx="362" cy="416" r="8" fill="white"/>
<circle cx="362" cy="416" r="9.5" stroke="white" stroke-opacity="0.32" stroke-width="3"/>
<circle cx="490" cy="67" r="8" fill="white"/>
<circle cx="490" cy="67" r="9.5" stroke="white" stroke-opacity="0.32" stroke-width="3"/>
<circle cx="386" cy="176" r="8" fill="white"/>
<circle cx="386" cy="176" r="9.5" stroke="white" stroke-opacity="0.32" stroke-width="3"/>
<circle cx="111" cy="213" r="8" fill="white"/>
<circle cx="111" cy="213" r="9.5" stroke="white" stroke-opacity="0.32" stroke-width="3"/>
<circle cx="77" cy="315" r="8" fill="white"/>
<circle cx="77" cy="315" r="9.5" stroke="white" stroke-opacity="0.32" stroke-width="3"/>
<circle cx="461" cy="331" r="8" fill="white"/>
<circle cx="461" cy="331" r="9.5" stroke="white" stroke-opacity="0.32" stroke-width="3"/>
<circle cx="516" cy="63" r="8" fill="white"/>
<circle cx="516" cy="63" r="9.5" stroke="white" stroke-opacity="0.32" stroke-width="3"/>
<circle cx="-8" cy="269" r="8" fill="white"/>
<circle cx="-8" cy="269" r="9.5" stroke="white" stroke-opacity="0.32" stroke-width="3"/>
<circle cx="96" cy="435" r="8" fill="white"/>
<circle cx="96" cy="435" r="9.5" stroke="white" stroke-opacity="0.32" stroke-width="3"/>
<circle cx="-7" cy="392" r="8" fill="white"/>
<circle cx="-7" cy="392" r="9.5" stroke="white" stroke-opacity="0.32" stroke-width="3"/>
<circle cx="359" cy="323" r="8" fill="white"/>
<circle cx="359" cy="323" r="9.5" stroke="white" stroke-opacity="0.32" stroke-width="3"/>
<circle cx="519" cy="271" r="8" fill="white"/>
<circle cx="519" cy="271" r="9.5" stroke="white" stroke-opacity="0.32" stroke-width="3"/>
<circle cx="387" cy="439" r="8" fill="white"/>
<circle cx="387" cy="439" r="9.5" stroke="white" stroke-opacity="0.32" stroke-width="3"/>
<circle cx="29" cy="452" r="8" fill="white"/>
<circle cx="29" cy="452" r="9.5" stroke="white" stroke-opacity="0.32" stroke-width="3"/>
<circle cx="119" cy="129" r="8" fill="white"/>
<circle cx="119" cy="129" r="9.5" stroke="white" stroke-opacity="0.32" stroke-width="3"/>
<circle cx="86" cy="160" r="8" fill="white"/>
<circle cx="86" cy="160" r="9.5" stroke="white" stroke-opacity="0.32" stroke-width="3"/>
<circle cx="346" cy="151" r="8" fill="white"/>
<circle cx="346" cy="151" r="9.5" stroke="white" stroke-opacity="0.32" stroke-width="3"/>
<circle cx="345" cy="181" r="8" fill="white"/>
<circle cx="345" cy="181" r="9.5" stroke="white" stroke-opacity="0.32" stroke-width="3"/>
<circle cx="33" cy="183" r="8" fill="white"/>
<circle cx="33" cy="183" r="9.5" stroke="white" stroke-opacity="0.32" stroke-width="3"/>
<circle cx="191" cy="131" r="8" fill="white"/>
<circle cx="191" cy="131" r="9.5" stroke="white" stroke-opacity="0.32" stroke-width="3"/>
<circle cx="33" cy="454" r="8" fill="white"/>
<circle cx="33" cy="454" r="9.5" stroke="white" stroke-opacity="0.32" stroke-width="3"/>
<circle cx="305" cy="99" r="8" fill="white"/>
<circle cx="305" cy="99" r="9.5" stroke="white" stroke-opacity="0.32" stroke-width="3"/>
<circle cx="488" cy="95" r="8" fill="white"/>
<circle cx="488" cy="95" r="9.5" stroke="white" stroke-opacity="0.32" stroke-width="3"/>
<circle cx="389" cy="487" r="8" fill="white"/>
<circle cx="389" cy="487" r="9.5" stroke="white" stroke-opacity="0.32" stroke-width="3"/>
<circle cx="82" cy="489" r="8" fill="white"/>
<circle cx="82" cy="489" r="9.5" stroke="white" stroke-opacity="0.32" stroke-width="3"/>
<circle cx="380" cy="140" r="8" fill="white"/>
<circle cx="380" cy="140" r="9.5" stroke="white" stroke-opacity="0.32" stroke-width="3"/>
<circle cx="145" cy="168" r="8" fill="white"/>
<circle cx="145" cy="168" r="9.5" stroke="white" stroke-opacity="0.32" stroke-width="3"/>
<circle cx="90" cy="145" r="8" fill="white"/>
<circle cx="90" cy="145" r="9.5" stroke="white" stroke-opacity="0.32" stroke-width="3"/>
<circle cx="347" cy="84" r="8" fill="white"/>
<circle cx="347" cy="84" r="9.5" stroke="white" stroke-opacity="0.32" stroke-width="3"/>
<circle cx="108" cy="274" r="8" fill="white"/>
<circle cx="108" cy="274" r="9.5" stroke="white" stroke-opacity="0.32" stroke-width="3"/>
<circle cx="155" cy="209" r="8" fill="white"/>
<circle cx="155" cy="209" r="9.5" stroke="white" stroke-opacity="0.32" stroke-width="3"/>
<circle cx="95" cy="143" r="8" fill="white"/>
<circle cx="95" cy="143" r="9.5" stroke="white" stroke-opacity="0.32" stroke-width="3"/>
<circle cx="98" cy="248" r="8" fill="white"/>
<circle cx="98" cy="248" r="9.5" stroke="white" stroke-opacity="0.32" stroke-width="3"/>
<circle cx="495" cy="323" r="8" fill="white"/>
<circle cx="495" cy="323" r="9.5" stroke="white" stroke-opacity="0.32" stroke-width="3"/>
<circle cx="388" cy="225" r="8" fill="white"/>
<circle cx="388" cy="225" r="9.5" stroke="white" stroke-opacity="0.32" stroke-width="3"/>
<circle cx="280" cy="264" r="8" fill="white"/>
<circle cx="280" cy="264" r="9.5" stroke="white" stroke-opacity="0.32" stroke-width="3"/>
<circle cx="455" cy="197" r="8" fill="white"/>
<circle cx="455" cy="197" r="9.5" stroke="white" stroke-opacity="0.32" stroke-width="3"/>
</mask>
<g mask="url(#mask1_223_2)">
<circle cx="270" cy="270" r="250" transform="rotate(135 270 270)" fill="url(#paint0_linear_223_2)" fill-opacity="0.5"/>
</g>
<circle cx="170.854" cy="169.85" r="60" transform="rotate(-45 170.854 169.85)" fill="#FEFEFE"/>
<circle cx="170.641" cy="369.637" r="45" transform="rotate(-45 170.641 369.637)" fill="#FEFEFE"/>
<circle cx="370.641" cy="169.637" r="45" transform="rotate(-45 370.641 169.637)" fill="#FEFEFE"/>
<circle cx="370.854" cy="369.85" r="60" transform="rotate(-45 370.854 369.85)" fill="#FEFEFE"/>
<line x1="160.398" y1="169.997" x2="379.602" y2="169.997" stroke="white" stroke-width="20"/>
<line x1="160.398" y1="369.997" x2="379.602" y2="369.997" stroke="white" stroke-width="20"/>
<line x1="170.501" y1="379.602" x2="170.501" y2="160.398" stroke="white" stroke-width="20"/>
<line x1="370.501" y1="379.602" x2="370.501" y2="160.398" stroke="white" stroke-width="20"/>
<path d="M54.5 409C54.5 409 148.5 409 171.5 409C194.5 409 252.5 360 273.5 267.5C294.5 175 349 130 372 130C395 130 482.5 130 482.5 130" stroke="white" stroke-opacity="0.5" stroke-width="8"/>
</g>
<defs>
<linearGradient id="paint0_linear_223_2" x1="270" y1="20" x2="270" y2="520" gradientUnits="userSpaceOnUse">
<stop offset="0.413462" stop-color="#24BDAD"/>
<stop offset="0.591346" stop-color="#3A99F9"/>
</linearGradient>
<clipPath id="clip0_223_2">
<rect width="540" height="540" fill="white"/>
</clipPath>
</defs>
</svg>
